<?xml version="1.0" encoding="utf-8" standalone="no"?>
<!DOCTYPE svg PUBLIC "-//W3C//DTD SVG 1.1//EN"
  "http://www.w3.org/Graphics/SVG/1.1/DTD/svg11.dtd">
<svg xmlns:xlink="http://www.w3.org/1999/xlink" width="576pt" height="432pt" viewBox="0 0 576 432" xmlns="http://www.w3.org/2000/svg" version="1.1">
 <metadata>
  <rdf:RDF xmlns:dc="http://purl.org/dc/elements/1.1/" xmlns:cc="http://creativecommons.org/ns#" xmlns:rdf="http://www.w3.org/1999/02/22-rdf-syntax-ns#">
   <cc:Work>
    <dc:type rdf:resource="http://purl.org/dc/dcmitype/StillImage"/>
    <dc:date>2026-09-04T18:04:35.036550</dc:date>
    <dc:format>image/svg+xml</dc:format>
    <dc:creator>
     <cc:Agent>
      <dc:title>Matplotlib v3.11.1, https://matplotlib.org/</dc:title>
     </cc:Agent>
    </dc:creator>
   </cc:Work>
  </rdf:RDF>
 </metadata>
 <defs>
  <style type="text/css">*{stroke-linejoin: round; stroke-linecap: butt}</style>
 </defs>
 <g id="figure_1">
  <g id="patch_1">
   <path d="M 0 432 
L 576 432 
L 576 0 
L 0 0 
L 0 432 
z
" style="fill: none"/>
  </g>
  <g id="axes_1">
   <g id="patch_2">
    <path d="M 72 384.48 
L 518.4 384.48 
L 518.4 51.84 
L 72 51.84 
L 72 384.48 
z
" style="fill: none"/>
   </g>
   <g id="matplotlib.axis_1">
    <g id="xtick_1">
     <g id="text_1">
      <!-- LOGO -->
      <g style="fill: #262626" transform="translate(279.410703 402.337422) scale(0.11 -0.11)">
       <defs>
        <path id="DejaVuSans-2f" d="M 628 4666 
L 1259 4666 
L 1259 531 
L 3531 531 
L 3531 0 
L 628 0 
L 628 4666 
z
" transform="scale(0.015625)"/>
        <path id="DejaVuSans-32" d="M 2522 4238 
Q 1834 4238 1429 3725 
Q 1025 3213 1025 2328 
Q 1025 1447 1429 934 
Q 1834 422 2522 422 
Q 3209 422 3611 934 
Q 4013 1447 4013 2328 
Q 4013 3213 3611 3725 
Q 3209 4238 2522 4238 
z
M 2522 4750 
Q 3503 4750 4090 4092 
Q 4678 3434 4678 2328 
Q 4678 1225 4090 567 
Q 3503 -91 2522 -91 
Q 1538 -91 948 565 
Q 359 1222 359 2328 
Q 359 3434 948 4092 
Q 1538 4750 2522 4750 
z
" transform="scale(0.015625)"/>
        <path id="DejaVuSans-2a" d="M 3809 666 
L 3809 1919 
L 2778 1919 
L 2778 2438 
L 4434 2438 
L 4434 434 
Q 4069 175 3628 42 
Q 3188 -91 2688 -91 
Q 1594 -91 976 548 
Q 359 1188 359 2328 
Q 359 3472 976 4111 
Q 1594 4750 2688 4750 
Q 3144 4750 3555 4637 
Q 3966 4525 4313 4306 
L 4313 3634 
Q 3963 3931 3569 4081 
Q 3175 4231 2741 4231 
Q 1884 4231 1454 3753 
Q 1025 3275 1025 2328 
Q 1025 1384 1454 906 
Q 1884 428 2741 428 
Q 3075 428 3337 486 
Q 3600 544 3809 666 
z
" transform="scale(0.015625)"/>
       </defs>
       <use xlink:href="#DejaVuSans-2f"/>
       <use xlink:href="#DejaVuSans-32" transform="translate(52.15625 0)"/>
       <use xlink:href="#DejaVuSans-2a" transform="translate(130.875 0)"/>
       <use xlink:href="#DejaVuSans-32" transform="translate(208.359375 0)"/>
      </g>
     </g>
    </g>
   </g>
   <g id="matplotlib.axis_2">
    <g id="ytick_1">
     <g id="line2d_1">
      <path d="M 72 384.48 
L 518.4 384.48 
" clip-path="url(#pd573183819)" style="fill: none; stroke: #cccccc; stroke-linecap: round"/>
     </g>
     <g id="text_2">
      <!-- 0.0 -->
      <g style="fill: #262626" transform="translate(45.006563 388.658711) scale(0.11 -0.11)">
       <defs>
        <path id="DejaVuSans-13" d="M 2034 4250 
Q 1547 4250 1301 3770 
Q 1056 3291 1056 2328 
Q 1056 1369 1301 889 
Q 1547 409 2034 409 
Q 2525 409 2770 889 
Q 3016 1369 3016 2328 
Q 3016 3291 2770 3770 
Q 2525 4250 2034 4250 
z
M 2034 4750 
Q 2819 4750 3233 4129 
Q 3647 3509 3647 2328 
Q 3647 1150 3233 529 
Q 2819 -91 2034 -91 
Q 1250 -91 836 529 
Q 422 1150 422 2328 
Q 422 3509 836 4129 
Q 1250 4750 2034 4750 
z
" transform="scale(0.015625)"/>
        <path id="DejaVuSans-11" d="M 684 794 
L 1344 794 
L 1344 0 
L 684 0 
L 684 794 
z
" transform="scale(0.015625)"/>
       </defs>
       <use xlink:href="#DejaVuSans-13"/>
       <use xlink:href="#DejaVuSans-11" transform="translate(63.625 0)"/>
       <use xlink:href="#DejaVuSans-13" transform="translate(95.40625 0)"/>
      </g>
     </g>
    </g>
    <g id="ytick_2">
     <g id="line2d_2">
      <path d="M 72 317.952 
L 518.4 317.952 
" clip-path="url(#pd573183819)" style="fill: none; stroke: #cccccc; stroke-linecap: round"/>
     </g>
     <g id="text_3">
      <!-- 0.2 -->
      <g style="fill: #262626" transform="translate(45.006563 322.130711) scale(0.11 -0.11)">
       <defs>
        <path id="DejaVuSans-15" d="M 1228 531 
L 3431 531 
L 3431 0 
L 469 0 
L 469 531 
Q 828 903 1448 1529 
Q 2069 2156 2228 2338 
Q 2531 2678 2651 2914 
Q 2772 3150 2772 3378 
Q 2772 3750 2511 3984 
Q 2250 4219 1831 4219 
Q 1534 4219 1204 4116 
Q 875 4013 500 3803 
L 500 4441 
Q 881 4594 1212 4672 
Q 1544 4750 1819 4750 
Q 2544 4750 2975 4387 
Q 3406 4025 3406 3419 
Q 3406 3131 3298 2873 
Q 3191 2616 2906 2266 
Q 2828 2175 2409 1742 
Q 1991 1309 1228 531 
z
" transform="scale(0.015625)"/>
       </defs>
       <use xlink:href="#DejaVuSans-13"/>
       <use xlink:href="#DejaVuSans-11" transform="translate(63.625 0)"/>
       <use xlink:href="#DejaVuSans-15" transform="translate(95.40625 0)"/>
      </g>
     </g>
    </g>
    <g id="ytick_3">
     <g id="line2d_3">
      <path d="M 72 251.424 
L 518.4 251.424 
" clip-path="url(#pd573183819)" style="fill: none; stroke: #cccccc; stroke-linecap: round"/>
     </g>
     <g id="text_4">
      <!-- 0.4 -->
      <g style="fill: #262626" transform="translate(45.006563 255.602711) scale(0.11 -0.11)">
       <defs>
        <path id="DejaVuSans-17" d="M 2419 4116 
L 825 1625 
L 2419 1625 
L 2419 4116 
z
M 2253 4666 
L 3047 4666 
L 3047 1625 
L 3713 1625 
L 3713 1100 
L 3047 1100 
L 3047 0 
L 2419 0 
L 2419 1100 
L 313 1100 
L 313 1709 
L 2253 4666 
z
" transform="scale(0.015625)"/>
       </defs>
       <use xlink:href="#DejaVuSans-13"/>
       <use xlink:href="#DejaVuSans-11" transform="translate(63.625 0)"/>
       <use xlink:href="#DejaVuSans-17" transform="translate(95.40625 0)"/>
      </g>
     </g>
    </g>
    <g id="ytick_4">
     <g id="line2d_4">
      <path d="M 72 184.896 
L 518.4 184.896 
" clip-path="url(#pd573183819)" style="fill: none; stroke: #cccccc; stroke-linecap: round"/>
     </g>
     <g id="text_5">
      <!-- 0.6 -->
      <g style="fill: #262626" transform="translate(45.006563 189.074711) scale(0.11 -0.11)">
       <defs>
        <path id="DejaVuSans-19" d="M 2113 2584 
Q 1688 2584 1439 2293 
Q 1191 2003 1191 1497 
Q 1191 994 1439 701 
Q 1688 409 2113 409 
Q 2538 409 2786 701 
Q 3034 994 3034 1497 
Q 3034 2003 2786 2293 
Q 2538 2584 2113 2584 
z
M 3366 4563 
L 3366 3988 
Q 3128 4100 2886 4159 
Q 2644 4219 2406 4219 
Q 1781 4219 1451 3797 
Q 1122 3375 1075 2522 
Q 1259 2794 1537 2939 
Q 1816 3084 2150 3084 
Q 2853 3084 3261 2657 
Q 3669 2231 3669 1497 
Q 3669 778 3244 343 
Q 2819 -91 2113 -91 
Q 1303 -91 875 529 
Q 447 1150 447 2328 
Q 447 3434 972 4092 
Q 1497 4750 2381 4750 
Q 2619 4750 2861 4703 
Q 3103 4656 3366 4563 
z
" transform="scale(0.015625)"/>
       </defs>
       <use xlink:href="#DejaVuSans-13"/>
       <use xlink:href="#DejaVuSans-11" transform="translate(63.625 0)"/>
       <use xlink:href="#DejaVuSans-19" transform="translate(95.40625 0)"/>
      </g>
     </g>
    </g>
    <g id="ytick_5">
     <g id="line2d_5">
      <path d="M 72 118.368 
L 518.4 118.368 
" clip-path="url(#pd573183819)" style="fill: none; stroke: #cccccc; stroke-linecap: round"/>
     </g>
     <g id="text_6">
      <!-- 0.8 -->
      <g style="fill: #262626" transform="translate(45.006563 122.546711) scale(0.11 -0.11)">
       <defs>
        <path id="DejaVuSans-1b" d="M 2034 2216 
Q 1584 2216 1326 1975 
Q 1069 1734 1069 1313 
Q 1069 891 1326 650 
Q 1584 409 2034 409 
Q 2484 409 2743 651 
Q 3003 894 3003 1313 
Q 3003 1734 2745 1975 
Q 2488 2216 2034 2216 
z
M 1403 2484 
Q 997 2584 770 2862 
Q 544 3141 544 3541 
Q 544 4100 942 4425 
Q 1341 4750 2034 4750 
Q 2731 4750 3128 4425 
Q 3525 4100 3525 3541 
Q 3525 3141 3298 2862 
Q 3072 2584 2669 2484 
Q 3125 2378 3379 2068 
Q 3634 1759 3634 1313 
Q 3634 634 3220 271 
Q 2806 -91 2034 -91 
Q 1263 -91 848 271 
Q 434 634 434 1313 
Q 434 1759 690 2068 
Q 947 2378 1403 2484 
z
M 1172 3481 
Q 1172 3119 1398 2916 
Q 1625 2713 2034 2713 
Q 2441 2713 2670 2916 
Q 2900 3119 2900 3481 
Q 2900 3844 2670 4047 
Q 2441 4250 2034 4250 
Q 1625 4250 1398 4047 
Q 1172 3844 1172 3481 
z
" transform="scale(0.015625)"/>
       </defs>
       <use xlink:href="#DejaVuSans-13"/>
       <use xlink:href="#DejaVuSans-11" transform="translate(63.625 0)"/>
       <use xlink:href="#DejaVuSans-1b" transform="translate(95.40625 0)"/>
      </g>
     </g>
    </g>
    <g id="ytick_6">
     <g id="line2d_6">
      <path d="M 72 51.84 
L 518.4 51.84 
" clip-path="url(#pd573183819)" style="fill: none; stroke: #cccccc; stroke-linecap: round"/>
     </g>
     <g id="text_7">
      <!-- 1.0 -->
      <g style="fill: #262626" transform="translate(45.006563 56.018711) scale(0.11 -0.11)">
       <defs>
        <path id="DejaVuSans-14" d="M 794 531 
L 1825 531 
L 1825 4091 
L 703 3866 
L 703 4441 
L 1819 4666 
L 2450 4666 
L 2450 531 
L 3481 531 
L 3481 0 
L 794 0 
L 794 531 
z
" transform="scale(0.015625)"/>
       </defs>
       <use xlink:href="#DejaVuSans-14"/>
       <use xlink:href="#DejaVuSans-11" transform="translate(63.625 0)"/>
       <use xlink:href="#DejaVuSans-13" transform="translate(95.40625 0)"/>
      </g>
     </g>
    </g>
    <g id="text_8">
     <!-- Score -->
     <g style="fill: #262626" transform="translate(38.12375 234.965625) rotate(-90) scale(0.12 -0.12)">
      <defs>
       <path id="DejaVuSans-36" d="M 3425 4513 
L 3425 3897 
Q 3066 4069 2747 4153 
Q 2428 4238 2131 4238 
Q 1616 4238 1336 4038 
Q 1056 3838 1056 3469 
Q 1056 3159 1242 3001 
Q 1428 2844 1947 2747 
L 2328 2669 
Q 3034 2534 3370 2195 
Q 3706 1856 3706 1288 
Q 3706 609 3251 259 
Q 2797 -91 1919 -91 
Q 1588 -91 1214 -16 
Q 841 59 441 206 
L 441 856 
Q 825 641 1194 531 
Q 1563 422 1919 422 
Q 2459 422 2753 634 
Q 3047 847 3047 1241 
Q 3047 1584 2836 1778 
Q 2625 1972 2144 2069 
L 1759 2144 
Q 1053 2284 737 2584 
Q 422 2884 422 3419 
Q 422 4038 858 4394 
Q 1294 4750 2059 4750 
Q 2388 4750 2728 4690 
Q 3069 4631 3425 4513 
z
" transform="scale(0.015625)"/>
       <path id="DejaVuSans-46" d="M 3122 3366 
L 3122 2828 
Q 2878 2963 2633 3030 
Q 2388 3097 2138 3097 
Q 1578 3097 1268 2742 
Q 959 2388 959 1747 
Q 959 1106 1268 751 
Q 1578 397 2138 397 
Q 2388 397 2633 464 
Q 2878 531 3122 666 
L 3122 134 
Q 2881 22 2623 -34 
Q 2366 -91 2075 -91 
Q 1284 -91 818 406 
Q 353 903 353 1747 
Q 353 2603 823 3093 
Q 1294 3584 2113 3584 
Q 2378 3584 2631 3529 
Q 2884 3475 3122 3366 
z
" transform="scale(0.015625)"/>
       <path id="DejaVuSans-52" d="M 1959 3097 
Q 1497 3097 1228 2736 
Q 959 2375 959 1747 
Q 959 1119 1226 758 
Q 1494 397 1959 397 
Q 2419 397 2687 759 
Q 2956 1122 2956 1747 
Q 2956 2369 2687 2733 
Q 2419 3097 1959 3097 
z
M 1959 3584 
Q 2709 3584 3137 3096 
Q 3566 2609 3566 1747 
Q 3566 888 3137 398 
Q 2709 -91 1959 -91 
Q 1206 -91 779 398 
Q 353 888 353 1747 
Q 353 2609 779 3096 
Q 1206 3584 1959 3584 
z
" transform="scale(0.015625)"/>
       <path id="DejaVuSans-55" d="M 2631 2963 
Q 2534 3019 2420 3045 
Q 2306 3072 2169 3072 
Q 1681 3072 1420 2755 
Q 1159 2438 1159 1844 
L 1159 0 
L 581 0 
L 581 3500 
L 1159 3500 
L 1159 2956 
Q 1341 3275 1631 3429 
Q 1922 3584 2338 3584 
Q 2397 3584 2469 3576 
Q 2541 3569 2628 3553 
L 2631 2963 
z
" transform="scale(0.015625)"/>
       <path id="DejaVuSans-48" d="M 3597 1894 
L 3597 1613 
L 953 1613 
Q 991 1019 1311 708 
Q 1631 397 2203 397 
Q 2534 397 2845 478 
Q 3156 559 3463 722 
L 3463 178 
Q 3153 47 2828 -22 
Q 2503 -91 2169 -91 
Q 1331 -91 842 396 
Q 353 884 353 1716 
Q 353 2575 817 3079 
Q 1281 3584 2069 3584 
Q 2775 3584 3186 3129 
Q 3597 2675 3597 1894 
z
M 3022 2063 
Q 3016 2534 2758 2815 
Q 2500 3097 2075 3097 
Q 1594 3097 1305 2825 
Q 1016 2553 972 2059 
L 3022 2063 
z
" transform="scale(0.015625)"/>
      </defs>
      <use xlink:href="#DejaVuSans-36"/>
      <use xlink:href="#DejaVuSans-46" transform="translate(63.484375 0)"/>
      <use xlink:href="#DejaVuSans-52" transform="translate(118.46875 0)"/>
      <use xlink:href="#DejaVuSans-55" transform="translate(179.65625 0)"/>
      <use xlink:href="#DejaVuSans-48" transform="translate(218.5625 0)"/>
     </g>
    </g>
   </g>
   <g id="FillBetweenPolyCollection_1">
    <defs>
     <path id="m16f9295039" d="M 290.736 -167.2704 
L 197.853511 -167.2704 
L 192.948173 -169.2864 
L 188.068398 -171.3024 
L 183.23852 -173.3184 
L 178.48264 -175.3344 
L 173.82428 -177.3504 
L 169.286043 -179.3664 
L 164.889279 -181.3824 
L 160.65378 -183.3984 
L 156.597503 -185.4144 
L 152.736324 -187.4304 
L 149.083841 -189.4464 
L 145.651235 -191.4624 
L 142.447169 -193.4784 
L 139.477765 -195.4944 
L 136.746625 -197.5104 
L 134.254922 -199.5264 
L 132.001545 -201.5424 
L 129.98329 -203.5584 
L 128.195113 -205.5744 
L 126.630404 -207.5904 
L 125.281303 -209.6064 
L 124.139029 -211.6224 
L 123.194218 -213.6384 
L 122.437258 -215.6544 
L 121.858608 -217.6704 
L 121.449086 -219.6864 
L 121.200129 -221.7024 
L 121.104 -223.7184 
L 121.153942 -225.7344 
L 121.344278 -227.7504 
L 121.670449 -229.7664 
L 122.128987 -231.7824 
L 122.717432 -233.7984 
L 123.434191 -235.8144 
L 124.27835 -237.8304 
L 125.249444 -239.8464 
L 126.347196 -241.8624 
L 127.571239 -243.8784 
L 128.920827 -245.8944 
L 130.394557 -247.9104 
L 131.990107 -249.9264 
L 133.704 -251.9424 
L 135.531413 -253.9584 
L 137.466035 -255.9744 
L 139.499977 -257.9904 
L 141.623752 -260.0064 
L 143.826308 -262.0224 
L 146.095136 -264.0384 
L 148.416434 -266.0544 
L 150.775326 -268.0704 
L 153.156137 -270.0864 
L 155.542705 -272.1024 
L 157.918724 -274.1184 
L 160.26811 -276.1344 
L 162.575369 -278.1504 
L 164.825962 -280.1664 
L 167.006658 -282.1824 
L 169.105843 -284.1984 
L 171.11381 -286.2144 
L 173.022985 -288.2304 
L 174.828105 -290.2464 
L 176.526334 -292.2624 
L 178.117319 -294.2784 
L 179.603174 -296.2944 
L 180.988411 -298.3104 
L 182.279806 -300.3264 
L 183.486208 -302.3424 
L 184.61831 -304.3584 
L 185.688367 -306.3744 
L 186.709898 -308.3904 
L 187.697351 -310.4064 
L 188.665771 -312.4224 
L 189.630455 -314.4384 
L 190.606618 -316.4544 
L 191.609078 -318.4704 
L 192.651955 -320.4864 
L 193.748411 -322.5024 
L 194.910412 -324.5184 
L 196.148538 -326.5344 
L 197.471825 -328.5504 
L 198.887656 -330.5664 
L 200.401687 -332.5824 
L 202.017815 -334.5984 
L 203.738179 -336.6144 
L 205.563204 -338.6304 
L 207.491667 -340.6464 
L 209.520788 -342.6624 
L 211.64635 -344.6784 
L 213.862827 -346.6944 
L 216.163534 -348.7104 
L 218.540774 -350.7264 
L 220.985998 -352.7424 
L 223.489962 -354.7584 
L 226.042885 -356.7744 
L 228.634595 -358.7904 
L 231.254678 -360.8064 
L 233.892612 -362.8224 
L 236.537892 -364.8384 
L 239.180149 -366.8544 
L 290.736 -366.8544 
L 290.736 -366.8544 
L 290.736 -364.8384 
L 290.736 -362.8224 
L 290.736 -360.8064 
L 290.736 -358.7904 
L 290.736 -356.7744 
L 290.736 -354.7584 
L 290.736 -352.7424 
L 290.736 -350.7264 
L 290.736 -348.7104 
L 290.736 -346.6944 
L 290.736 -344.6784 
L 290.736 -342.6624 
L 290.736 -340.6464 
L 290.736 -338.6304 
L 290.736 -336.6144 
L 290.736 -334.5984 
L 290.736 -332.5824 
L 290.736 -330.5664 
L 290.736 -328.5504 
L 290.736 -326.5344 
L 290.736 -324.5184 
L 290.736 -322.5024 
L 290.736 -320.4864 
L 290.736 -318.4704 
L 290.736 -316.4544 
L 290.736 -314.4384 
L 290.736 -312.4224 
L 290.736 -310.4064 
L 290.736 -308.3904 
L 290.736 -306.3744 
L 290.736 -304.3584 
L 290.736 -302.3424 
L 290.736 -300.3264 
L 290.736 -298.3104 
L 290.736 -296.2944 
L 290.736 -294.2784 
L 290.736 -292.2624 
L 290.736 -290.2464 
L 290.736 -288.2304 
L 290.736 -286.2144 
L 290.736 -284.1984 
L 290.736 -282.1824 
L 290.736 -280.1664 
L 290.736 -278.1504 
L 290.736 -276.1344 
L 290.736 -274.1184 
L 290.736 -272.1024 
L 290.736 -270.0864 
L 290.736 -268.0704 
L 290.736 -266.0544 
L 290.736 -264.0384 
L 290.736 -262.0224 
L 290.736 -260.0064 
L 290.736 -257.9904 
L 290.736 -255.9744 
L 290.736 -253.9584 
L 290.736 -251.9424 
L 290.736 -249.9264 
L 290.736 -247.9104 
L 290.736 -245.8944 
L 290.736 -243.8784 
L 290.736 -241.8624 
L 290.736 -239.8464 
L 290.736 -237.8304 
L 290.736 -235.8144 
L 290.736 -233.7984 
L 290.736 -231.7824 
L 290.736 -229.7664 
L 290.736 -227.7504 
L 290.736 -225.7344 
L 290.736 -223.7184 
L 290.736 -221.7024 
L 290.736 -219.6864 
L 290.736 -217.6704 
L 290.736 -215.6544 
L 290.736 -213.6384 
L 290.736 -211.6224 
L 290.736 -209.6064 
L 290.736 -207.5904 
L 290.736 -205.5744 
L 290.736 -203.5584 
L 290.736 -201.5424 
L 290.736 -199.5264 
L 290.736 -197.5104 
L 290.736 -195.4944 
L 290.736 -193.4784 
L 290.736 -191.4624 
L 290.736 -189.4464 
L 290.736 -187.4304 
L 290.736 -185.4144 
L 290.736 -183.3984 
L 290.736 -181.3824 
L 290.736 -179.3664 
L 290.736 -177.3504 
L 290.736 -175.3344 
L 290.736 -173.3184 
L 290.736 -171.3024 
L 290.736 -169.2864 
L 290.736 -167.2704 
z
" style="stroke: #737373"/>
    </defs>
    <g clip-path="url(#pd573183819)">
     <use xlink:href="#m16f9295039" x="0" y="432" style="fill: #abc9ea; stroke: #737373"/>
    </g>
   </g>
   <g id="FillBetweenPolyCollection_2">
    <defs>
     <path id="mb4df6ffb4a" d="M 421.029784 -157.798737 
L 299.664 -157.798737 
L 299.664 -159.909053 
L 299.664 -162.019368 
L 299.664 -164.129684 
L 299.664 -166.24 
L 299.664 -168.350316 
L 299.664 -170.460632 
L 299.664 -172.570947 
L 299.664 -174.681263 
L 299.664 -176.791579 
L 299.664 -178.901895 
L 299.664 -181.012211 
L 299.664 -183.122526 
L 299.664 -185.232842 
L 299.664 -187.343158 
L 299.664 -189.453474 
L 299.664 -191.563789 
L 299.664 -193.674105 
L 299.664 -195.784421 
L 299.664 -197.894737 
L 299.664 -200.005053 
L 299.664 -202.115368 
L 299.664 -204.225684 
L 299.664 -206.336 
L 299.664 -208.446316 
L 299.664 -210.556632 
L 299.664 -212.666947 
L 299.664 -214.777263 
L 299.664 -216.887579 
L 299.664 -218.997895 
L 299.664 -221.108211 
L 299.664 -223.218526 
L 299.664 -225.328842 
L 299.664 -227.439158 
L 299.664 -229.549474 
L 299.664 -231.659789 
L 299.664 -233.770105 
L 299.664 -235.880421 
L 299.664 -237.990737 
L 299.664 -240.101053 
L 299.664 -242.211368 
L 299.664 -244.321684 
L 299.664 -246.432 
L 299.664 -248.542316 
L 299.664 -250.652632 
L 299.664 -252.762947 
L 299.664 -254.873263 
L 299.664 -256.983579 
L 299.664 -259.093895 
L 299.664 -261.204211 
L 299.664 -263.314526 
L 299.664 -265.424842 
L 299.664 -267.535158 
L 299.664 -269.645474 
L 299.664 -271.755789 
L 299.664 -273.866105 
L 299.664 -275.976421 
L 299.664 -278.086737 
L 299.664 -280.197053 
L 299.664 -282.307368 
L 299.664 -284.417684 
L 299.664 -286.528 
L 299.664 -288.638316 
L 299.664 -290.748632 
L 299.664 -292.858947 
L 299.664 -294.969263 
L 299.664 -297.079579 
L 299.664 -299.189895 
L 299.664 -301.300211 
L 299.664 -303.410526 
L 299.664 -305.520842 
L 299.664 -307.631158 
L 299.664 -309.741474 
L 299.664 -311.851789 
L 299.664 -313.962105 
L 299.664 -316.072421 
L 299.664 -318.182737 
L 299.664 -320.293053 
L 299.664 -322.403368 
L 299.664 -324.513684 
L 299.664 -326.624 
L 299.664 -328.734316 
L 299.664 -330.844632 
L 299.664 -332.954947 
L 299.664 -335.065263 
L 299.664 -337.175579 
L 299.664 -339.285895 
L 299.664 -341.396211 
L 299.664 -343.506526 
L 299.664 -345.616842 
L 299.664 -347.727158 
L 299.664 -349.837474 
L 299.664 -351.947789 
L 299.664 -354.058105 
L 299.664 -356.168421 
L 299.664 -358.278737 
L 299.664 -360.389053 
L 299.664 -362.499368 
L 299.664 -364.609684 
L 299.664 -366.72 
L 355.377461 -366.72 
L 355.377461 -366.72 
L 357.928981 -364.609684 
L 360.465608 -362.499368 
L 362.978707 -360.389053 
L 365.460017 -358.278737 
L 367.901777 -356.168421 
L 370.296855 -354.058105 
L 372.638867 -351.947789 
L 374.922292 -349.837474 
L 377.142582 -347.727158 
L 379.296257 -345.616842 
L 381.380983 -343.506526 
L 383.395646 -341.396211 
L 385.340389 -339.285895 
L 387.216651 -337.175579 
L 389.02716 -335.065263 
L 390.775921 -332.954947 
L 392.468168 -330.844632 
L 394.110293 -328.734316 
L 395.70975 -326.624 
L 397.274929 -324.513684 
L 398.815013 -322.403368 
L 400.339801 -320.293053 
L 401.859519 -318.182737 
L 403.384608 -316.072421 
L 404.925502 -313.962105 
L 406.49239 -311.851789 
L 408.094978 -309.741474 
L 409.74225 -307.631158 
L 411.442232 -305.520842 
L 413.201771 -303.410526 
L 415.026329 -301.300211 
L 416.919801 -299.189895 
L 418.884361 -297.079579 
L 420.920348 -294.969263 
L 423.026177 -292.858947 
L 425.198305 -290.748632 
L 427.431237 -288.638316 
L 429.717575 -286.528 
L 432.048118 -284.417684 
L 434.412006 -282.307368 
L 436.796907 -280.197053 
L 439.189247 -278.086737 
L 441.574468 -275.976421 
L 443.937325 -273.866105 
L 446.262195 -271.755789 
L 448.533411 -269.645474 
L 450.735591 -267.535158 
L 452.853973 -265.424842 
L 454.874732 -263.314526 
L 456.785276 -261.204211 
L 458.574519 -259.093895 
L 460.233107 -256.983579 
L 461.753608 -254.873263 
L 463.130646 -252.762947 
L 464.360984 -250.652632 
L 465.44355 -248.542316 
L 466.379402 -246.432 
L 467.171641 -244.321684 
L 467.825261 -242.211368 
L 468.346955 -240.101053 
L 468.74487 -237.990737 
L 469.028327 -235.880421 
L 469.207505 -233.770105 
L 469.293104 -231.659789 
L 469.296 -229.549474 
L 469.226888 -227.439158 
L 469.095938 -225.328842 
L 468.912463 -223.218526 
L 468.684619 -221.108211 
L 468.419124 -218.997895 
L 468.121034 -216.887579 
L 467.793556 -214.777263 
L 467.437913 -212.666947 
L 467.053265 -210.556632 
L 466.636686 -208.446316 
L 466.183198 -206.336 
L 465.68586 -204.225684 
L 465.135905 -202.115368 
L 464.522938 -200.005053 
L 463.835162 -197.894737 
L 463.059657 -195.784421 
L 462.182677 -193.674105 
L 461.189977 -191.563789 
L 460.067159 -189.453474 
L 458.800016 -187.343158 
L 457.374886 -185.232842 
L 455.778988 -183.122526 
L 454.000748 -181.012211 
L 452.030103 -178.901895 
L 449.858765 -176.791579 
L 447.480468 -174.681263 
L 444.891154 -172.570947 
L 442.089133 -170.460632 
L 439.075182 -168.350316 
L 435.852609 -166.24 
L 432.427255 -164.129684 
L 428.807458 -162.019368 
L 425.003961 -159.909053 
L 421.029784 -157.798737 
z
" style="stroke: #737373"/>
    </defs>
    <g clip-path="url(#pd573183819)">
     <use xlink:href="#mb4df6ffb4a" x="0" y="432" style="fill: #efb792; stroke: #737373"/>
    </g>
   </g>
   <g id="patch_3">
    <path d="M 295.2 384.48 
L 295.2 384.48 
L 295.2 384.48 
L 295.2 384.48 
z
" clip-path="url(#pd573183819)" style="fill: #abc9ea; stroke: #737373; stroke-linejoin: miter"/>
   </g>
   <g id="patch_4">
    <path d="M 295.2 384.48 
L 295.2 384.48 
L 295.2 384.48 
L 295.2 384.48 
z
" clip-path="url(#pd573183819)" style="fill: #efb792; stroke: #737373; stroke-linejoin: miter"/>
   </g>
   <g id="line2d_7">
    <path d="M 288.486 264.7296 
L 288.486 65.1456 
" clip-path="url(#pd573183819)" style="fill: none; stroke: #737373; stroke-width: 1.5; stroke-linecap: round"/>
   </g>
   <g id="line2d_8">
    <path d="M 288.486 228.1392 
L 288.486 128.3472 
" clip-path="url(#pd573183819)" style="fill: none; stroke: #737373; stroke-width: 4.5; stroke-linecap: round"/>
   </g>
   <g id="line2d_9">
    <path d="M 288.486 184.896 
" clip-path="url(#pd573183819)" style="fill: none; stroke: #737373; stroke-width: 1.5; stroke-linecap: round"/>
    <defs>
     <path id="m3753c66c55" d="M 1.875 0 
L -1.875 -0 
" style="stroke: #ffffff; stroke-width: 0.9"/>
    </defs>
    <g clip-path="url(#pd573183819)">
     <use xlink:href="#m3753c66c55" x="288.486" y="184.896" style="fill: #ffffff; stroke: #ffffff; stroke-width: 0.9"/>
    </g>
   </g>
   <g id="line2d_10">
    <path d="M 301.914 274.201263 
L 301.914 65.28 
" clip-path="url(#pd573183819)" style="fill: none; stroke: #737373; stroke-width: 1.5; stroke-linecap: round"/>
   </g>
   <g id="line2d_11">
    <path d="M 301.914 241.603958 
L 301.914 149.6916 
" clip-path="url(#pd573183819)" style="fill: none; stroke: #737373; stroke-width: 4.5; stroke-linecap: round"/>
   </g>
   <g id="line2d_12">
    <path d="M 301.914 185.888084 
" clip-path="url(#pd573183819)" style="fill: none; stroke: #737373; stroke-width: 1.5; stroke-linecap: round"/>
    <g clip-path="url(#pd573183819)">
     <use xlink:href="#m3753c66c55" x="301.914" y="185.888084" style="fill: #ffffff; stroke: #ffffff; stroke-width: 0.9"/>
    </g>
   </g>
   <g id="patch_5">
    <path d="M 72 384.48 
L 72 51.84 
" style="fill: none; stroke: #cccccc; stroke-width: 1.25; stroke-linejoin: miter; stroke-linecap: square"/>
   </g>
   <g id="patch_6">
    <path d="M 518.4 384.48 
L 518.4 51.84 
" style="fill: none; stroke: #cccccc; stroke-width: 1.25; stroke-linejoin: miter; stroke-linecap: square"/>
   </g>
   <g id="patch_7">
    <path d="M 72 384.48 
L 518.4 384.48 
" style="fill: none; stroke: #cccccc; stroke-width: 1.25; stroke-linejoin: miter; stroke-linecap: square"/>
   </g>
   <g id="patch_8">
    <path d="M 72 51.84 
L 518.4 51.84 
" style="fill: none; stroke: #cccccc; stroke-width: 1.25; stroke-linejoin: miter; stroke-linecap: square"/>
   </g>
   <g id="PathCollection_1">
    <defs>
     <path id="C0_0_c756910311" d="M 0 2 
C 0.530406 2 1.03916 1.789267 1.414214 1.414214 
C 1.789267 1.03916 2 0.530406 2 -0 
C 2 -0.530406 1.789267 -1.03916 1.414214 -1.414214 
C 1.03916 -1.789267 0.530406 -2 0 -2 
C -0.530406 -2 -1.03916 -1.789267 -1.414214 -1.414214 
C -1.789267 -1.03916 -2 -0.530406 -2 0 
C -2 0.530406 -1.789267 1.03916 -1.414214 1.414214 
C -1.03916 1.789267 -0.530406 2 0 2 
z
"/>
    </defs>
    <g clip-path="url(#pd573183819)">
     <use xlink:href="#C0_0_c756910311" x="185.875919" y="218.16" style="fill: #4c72b0"/>
    </g>
    <g clip-path="url(#pd573183819)">
     <use xlink:href="#C0_0_c756910311" x="220.83816" y="184.896" style="fill: #4c72b0"/>
    </g>
    <g clip-path="url(#pd573183819)">
     <use xlink:href="#C0_0_c756910311" x="188.719136" y="181.394526" style="fill: #4c72b0"/>
    </g>
    <g clip-path="url(#pd573183819)">
     <use xlink:href="#C0_0_c756910311" x="197.828204" y="207.072" style="fill: #4c72b0"/>
    </g>
    <g clip-path="url(#pd573183819)">
     <use xlink:href="#C0_0_c756910311" x="214.67253" y="229.248" style="fill: #4c72b0"/>
    </g>
    <g clip-path="url(#pd573183819)">
     <use xlink:href="#C0_0_c756910311" x="203.816134" y="118.368" style="fill: #4c72b0"/>
    </g>
    <g clip-path="url(#pd573183819)">
     <use xlink:href="#C0_0_c756910311" x="210.571511" y="162.72" style="fill: #4c72b0"/>
    </g>
    <g clip-path="url(#pd573183819)">
     <use xlink:href="#C0_0_c756910311" x="193.597832" y="234.792" style="fill: #4c72b0"/>
    </g>
    <g clip-path="url(#pd573183819)">
     <use xlink:href="#C0_0_c756910311" x="188.765898" y="184.896" style="fill: #4c72b0"/>
    </g>
    <g clip-path="url(#pd573183819)">
     <use xlink:href="#C0_0_c756910311" x="215.420246" y="118.368" style="fill: #4c72b0"/>
    </g>
    <g clip-path="url(#pd573183819)">
     <use xlink:href="#C0_0_c756910311" x="215.480317" y="158.2848" style="fill: #4c72b0"/>
    </g>
    <g clip-path="url(#pd573183819)">
     <use xlink:href="#C0_0_c756910311" x="221.085049" y="240.336" style="fill: #4c72b0"/>
    </g>
    <g clip-path="url(#pd573183819)">
     <use xlink:href="#C0_0_c756910311" x="204.550263" y="171.5904" style="fill: #4c72b0"/>
    </g>
    <g clip-path="url(#pd573183819)">
     <use xlink:href="#C0_0_c756910311" x="186.815525" y="238.1184" style="fill: #4c72b0"/>
    </g>
    <g clip-path="url(#pd573183819)">
     <use xlink:href="#C0_0_c756910311" x="208.389127" y="251.424" style="fill: #4c72b0"/>
    </g>
    <g clip-path="url(#pd573183819)">
     <use xlink:href="#C0_0_c756910311" x="219.067974" y="118.368" style="fill: #4c72b0"/>
    </g>
    <g clip-path="url(#pd573183819)">
     <use xlink:href="#C0_0_c756910311" x="219.728026" y="184.896" style="fill: #4c72b0"/>
    </g>
    <g clip-path="url(#pd573183819)">
     <use xlink:href="#C0_0_c756910311" x="203.088903" y="224.8128" style="fill: #4c72b0"/>
    </g>
    <g clip-path="url(#pd573183819)">
     <use xlink:href="#C0_0_c756910311" x="193.071479" y="264.7296" style="fill: #4c72b0"/>
    </g>
    <g clip-path="url(#pd573183819)">
     <use xlink:href="#C0_0_c756910311" x="210.658818" y="91.7568" style="fill: #4c72b0"/>
    </g>
    <g clip-path="url(#pd573183819)">
     <use xlink:href="#C0_0_c756910311" x="221.378547" y="91.7568" style="fill: #4c72b0"/>
    </g>
    <g clip-path="url(#pd573183819)">
     <use xlink:href="#C0_0_c756910311" x="224.708879" y="65.1456" style="fill: #4c72b0"/>
    </g>
   </g>
   <g id="PathCollection_2">
    <defs>
     <path id="C1_0_ea2f67aa0c" d="M 0 2 
C 0.530406 2 1.03916 1.789267 1.414214 1.414214 
C 1.789267 1.03916 2 0.530406 2 -0 
C 2 -0.530406 1.789267 -1.03916 1.414214 -1.414214 
C 1.03916 -1.789267 0.530406 -2 0 -2 
C -0.530406 -2 -1.03916 -1.789267 -1.414214 -1.414214 
C -1.789267 -1.03916 -2 -0.530406 -2 0 
C -2 0.530406 -1.789267 1.03916 -1.414214 1.414214 
C -1.03916 1.789267 -0.530406 2 0 2 
z
"/>
    </defs>
    <g clip-path="url(#pd573183819)">
     <use xlink:href="#C1_0_ea2f67aa0c" x="396.377165" y="228.557538" style="fill: #dd8452"/>
    </g>
    <g clip-path="url(#pd573183819)">
     <use xlink:href="#C1_0_ea2f67aa0c" x="402.737617" y="184.979368" style="fill: #dd8452"/>
    </g>
    <g clip-path="url(#pd573183819)">
     <use xlink:href="#C1_0_ea2f67aa0c" x="375.944067" y="183.048659" style="fill: #dd8452"/>
    </g>
    <g clip-path="url(#pd573183819)">
     <use xlink:href="#C1_0_ea2f67aa0c" x="386.516715" y="221.0112" style="fill: #dd8452"/>
    </g>
    <g clip-path="url(#pd573183819)">
     <use xlink:href="#C1_0_ea2f67aa0c" x="381.623333" y="272.4912" style="fill: #dd8452"/>
    </g>
    <g clip-path="url(#pd573183819)">
     <use xlink:href="#C1_0_ea2f67aa0c" x="400.099841" y="144.504" style="fill: #dd8452"/>
    </g>
    <g clip-path="url(#pd573183819)">
     <use xlink:href="#C1_0_ea2f67aa0c" x="391.451803" y="165.2544" style="fill: #dd8452"/>
    </g>
    <g clip-path="url(#pd573183819)">
     <use xlink:href="#C1_0_ea2f67aa0c" x="370.192077" y="238.1184" style="fill: #dd8452"/>
    </g>
    <g clip-path="url(#pd573183819)">
     <use xlink:href="#C1_0_ea2f67aa0c" x="390.772177" y="186.7968" style="fill: #dd8452"/>
    </g>
    <g clip-path="url(#pd573183819)">
     <use xlink:href="#C1_0_ea2f67aa0c" x="363.177272" y="119.294031" style="fill: #dd8452"/>
    </g>
    <g clip-path="url(#pd573183819)">
     <use xlink:href="#C1_0_ea2f67aa0c" x="383.474803" y="170.152615" style="fill: #dd8452"/>
    </g>
    <g clip-path="url(#pd573183819)">
     <use xlink:href="#C1_0_ea2f67aa0c" x="393.527488" y="242.765811" style="fill: #dd8452"/>
    </g>
    <g clip-path="url(#pd573183819)">
     <use xlink:href="#C1_0_ea2f67aa0c" x="388.409277" y="182.3616" style="fill: #dd8452"/>
    </g>
    <g clip-path="url(#pd573183819)">
     <use xlink:href="#C1_0_ea2f67aa0c" x="388.553695" y="274.201263" style="fill: #dd8452"/>
    </g>
    <g clip-path="url(#pd573183819)">
     <use xlink:href="#C1_0_ea2f67aa0c" x="369.7296" y="249.9456" style="fill: #dd8452"/>
    </g>
    <g clip-path="url(#pd573183819)">
     <use xlink:href="#C1_0_ea2f67aa0c" x="388.185321" y="117.147401" style="fill: #dd8452"/>
    </g>
    <g clip-path="url(#pd573183819)">
     <use xlink:href="#C1_0_ea2f67aa0c" x="403.622878" y="196.128" style="fill: #dd8452"/>
    </g>
    <g clip-path="url(#pd573183819)">
     <use xlink:href="#C1_0_ea2f67aa0c" x="390.383883" y="265.284" style="fill: #dd8452"/>
    </g>
    <g clip-path="url(#pd573183819)">
     <use xlink:href="#C1_0_ea2f67aa0c" x="372.002675" y="270.2736" style="fill: #dd8452"/>
    </g>
    <g clip-path="url(#pd573183819)">
     <use xlink:href="#C1_0_ea2f67aa0c" x="366.662354" y="92.664" style="fill: #dd8452"/>
    </g>
    <g clip-path="url(#pd573183819)">
     <use xlink:href="#C1_0_ea2f67aa0c" x="390.180474" y="92.496" style="fill: #dd8452"/>
    </g>
    <g clip-path="url(#pd573183819)">
     <use xlink:href="#C1_0_ea2f67aa0c" x="375.385174" y="65.28" style="fill: #dd8452"/>
    </g>
   </g>
   <g id="line2d_13"/>
   <g id="line2d_14"/>
   <g id="legend_1">
    <g id="patch_9">
     <path d="M 425.278125 378.98 
L 510.7 378.98 
Q 512.9 378.98 512.9 376.78 
L 512.9 327.377344 
Q 512.9 325.177344 510.7 325.177344 
L 425.278125 325.177344 
Q 423.078125 325.177344 423.078125 327.377344 
L 423.078125 376.78 
Q 423.078125 378.98 425.278125 378.98 
z
" style="fill: #ffffff; opacity: 0.8; stroke: #cccccc; stroke-linejoin: miter"/>
    </g>
    <g id="text_9">
     <!-- Metric -->
     <g style="fill: #262626" transform="translate(449.335625 338.695469) scale(0.12 -0.12)">
      <defs>
       <path id="DejaVuSans-30" d="M 628 4666 
L 1569 4666 
L 2759 1491 
L 3956 4666 
L 4897 4666 
L 4897 0 
L 4281 0 
L 4281 4097 
L 3078 897 
L 2444 897 
L 1241 4097 
L 1241 0 
L 628 0 
L 628 4666 
z
" transform="scale(0.015625)"/>
       <path id="DejaVuSans-57" d="M 1172 4494 
L 1172 3500 
L 2356 3500 
L 2356 3053 
L 1172 3053 
L 1172 1153 
Q 1172 725 1289 603 
Q 1406 481 1766 481 
L 2356 481 
L 2356 0 
L 1766 0 
Q 1100 0 847 248 
Q 594 497 594 1153 
L 594 3053 
L 172 3053 
L 172 3500 
L 594 3500 
L 594 4494 
L 1172 4494 
z
" transform="scale(0.015625)"/>
       <path id="DejaVuSans-4c" d="M 603 3500 
L 1178 3500 
L 1178 0 
L 603 0 
L 603 3500 
z
M 603 4863 
L 1178 4863 
L 1178 4134 
L 603 4134 
L 603 4863 
z
" transform="scale(0.015625)"/>
      </defs>
      <use xlink:href="#DejaVuSans-30"/>
      <use xlink:href="#DejaVuSans-48" transform="translate(86.28125 0)"/>
      <use xlink:href="#DejaVuSans-57" transform="translate(147.8125 0)"/>
      <use xlink:href="#DejaVuSans-55" transform="translate(187.015625 0)"/>
      <use xlink:href="#DejaVuSans-4c" transform="translate(228.125 0)"/>
      <use xlink:href="#DejaVuSans-46" transform="translate(255.90625 0)"/>
     </g>
    </g>
    <g id="patch_10">
     <path d="M 427.478125 355.436563 
L 449.478125 355.436563 
L 449.478125 347.736563 
L 427.478125 347.736563 
z
" style="fill: #abc9ea; stroke: #737373; stroke-linejoin: miter"/>
    </g>
    <g id="text_10">
     <!-- Accuracy -->
     <g style="fill: #262626" transform="translate(458.278125 355.436563) scale(0.11 -0.11)">
      <defs>
       <path id="DejaVuSans-24" d="M 2188 4044 
L 1331 1722 
L 3047 1722 
L 2188 4044 
z
M 1831 4666 
L 2547 4666 
L 4325 0 
L 3669 0 
L 3244 1197 
L 1141 1197 
L 716 0 
L 50 0 
L 1831 4666 
z
" transform="scale(0.015625)"/>
       <path id="DejaVuSans-58" d="M 544 1381 
L 544 3500 
L 1119 3500 
L 1119 1403 
Q 1119 906 1312 657 
Q 1506 409 1894 409 
Q 2359 409 2629 706 
Q 2900 1003 2900 1516 
L 2900 3500 
L 3475 3500 
L 3475 0 
L 2900 0 
L 2900 538 
Q 2691 219 2414 64 
Q 2138 -91 1772 -91 
Q 1169 -91 856 284 
Q 544 659 544 1381 
z
M 1991 3584 
L 1991 3584 
z
" transform="scale(0.015625)"/>
       <path id="DejaVuSans-44" d="M 2194 1759 
Q 1497 1759 1228 1600 
Q 959 1441 959 1056 
Q 959 750 1161 570 
Q 1363 391 1709 391 
Q 2188 391 2477 730 
Q 2766 1069 2766 1631 
L 2766 1759 
L 2194 1759 
z
M 3341 1997 
L 3341 0 
L 2766 0 
L 2766 531 
Q 2569 213 2275 61 
Q 1981 -91 1556 -91 
Q 1019 -91 701 211 
Q 384 513 384 1019 
Q 384 1609 779 1909 
Q 1175 2209 1959 2209 
L 2766 2209 
L 2766 2266 
Q 2766 2663 2505 2880 
Q 2244 3097 1772 3097 
Q 1472 3097 1187 3025 
Q 903 2953 641 2809 
L 641 3341 
Q 956 3463 1253 3523 
Q 1550 3584 1831 3584 
Q 2591 3584 2966 3190 
Q 3341 2797 3341 1997 
z
" transform="scale(0.015625)"/>
       <path id="DejaVuSans-5c" d="M 2059 -325 
Q 1816 -950 1584 -1140 
Q 1353 -1331 966 -1331 
L 506 -1331 
L 506 -850 
L 844 -850 
Q 1081 -850 1212 -737 
Q 1344 -625 1503 -206 
L 1606 56 
L 191 3500 
L 800 3500 
L 1894 763 
L 2988 3500 
L 3597 3500 
L 2059 -325 
z
" transform="scale(0.015625)"/>
      </defs>
      <use xlink:href="#DejaVuSans-24"/>
      <use xlink:href="#DejaVuSans-46" transform="translate(66.65625 0)"/>
      <use xlink:href="#DejaVuSans-46" transform="translate(121.640625 0)"/>
      <use xlink:href="#DejaVuSans-58" transform="translate(176.625 0)"/>
      <use xlink:href="#DejaVuSans-55" transform="translate(240 0)"/>
      <use xlink:href="#DejaVuSans-44" transform="translate(281.109375 0)"/>
      <use xlink:href="#DejaVuSans-46" transform="translate(342.390625 0)"/>
      <use xlink:href="#DejaVuSans-5c" transform="translate(397.375 0)"/>
     </g>
    </g>
    <g id="patch_11">
     <path d="M 427.478125 371.937422 
L 449.478125 371.937422 
L 449.478125 364.237422 
L 427.478125 364.237422 
z
" style="fill: #efb792; stroke: #737373; stroke-linejoin: miter"/>
    </g>
    <g id="text_11">
     <!-- Macro F1 -->
     <g style="fill: #262626" transform="translate(458.278125 371.937422) scale(0.11 -0.11)">
      <defs>
       <path id="DejaVuSans-3" transform="scale(0.015625)"/>
       <path id="DejaVuSans-29" d="M 628 4666 
L 3309 4666 
L 3309 4134 
L 1259 4134 
L 1259 2759 
L 3109 2759 
L 3109 2228 
L 1259 2228 
L 1259 0 
L 628 0 
L 628 4666 
z
" transform="scale(0.015625)"/>
      </defs>
      <use xlink:href="#DejaVuSans-30"/>
      <use xlink:href="#DejaVuSans-44" transform="translate(86.28125 0)"/>
      <use xlink:href="#DejaVuSans-46" transform="translate(147.5625 0)"/>
      <use xlink:href="#DejaVuSans-55" transform="translate(202.546875 0)"/>
      <use xlink:href="#DejaVuSans-52" transform="translate(241.453125 0)"/>
      <use xlink:href="#DejaVuSans-3" transform="translate(302.640625 0)"/>
      <use xlink:href="#DejaVuSans-29" transform="translate(334.421875 0)"/>
      <use xlink:href="#DejaVuSans-14" transform="translate(391.9375 0)"/>
     </g>
    </g>
   </g>
  </g>
 </g>
 <defs>
  <clipPath id="pd573183819">
   <rect x="72" y="51.84" width="446.4" height="332.64"/>
  </clipPath>
 </defs>
</svg>
