<?xml version="1.0" encoding="utf-8" standalone="no"?>
<!DOCTYPE svg PUBLIC "-//W3C//DTD SVG 1.1//EN"
  "http://www.w3.org/Graphics/SVG/1.1/DTD/svg11.dtd">
<svg xmlns:xlink="http://www.w3.org/1999/xlink" width="576pt" height="432pt" viewBox="0 0 576 432" xmlns="http://www.w3.org/2000/svg" version="1.1">
 <metadata>
  <rdf:RDF xmlns:dc="http://purl.org/dc/elements/1.1/" xmlns:cc="http://creativecommons.org/ns#" xmlns:rdf="http://www.w3.org/1999/02/22-rdf-syntax-ns#">
   <cc:Work>
    <dc:type rdf:resource="http://purl.org/dc/dcmitype/StillImage"/>
    <dc:date>2026-09-11T11:53:31.386043</dc:date>
    <dc:format>image/svg+xml</dc:format>
    <dc:creator>
     <cc:Agent>
      <dc:title>Matplotlib v3.11.1, https://matplotlib.org/</dc:title>
     </cc:Agent>
    </dc:creator>
   </cc:Work>
  </rdf:RDF>
 </metadata>
 <defs>
  <style type="text/css">*{stroke-linejoin: round; stroke-linecap: butt}</style>
 </defs>
 <g id="figure_1">
  <g id="patch_1">
   <path d="M 0 432 
L 576 432 
L 576 0 
L 0 0 
L 0 432 
z
" style="fill: none"/>
  </g>
  <g id="axes_1">
   <g id="patch_2">
    <path d="M 72 384.48 
L 518.4 384.48 
L 518.4 51.84 
L 72 51.84 
L 72 384.48 
z
" style="fill: none"/>
   </g>
   <g id="matplotlib.axis_1">
    <g id="xtick_1">
     <g id="text_1">
      <!-- LOGO -->
      <g style="fill: #262626" transform="translate(279.410703 402.337422) scale(0.11 -0.11)">
       <defs>
        <path id="DejaVuSans-2f" d="M 628 4666 
L 1259 4666 
L 1259 531 
L 3531 531 
L 3531 0 
L 628 0 
L 628 4666 
z
" transform="scale(0.015625)"/>
        <path id="DejaVuSans-32" d="M 2522 4238 
Q 1834 4238 1429 3725 
Q 1025 3213 1025 2328 
Q 1025 1447 1429 934 
Q 1834 422 2522 422 
Q 3209 422 3611 934 
Q 4013 1447 4013 2328 
Q 4013 3213 3611 3725 
Q 3209 4238 2522 4238 
z
M 2522 4750 
Q 3503 4750 4090 4092 
Q 4678 3434 4678 2328 
Q 4678 1225 4090 567 
Q 3503 -91 2522 -91 
Q 1538 -91 948 565 
Q 359 1222 359 2328 
Q 359 3434 948 4092 
Q 1538 4750 2522 4750 
z
" transform="scale(0.015625)"/>
        <path id="DejaVuSans-2a" d="M 3809 666 
L 3809 1919 
L 2778 1919 
L 2778 2438 
L 4434 2438 
L 4434 434 
Q 4069 175 3628 42 
Q 3188 -91 2688 -91 
Q 1594 -91 976 548 
Q 359 1188 359 2328 
Q 359 3472 976 4111 
Q 1594 4750 2688 4750 
Q 3144 4750 3555 4637 
Q 3966 4525 4313 4306 
L 4313 3634 
Q 3963 3931 3569 4081 
Q 3175 4231 2741 4231 
Q 1884 4231 1454 3753 
Q 1025 3275 1025 2328 
Q 1025 1384 1454 906 
Q 1884 428 2741 428 
Q 3075 428 3337 486 
Q 3600 544 3809 666 
z
" transform="scale(0.015625)"/>
       </defs>
       <use xlink:href="#DejaVuSans-2f"/>
       <use xlink:href="#DejaVuSans-32" transform="translate(52.15625 0)"/>
       <use xlink:href="#DejaVuSans-2a" transform="translate(130.875 0)"/>
       <use xlink:href="#DejaVuSans-32" transform="translate(208.359375 0)"/>
      </g>
     </g>
    </g>
   </g>
   <g id="matplotlib.axis_2">
    <g id="ytick_1">
     <g id="line2d_1">
      <path d="M 72 384.48 
L 518.4 384.48 
" clip-path="url(#p12277f0f7b)" style="fill: none; stroke: #cccccc; stroke-linecap: round"/>
     </g>
     <g id="text_2">
      <!-- 0.0 -->
      <g style="fill: #262626" transform="translate(45.006563 388.658711) scale(0.11 -0.11)">
       <defs>
        <path id="DejaVuSans-13" d="M 2034 4250 
Q 1547 4250 1301 3770 
Q 1056 3291 1056 2328 
Q 1056 1369 1301 889 
Q 1547 409 2034 409 
Q 2525 409 2770 889 
Q 3016 1369 3016 2328 
Q 3016 3291 2770 3770 
Q 2525 4250 2034 4250 
z
M 2034 4750 
Q 2819 4750 3233 4129 
Q 3647 3509 3647 2328 
Q 3647 1150 3233 529 
Q 2819 -91 2034 -91 
Q 1250 -91 836 529 
Q 422 1150 422 2328 
Q 422 3509 836 4129 
Q 1250 4750 2034 4750 
z
" transform="scale(0.015625)"/>
        <path id="DejaVuSans-11" d="M 684 794 
L 1344 794 
L 1344 0 
L 684 0 
L 684 794 
z
" transform="scale(0.015625)"/>
       </defs>
       <use xlink:href="#DejaVuSans-13"/>
       <use xlink:href="#DejaVuSans-11" transform="translate(63.625 0)"/>
       <use xlink:href="#DejaVuSans-13" transform="translate(95.40625 0)"/>
      </g>
     </g>
    </g>
    <g id="ytick_2">
     <g id="line2d_2">
      <path d="M 72 317.952 
L 518.4 317.952 
" clip-path="url(#p12277f0f7b)" style="fill: none; stroke: #cccccc; stroke-linecap: round"/>
     </g>
     <g id="text_3">
      <!-- 0.2 -->
      <g style="fill: #262626" transform="translate(45.006563 322.130711) scale(0.11 -0.11)">
       <defs>
        <path id="DejaVuSans-15" d="M 1228 531 
L 3431 531 
L 3431 0 
L 469 0 
L 469 531 
Q 828 903 1448 1529 
Q 2069 2156 2228 2338 
Q 2531 2678 2651 2914 
Q 2772 3150 2772 3378 
Q 2772 3750 2511 3984 
Q 2250 4219 1831 4219 
Q 1534 4219 1204 4116 
Q 875 4013 500 3803 
L 500 4441 
Q 881 4594 1212 4672 
Q 1544 4750 1819 4750 
Q 2544 4750 2975 4387 
Q 3406 4025 3406 3419 
Q 3406 3131 3298 2873 
Q 3191 2616 2906 2266 
Q 2828 2175 2409 1742 
Q 1991 1309 1228 531 
z
" transform="scale(0.015625)"/>
       </defs>
       <use xlink:href="#DejaVuSans-13"/>
       <use xlink:href="#DejaVuSans-11" transform="translate(63.625 0)"/>
       <use xlink:href="#DejaVuSans-15" transform="translate(95.40625 0)"/>
      </g>
     </g>
    </g>
    <g id="ytick_3">
     <g id="line2d_3">
      <path d="M 72 251.424 
L 518.4 251.424 
" clip-path="url(#p12277f0f7b)" style="fill: none; stroke: #cccccc; stroke-linecap: round"/>
     </g>
     <g id="text_4">
      <!-- 0.4 -->
      <g style="fill: #262626" transform="translate(45.006563 255.602711) scale(0.11 -0.11)">
       <defs>
        <path id="DejaVuSans-17" d="M 2419 4116 
L 825 1625 
L 2419 1625 
L 2419 4116 
z
M 2253 4666 
L 3047 4666 
L 3047 1625 
L 3713 1625 
L 3713 1100 
L 3047 1100 
L 3047 0 
L 2419 0 
L 2419 1100 
L 313 1100 
L 313 1709 
L 2253 4666 
z
" transform="scale(0.015625)"/>
       </defs>
       <use xlink:href="#DejaVuSans-13"/>
       <use xlink:href="#DejaVuSans-11" transform="translate(63.625 0)"/>
       <use xlink:href="#DejaVuSans-17" transform="translate(95.40625 0)"/>
      </g>
     </g>
    </g>
    <g id="ytick_4">
     <g id="line2d_4">
      <path d="M 72 184.896 
L 518.4 184.896 
" clip-path="url(#p12277f0f7b)" style="fill: none; stroke: #cccccc; stroke-linecap: round"/>
     </g>
     <g id="text_5">
      <!-- 0.6 -->
      <g style="fill: #262626" transform="translate(45.006563 189.074711) scale(0.11 -0.11)">
       <defs>
        <path id="DejaVuSans-19" d="M 2113 2584 
Q 1688 2584 1439 2293 
Q 1191 2003 1191 1497 
Q 1191 994 1439 701 
Q 1688 409 2113 409 
Q 2538 409 2786 701 
Q 3034 994 3034 1497 
Q 3034 2003 2786 2293 
Q 2538 2584 2113 2584 
z
M 3366 4563 
L 3366 3988 
Q 3128 4100 2886 4159 
Q 2644 4219 2406 4219 
Q 1781 4219 1451 3797 
Q 1122 3375 1075 2522 
Q 1259 2794 1537 2939 
Q 1816 3084 2150 3084 
Q 2853 3084 3261 2657 
Q 3669 2231 3669 1497 
Q 3669 778 3244 343 
Q 2819 -91 2113 -91 
Q 1303 -91 875 529 
Q 447 1150 447 2328 
Q 447 3434 972 4092 
Q 1497 4750 2381 4750 
Q 2619 4750 2861 4703 
Q 3103 4656 3366 4563 
z
" transform="scale(0.015625)"/>
       </defs>
       <use xlink:href="#DejaVuSans-13"/>
       <use xlink:href="#DejaVuSans-11" transform="translate(63.625 0)"/>
       <use xlink:href="#DejaVuSans-19" transform="translate(95.40625 0)"/>
      </g>
     </g>
    </g>
    <g id="ytick_5">
     <g id="line2d_5">
      <path d="M 72 118.368 
L 518.4 118.368 
" clip-path="url(#p12277f0f7b)" style="fill: none; stroke: #cccccc; stroke-linecap: round"/>
     </g>
     <g id="text_6">
      <!-- 0.8 -->
      <g style="fill: #262626" transform="translate(45.006563 122.546711) scale(0.11 -0.11)">
       <defs>
        <path id="DejaVuSans-1b" d="M 2034 2216 
Q 1584 2216 1326 1975 
Q 1069 1734 1069 1313 
Q 1069 891 1326 650 
Q 1584 409 2034 409 
Q 2484 409 2743 651 
Q 3003 894 3003 1313 
Q 3003 1734 2745 1975 
Q 2488 2216 2034 2216 
z
M 1403 2484 
Q 997 2584 770 2862 
Q 544 3141 544 3541 
Q 544 4100 942 4425 
Q 1341 4750 2034 4750 
Q 2731 4750 3128 4425 
Q 3525 4100 3525 3541 
Q 3525 3141 3298 2862 
Q 3072 2584 2669 2484 
Q 3125 2378 3379 2068 
Q 3634 1759 3634 1313 
Q 3634 634 3220 271 
Q 2806 -91 2034 -91 
Q 1263 -91 848 271 
Q 434 634 434 1313 
Q 434 1759 690 2068 
Q 947 2378 1403 2484 
z
M 1172 3481 
Q 1172 3119 1398 2916 
Q 1625 2713 2034 2713 
Q 2441 2713 2670 2916 
Q 2900 3119 2900 3481 
Q 2900 3844 2670 4047 
Q 2441 4250 2034 4250 
Q 1625 4250 1398 4047 
Q 1172 3844 1172 3481 
z
" transform="scale(0.015625)"/>
       </defs>
       <use xlink:href="#DejaVuSans-13"/>
       <use xlink:href="#DejaVuSans-11" transform="translate(63.625 0)"/>
       <use xlink:href="#DejaVuSans-1b" transform="translate(95.40625 0)"/>
      </g>
     </g>
    </g>
    <g id="ytick_6">
     <g id="line2d_6">
      <path d="M 72 51.84 
L 518.4 51.84 
" clip-path="url(#p12277f0f7b)" style="fill: none; stroke: #cccccc; stroke-linecap: round"/>
     </g>
     <g id="text_7">
      <!-- 1.0 -->
      <g style="fill: #262626" transform="translate(45.006563 56.018711) scale(0.11 -0.11)">
       <defs>
        <path id="DejaVuSans-14" d="M 794 531 
L 1825 531 
L 1825 4091 
L 703 3866 
L 703 4441 
L 1819 4666 
L 2450 4666 
L 2450 531 
L 3481 531 
L 3481 0 
L 794 0 
L 794 531 
z
" transform="scale(0.015625)"/>
       </defs>
       <use xlink:href="#DejaVuSans-14"/>
       <use xlink:href="#DejaVuSans-11" transform="translate(63.625 0)"/>
       <use xlink:href="#DejaVuSans-13" transform="translate(95.40625 0)"/>
      </g>
     </g>
    </g>
    <g id="text_8">
     <!-- Score -->
     <g style="fill: #262626" transform="translate(38.12375 234.965625) rotate(-90) scale(0.12 -0.12)">
      <defs>
       <path id="DejaVuSans-36" d="M 3425 4513 
L 3425 3897 
Q 3066 4069 2747 4153 
Q 2428 4238 2131 4238 
Q 1616 4238 1336 4038 
Q 1056 3838 1056 3469 
Q 1056 3159 1242 3001 
Q 1428 2844 1947 2747 
L 2328 2669 
Q 3034 2534 3370 2195 
Q 3706 1856 3706 1288 
Q 3706 609 3251 259 
Q 2797 -91 1919 -91 
Q 1588 -91 1214 -16 
Q 841 59 441 206 
L 441 856 
Q 825 641 1194 531 
Q 1563 422 1919 422 
Q 2459 422 2753 634 
Q 3047 847 3047 1241 
Q 3047 1584 2836 1778 
Q 2625 1972 2144 2069 
L 1759 2144 
Q 1053 2284 737 2584 
Q 422 2884 422 3419 
Q 422 4038 858 4394 
Q 1294 4750 2059 4750 
Q 2388 4750 2728 4690 
Q 3069 4631 3425 4513 
z
" transform="scale(0.015625)"/>
       <path id="DejaVuSans-46" d="M 3122 3366 
L 3122 2828 
Q 2878 2963 2633 3030 
Q 2388 3097 2138 3097 
Q 1578 3097 1268 2742 
Q 959 2388 959 1747 
Q 959 1106 1268 751 
Q 1578 397 2138 397 
Q 2388 397 2633 464 
Q 2878 531 3122 666 
L 3122 134 
Q 2881 22 2623 -34 
Q 2366 -91 2075 -91 
Q 1284 -91 818 406 
Q 353 903 353 1747 
Q 353 2603 823 3093 
Q 1294 3584 2113 3584 
Q 2378 3584 2631 3529 
Q 2884 3475 3122 3366 
z
" transform="scale(0.015625)"/>
       <path id="DejaVuSans-52" d="M 1959 3097 
Q 1497 3097 1228 2736 
Q 959 2375 959 1747 
Q 959 1119 1226 758 
Q 1494 397 1959 397 
Q 2419 397 2687 759 
Q 2956 1122 2956 1747 
Q 2956 2369 2687 2733 
Q 2419 3097 1959 3097 
z
M 1959 3584 
Q 2709 3584 3137 3096 
Q 3566 2609 3566 1747 
Q 3566 888 3137 398 
Q 2709 -91 1959 -91 
Q 1206 -91 779 398 
Q 353 888 353 1747 
Q 353 2609 779 3096 
Q 1206 3584 1959 3584 
z
" transform="scale(0.015625)"/>
       <path id="DejaVuSans-55" d="M 2631 2963 
Q 2534 3019 2420 3045 
Q 2306 3072 2169 3072 
Q 1681 3072 1420 2755 
Q 1159 2438 1159 1844 
L 1159 0 
L 581 0 
L 581 3500 
L 1159 3500 
L 1159 2956 
Q 1341 3275 1631 3429 
Q 1922 3584 2338 3584 
Q 2397 3584 2469 3576 
Q 2541 3569 2628 3553 
L 2631 2963 
z
" transform="scale(0.015625)"/>
       <path id="DejaVuSans-48" d="M 3597 1894 
L 3597 1613 
L 953 1613 
Q 991 1019 1311 708 
Q 1631 397 2203 397 
Q 2534 397 2845 478 
Q 3156 559 3463 722 
L 3463 178 
Q 3153 47 2828 -22 
Q 2503 -91 2169 -91 
Q 1331 -91 842 396 
Q 353 884 353 1716 
Q 353 2575 817 3079 
Q 1281 3584 2069 3584 
Q 2775 3584 3186 3129 
Q 3597 2675 3597 1894 
z
M 3022 2063 
Q 3016 2534 2758 2815 
Q 2500 3097 2075 3097 
Q 1594 3097 1305 2825 
Q 1016 2553 972 2059 
L 3022 2063 
z
" transform="scale(0.015625)"/>
      </defs>
      <use xlink:href="#DejaVuSans-36"/>
      <use xlink:href="#DejaVuSans-46" transform="translate(63.484375 0)"/>
      <use xlink:href="#DejaVuSans-52" transform="translate(118.46875 0)"/>
      <use xlink:href="#DejaVuSans-55" transform="translate(179.65625 0)"/>
      <use xlink:href="#DejaVuSans-48" transform="translate(218.5625 0)"/>
     </g>
    </g>
   </g>
   <g id="FillBetweenPolyCollection_1">
    <defs>
     <path id="mf0467a27da" d="M 290.736 -140.6592 
L 189.838074 -140.6592 
L 184.979171 -142.467491 
L 180.152733 -144.275782 
L 175.379084 -146.084073 
L 170.678914 -147.892364 
L 166.073201 -149.700655 
L 161.583118 -151.508945 
L 157.229939 -153.317236 
L 153.034907 -155.125527 
L 149.019098 -156.933818 
L 145.203251 -158.742109 
L 141.607581 -160.5504 
L 138.251557 -162.358691 
L 135.153667 -164.166982 
L 132.331157 -165.975273 
L 129.799754 -167.783564 
L 127.573386 -169.591855 
L 125.66389 -171.400145 
L 124.080733 -173.208436 
L 122.830754 -175.016727 
L 121.917916 -176.825018 
L 121.343112 -178.633309 
L 121.104 -180.4416 
L 121.194902 -182.249891 
L 121.606756 -184.058182 
L 122.327133 -185.866473 
L 123.34033 -187.674764 
L 124.627526 -189.483055 
L 126.167008 -191.291345 
L 127.934467 -193.099636 
L 129.903353 -194.907927 
L 132.04528 -196.716218 
L 134.330481 -198.524509 
L 136.728296 -200.3328 
L 139.207678 -202.141091 
L 141.737716 -203.949382 
L 144.288153 -205.757673 
L 146.829889 -207.565964 
L 149.335462 -209.374255 
L 151.779491 -211.182545 
L 154.139073 -212.990836 
L 156.394128 -214.799127 
L 158.527687 -216.607418 
L 160.526111 -218.415709 
L 162.379246 -220.224 
L 164.080514 -222.032291 
L 165.626928 -223.840582 
L 167.019047 -225.648873 
L 168.260868 -227.457164 
L 169.359659 -229.265455 
L 170.325734 -231.073745 
L 171.172187 -232.882036 
L 171.914578 -234.690327 
L 172.570584 -236.498618 
L 173.159625 -238.306909 
L 173.702462 -240.1152 
L 174.220781 -241.923491 
L 174.736771 -243.731782 
L 175.272699 -245.540073 
L 175.850483 -247.348364 
L 176.491286 -249.156655 
L 177.215126 -250.964945 
L 178.040505 -252.773236 
L 178.984071 -254.581527 
L 180.060326 -256.389818 
L 181.281361 -258.198109 
L 182.656651 -260.0064 
L 184.192894 -261.814691 
L 185.893913 -263.622982 
L 187.760609 -265.431273 
L 189.790979 -267.239564 
L 191.980185 -269.047855 
L 194.320694 -270.856145 
L 196.802463 -272.664436 
L 199.413178 -274.472727 
L 202.138542 -276.281018 
L 204.962597 -278.089309 
L 207.868081 -279.8976 
L 210.836801 -281.705891 
L 213.850026 -283.514182 
L 216.888876 -285.322473 
L 219.934702 -287.130764 
L 222.969451 -288.939055 
L 225.976007 -290.747345 
L 228.938481 -292.555636 
L 231.84248 -294.363927 
L 234.675308 -296.172218 
L 237.426122 -297.980509 
L 240.086035 -299.7888 
L 242.64816 -301.597091 
L 245.107597 -303.405382 
L 247.461372 -305.213673 
L 249.708333 -307.021964 
L 251.848992 -308.830255 
L 253.885349 -310.638545 
L 255.820678 -312.446836 
L 257.659298 -314.255127 
L 259.406338 -316.063418 
L 261.067496 -317.871709 
L 262.648807 -319.68 
L 290.736 -319.68 
L 290.736 -319.68 
L 290.736 -317.871709 
L 290.736 -316.063418 
L 290.736 -314.255127 
L 290.736 -312.446836 
L 290.736 -310.638545 
L 290.736 -308.830255 
L 290.736 -307.021964 
L 290.736 -305.213673 
L 290.736 -303.405382 
L 290.736 -301.597091 
L 290.736 -299.7888 
L 290.736 -297.980509 
L 290.736 -296.172218 
L 290.736 -294.363927 
L 290.736 -292.555636 
L 290.736 -290.747345 
L 290.736 -288.939055 
L 290.736 -287.130764 
L 290.736 -285.322473 
L 290.736 -283.514182 
L 290.736 -281.705891 
L 290.736 -279.8976 
L 290.736 -278.089309 
L 290.736 -276.281018 
L 290.736 -274.472727 
L 290.736 -272.664436 
L 290.736 -270.856145 
L 290.736 -269.047855 
L 290.736 -267.239564 
L 290.736 -265.431273 
L 290.736 -263.622982 
L 290.736 -261.814691 
L 290.736 -260.0064 
L 290.736 -258.198109 
L 290.736 -256.389818 
L 290.736 -254.581527 
L 290.736 -252.773236 
L 290.736 -250.964945 
L 290.736 -249.156655 
L 290.736 -247.348364 
L 290.736 -245.540073 
L 290.736 -243.731782 
L 290.736 -241.923491 
L 290.736 -240.1152 
L 290.736 -238.306909 
L 290.736 -236.498618 
L 290.736 -234.690327 
L 290.736 -232.882036 
L 290.736 -231.073745 
L 290.736 -229.265455 
L 290.736 -227.457164 
L 290.736 -225.648873 
L 290.736 -223.840582 
L 290.736 -222.032291 
L 290.736 -220.224 
L 290.736 -218.415709 
L 290.736 -216.607418 
L 290.736 -214.799127 
L 290.736 -212.990836 
L 290.736 -211.182545 
L 290.736 -209.374255 
L 290.736 -207.565964 
L 290.736 -205.757673 
L 290.736 -203.949382 
L 290.736 -202.141091 
L 290.736 -200.3328 
L 290.736 -198.524509 
L 290.736 -196.716218 
L 290.736 -194.907927 
L 290.736 -193.099636 
L 290.736 -191.291345 
L 290.736 -189.483055 
L 290.736 -187.674764 
L 290.736 -185.866473 
L 290.736 -184.058182 
L 290.736 -182.249891 
L 290.736 -180.4416 
L 290.736 -178.633309 
L 290.736 -176.825018 
L 290.736 -175.016727 
L 290.736 -173.208436 
L 290.736 -171.400145 
L 290.736 -169.591855 
L 290.736 -167.783564 
L 290.736 -165.975273 
L 290.736 -164.166982 
L 290.736 -162.358691 
L 290.736 -160.5504 
L 290.736 -158.742109 
L 290.736 -156.933818 
L 290.736 -155.125527 
L 290.736 -153.317236 
L 290.736 -151.508945 
L 290.736 -149.700655 
L 290.736 -147.892364 
L 290.736 -146.084073 
L 290.736 -144.275782 
L 290.736 -142.467491 
L 290.736 -140.6592 
z
" style="stroke: #737373"/>
    </defs>
    <g clip-path="url(#p12277f0f7b)">
     <use xlink:href="#mf0467a27da" x="0" y="432" style="fill: #abc9ea; stroke: #737373"/>
    </g>
   </g>
   <g id="FillBetweenPolyCollection_2">
    <defs>
     <path id="m571d59a8a6" d="M 388.99076 -109.68 
L 299.664 -109.68 
L 299.664 -111.691704 
L 299.664 -113.703408 
L 299.664 -115.715111 
L 299.664 -117.726815 
L 299.664 -119.738519 
L 299.664 -121.750223 
L 299.664 -123.761927 
L 299.664 -125.773631 
L 299.664 -127.785334 
L 299.664 -129.797038 
L 299.664 -131.808742 
L 299.664 -133.820446 
L 299.664 -135.83215 
L 299.664 -137.843853 
L 299.664 -139.855557 
L 299.664 -141.867261 
L 299.664 -143.878965 
L 299.664 -145.890669 
L 299.664 -147.902373 
L 299.664 -149.914076 
L 299.664 -151.92578 
L 299.664 -153.937484 
L 299.664 -155.949188 
L 299.664 -157.960892 
L 299.664 -159.972596 
L 299.664 -161.984299 
L 299.664 -163.996003 
L 299.664 -166.007707 
L 299.664 -168.019411 
L 299.664 -170.031115 
L 299.664 -172.042818 
L 299.664 -174.054522 
L 299.664 -176.066226 
L 299.664 -178.07793 
L 299.664 -180.089634 
L 299.664 -182.101338 
L 299.664 -184.113041 
L 299.664 -186.124745 
L 299.664 -188.136449 
L 299.664 -190.148153 
L 299.664 -192.159857 
L 299.664 -194.17156 
L 299.664 -196.183264 
L 299.664 -198.194968 
L 299.664 -200.206672 
L 299.664 -202.218376 
L 299.664 -204.23008 
L 299.664 -206.241783 
L 299.664 -208.253487 
L 299.664 -210.265191 
L 299.664 -212.276895 
L 299.664 -214.288599 
L 299.664 -216.300303 
L 299.664 -218.312006 
L 299.664 -220.32371 
L 299.664 -222.335414 
L 299.664 -224.347118 
L 299.664 -226.358822 
L 299.664 -228.370525 
L 299.664 -230.382229 
L 299.664 -232.393933 
L 299.664 -234.405637 
L 299.664 -236.417341 
L 299.664 -238.429045 
L 299.664 -240.440748 
L 299.664 -242.452452 
L 299.664 -244.464156 
L 299.664 -246.47586 
L 299.664 -248.487564 
L 299.664 -250.499267 
L 299.664 -252.510971 
L 299.664 -254.522675 
L 299.664 -256.534379 
L 299.664 -258.546083 
L 299.664 -260.557787 
L 299.664 -262.56949 
L 299.664 -264.581194 
L 299.664 -266.592898 
L 299.664 -268.604602 
L 299.664 -270.616306 
L 299.664 -272.628009 
L 299.664 -274.639713 
L 299.664 -276.651417 
L 299.664 -278.663121 
L 299.664 -280.674825 
L 299.664 -282.686529 
L 299.664 -284.698232 
L 299.664 -286.709936 
L 299.664 -288.72164 
L 299.664 -290.733344 
L 299.664 -292.745048 
L 299.664 -294.756752 
L 299.664 -296.768455 
L 299.664 -298.780159 
L 299.664 -300.791863 
L 299.664 -302.803567 
L 299.664 -304.815271 
L 299.664 -306.826974 
L 299.664 -308.838678 
L 343.75832 -308.838678 
L 343.75832 -308.838678 
L 346.549276 -306.826974 
L 349.440962 -304.815271 
L 352.43018 -302.803567 
L 355.512533 -300.791863 
L 358.682312 -298.780159 
L 361.932414 -296.768455 
L 365.25428 -294.756752 
L 368.637866 -292.745048 
L 372.071651 -290.733344 
L 375.542684 -288.72164 
L 379.036672 -286.709936 
L 382.538117 -284.698232 
L 386.030483 -282.686529 
L 389.496418 -280.674825 
L 392.918004 -278.663121 
L 396.277039 -276.651417 
L 399.555352 -274.639713 
L 402.735129 -272.628009 
L 405.799253 -270.616306 
L 408.731644 -268.604602 
L 411.517594 -266.592898 
L 414.144079 -264.581194 
L 416.600051 -262.56949 
L 418.87669 -260.557787 
L 420.96762 -258.546083 
L 422.869068 -256.534379 
L 424.579979 -254.522675 
L 426.102068 -252.510971 
L 427.439816 -250.499267 
L 428.600406 -248.487564 
L 429.593603 -246.47586 
L 430.431577 -244.464156 
L 431.128679 -242.452452 
L 431.701172 -240.440748 
L 432.166923 -238.429045 
L 432.54506 -236.417341 
L 432.85562 -234.405637 
L 433.119164 -232.393933 
L 433.3564 -230.382229 
L 433.587803 -228.370525 
L 433.833238 -226.358822 
L 434.111613 -224.347118 
L 434.44054 -222.335414 
L 434.836037 -220.32371 
L 435.312255 -218.312006 
L 435.881246 -216.300303 
L 436.552773 -214.288599 
L 437.334158 -212.276895 
L 438.23018 -210.265191 
L 439.243013 -208.253487 
L 440.372209 -206.241783 
L 441.614723 -204.23008 
L 442.964984 -202.218376 
L 444.414992 -200.206672 
L 445.954467 -198.194968 
L 447.57101 -196.183264 
L 449.250312 -194.17156 
L 450.976363 -192.159857 
L 452.731698 -190.148153 
L 454.497646 -188.136449 
L 456.254589 -186.124745 
L 457.982222 -184.113041 
L 459.659819 -182.101338 
L 461.266485 -180.089634 
L 462.781403 -178.07793 
L 464.184069 -176.066226 
L 465.45451 -174.054522 
L 466.573488 -172.042818 
L 467.522681 -170.031115 
L 468.284851 -168.019411 
L 468.843987 -166.007707 
L 469.185433 -163.996003 
L 469.296 -161.984299 
L 469.164058 -159.972596 
L 468.779614 -157.960892 
L 468.134379 -155.949188 
L 467.22182 -153.937484 
L 466.037207 -151.92578 
L 464.577639 -149.914076 
L 462.842076 -147.902373 
L 460.831349 -145.890669 
L 458.548173 -143.878965 
L 455.997134 -141.867261 
L 453.184685 -139.855557 
L 450.119115 -137.843853 
L 446.810511 -135.83215 
L 443.270702 -133.820446 
L 439.513192 -131.808742 
L 435.553068 -129.797038 
L 431.406896 -127.785334 
L 427.092592 -125.773631 
L 422.62928 -123.761927 
L 418.037126 -121.750223 
L 413.337159 -119.738519 
L 408.551071 -117.726815 
L 403.701015 -115.715111 
L 398.809379 -113.703408 
L 393.898565 -111.691704 
L 388.99076 -109.68 
z
" style="stroke: #737373"/>
    </defs>
    <g clip-path="url(#p12277f0f7b)">
     <use xlink:href="#m571d59a8a6" x="0" y="432" style="fill: #efb792; stroke: #737373"/>
    </g>
   </g>
   <g id="patch_3">
    <path d="M 295.2 384.48 
L 295.2 384.48 
L 295.2 384.48 
L 295.2 384.48 
z
" clip-path="url(#p12277f0f7b)" style="fill: #abc9ea; stroke: #737373; stroke-linejoin: miter"/>
   </g>
   <g id="patch_4">
    <path d="M 295.2 384.48 
L 295.2 384.48 
L 295.2 384.48 
L 295.2 384.48 
z
" clip-path="url(#p12277f0f7b)" style="fill: #efb792; stroke: #737373; stroke-linejoin: miter"/>
   </g>
   <g id="line2d_7">
    <path d="M 288.486 291.3408 
L 288.486 112.32 
" clip-path="url(#p12277f0f7b)" style="fill: none; stroke: #737373; stroke-width: 1.5; stroke-linecap: round"/>
   </g>
   <g id="line2d_8">
    <path d="M 288.486 257.5224 
L 288.486 184.896 
" clip-path="url(#p12277f0f7b)" style="fill: none; stroke: #737373; stroke-width: 4.5; stroke-linecap: round"/>
   </g>
   <g id="line2d_9">
    <path d="M 288.486 239.2272 
" clip-path="url(#p12277f0f7b)" style="fill: none; stroke: #737373; stroke-width: 1.5; stroke-linecap: round"/>
    <defs>
     <path id="mdc0449c429" d="M 1.875 0 
L -1.875 -0 
" style="stroke: #ffffff; stroke-width: 0.9"/>
    </defs>
    <g clip-path="url(#p12277f0f7b)">
     <use xlink:href="#mdc0449c429" x="288.486" y="239.2272" style="fill: #ffffff; stroke: #ffffff; stroke-width: 0.9"/>
    </g>
   </g>
   <g id="line2d_10">
    <path d="M 301.914 322.32 
L 301.914 123.161322 
" clip-path="url(#p12277f0f7b)" style="fill: none; stroke: #737373; stroke-width: 1.5; stroke-linecap: round"/>
   </g>
   <g id="line2d_11">
    <path d="M 301.914 284.667131 
L 301.914 185.406607 
" clip-path="url(#p12277f0f7b)" style="fill: none; stroke: #737373; stroke-width: 4.5; stroke-linecap: round"/>
   </g>
   <g id="line2d_12">
    <path d="M 301.914 247.580591 
" clip-path="url(#p12277f0f7b)" style="fill: none; stroke: #737373; stroke-width: 1.5; stroke-linecap: round"/>
    <g clip-path="url(#p12277f0f7b)">
     <use xlink:href="#mdc0449c429" x="301.914" y="247.580591" style="fill: #ffffff; stroke: #ffffff; stroke-width: 0.9"/>
    </g>
   </g>
   <g id="patch_5">
    <path d="M 72 384.48 
L 72 51.84 
" style="fill: none; stroke: #cccccc; stroke-width: 1.25; stroke-linejoin: miter; stroke-linecap: square"/>
   </g>
   <g id="patch_6">
    <path d="M 518.4 384.48 
L 518.4 51.84 
" style="fill: none; stroke: #cccccc; stroke-width: 1.25; stroke-linejoin: miter; stroke-linecap: square"/>
   </g>
   <g id="patch_7">
    <path d="M 72 384.48 
L 518.4 384.48 
" style="fill: none; stroke: #cccccc; stroke-width: 1.25; stroke-linejoin: miter; stroke-linecap: square"/>
   </g>
   <g id="patch_8">
    <path d="M 72 51.84 
L 518.4 51.84 
" style="fill: none; stroke: #cccccc; stroke-width: 1.25; stroke-linejoin: miter; stroke-linecap: square"/>
   </g>
   <g id="PathCollection_1">
    <defs>
     <path id="C0_0_529c2a0991" d="M 0 2 
C 0.530406 2 1.03916 1.789267 1.414214 1.414214 
C 1.789267 1.03916 2 0.530406 2 -0 
C 2 -0.530406 1.789267 -1.03916 1.414214 -1.414214 
C 1.03916 -1.789267 0.530406 -2 0 -2 
C -0.530406 -2 -1.03916 -1.789267 -1.414214 -1.414214 
C -1.789267 -1.03916 -2 -0.530406 -2 0 
C -2 0.530406 -1.789267 1.03916 -1.414214 1.414214 
C -1.03916 1.789267 -0.530406 2 0 2 
z
"/>
    </defs>
    <g clip-path="url(#p12277f0f7b)">
     <use xlink:href="#C0_0_529c2a0991" x="226.955006" y="184.896" style="fill: #4c72b0"/>
    </g>
    <g clip-path="url(#p12277f0f7b)">
     <use xlink:href="#C0_0_529c2a0991" x="188.862472" y="247.266" style="fill: #4c72b0"/>
    </g>
    <g clip-path="url(#p12277f0f7b)">
     <use xlink:href="#C0_0_529c2a0991" x="220.391805" y="155.133474" style="fill: #4c72b0"/>
    </g>
    <g clip-path="url(#p12277f0f7b)">
     <use xlink:href="#C0_0_529c2a0991" x="186.949792" y="162.72" style="fill: #4c72b0"/>
    </g>
    <g clip-path="url(#p12277f0f7b)">
     <use xlink:href="#C0_0_529c2a0991" x="223.970569" y="207.072" style="fill: #4c72b0"/>
    </g>
    <g clip-path="url(#p12277f0f7b)">
     <use xlink:href="#C0_0_529c2a0991" x="196.295477" y="240.336" style="fill: #4c72b0"/>
    </g>
    <g clip-path="url(#p12277f0f7b)">
     <use xlink:href="#C0_0_529c2a0991" x="217.234776" y="184.896" style="fill: #4c72b0"/>
    </g>
    <g clip-path="url(#p12277f0f7b)">
     <use xlink:href="#C0_0_529c2a0991" x="206.577004" y="203.904" style="fill: #4c72b0"/>
    </g>
    <g clip-path="url(#p12277f0f7b)">
     <use xlink:href="#C0_0_529c2a0991" x="218.542703" y="162.72" style="fill: #4c72b0"/>
    </g>
    <g clip-path="url(#p12277f0f7b)">
     <use xlink:href="#C0_0_529c2a0991" x="221.04036" y="255.8592" style="fill: #4c72b0"/>
    </g>
    <g clip-path="url(#p12277f0f7b)">
     <use xlink:href="#C0_0_529c2a0991" x="184.376314" y="284.688" style="fill: #4c72b0"/>
    </g>
    <g clip-path="url(#p12277f0f7b)">
     <use xlink:href="#C0_0_529c2a0991" x="187.351101" y="112.32" style="fill: #4c72b0"/>
    </g>
    <g clip-path="url(#p12277f0f7b)">
     <use xlink:href="#C0_0_529c2a0991" x="214.624226" y="238.1184" style="fill: #4c72b0"/>
    </g>
    <g clip-path="url(#p12277f0f7b)">
     <use xlink:href="#C0_0_529c2a0991" x="186.753087" y="224.8128" style="fill: #4c72b0"/>
    </g>
    <g clip-path="url(#p12277f0f7b)">
     <use xlink:href="#C0_0_529c2a0991" x="196.406556" y="264.7296" style="fill: #4c72b0"/>
    </g>
    <g clip-path="url(#p12277f0f7b)">
     <use xlink:href="#C0_0_529c2a0991" x="202.924932" y="248.0976" style="fill: #4c72b0"/>
    </g>
    <g clip-path="url(#p12277f0f7b)">
     <use xlink:href="#C0_0_529c2a0991" x="205.453456" y="291.3408" style="fill: #4c72b0"/>
    </g>
    <g clip-path="url(#p12277f0f7b)">
     <use xlink:href="#C0_0_529c2a0991" x="183.605086" y="258.0768" style="fill: #4c72b0"/>
    </g>
    <g clip-path="url(#p12277f0f7b)">
     <use xlink:href="#C0_0_529c2a0991" x="206.974506" y="291.3408" style="fill: #4c72b0"/>
    </g>
    <g clip-path="url(#p12277f0f7b)">
     <use xlink:href="#C0_0_529c2a0991" x="223.911388" y="271.3824" style="fill: #4c72b0"/>
    </g>
    <g clip-path="url(#p12277f0f7b)">
     <use xlink:href="#C0_0_529c2a0991" x="215.955294" y="171.5904" style="fill: #4c72b0"/>
    </g>
    <g clip-path="url(#p12277f0f7b)">
     <use xlink:href="#C0_0_529c2a0991" x="196.805037" y="245.376" style="fill: #4c72b0"/>
    </g>
   </g>
   <g id="PathCollection_2">
    <defs>
     <path id="C1_0_580f737646" d="M 0 2 
C 0.530406 2 1.03916 1.789267 1.414214 1.414214 
C 1.789267 1.03916 2 0.530406 2 -0 
C 2 -0.530406 1.789267 -1.03916 1.414214 -1.414214 
C 1.03916 -1.789267 0.530406 -2 0 -2 
C -0.530406 -2 -1.03916 -1.789267 -1.414214 -1.414214 
C -1.789267 -1.03916 -2 -0.530406 -2 0 
C -2 0.530406 -1.789267 1.03916 -1.414214 1.414214 
C -1.03916 1.789267 -0.530406 2 0 2 
z
"/>
    </defs>
    <g clip-path="url(#p12277f0f7b)">
     <use xlink:href="#C1_0_580f737646" x="370.181066" y="184.611339" style="fill: #dd8452"/>
    </g>
    <g clip-path="url(#p12277f0f7b)">
     <use xlink:href="#C1_0_580f737646" x="391.330596" y="247.363214" style="fill: #dd8452"/>
    </g>
    <g clip-path="url(#p12277f0f7b)">
     <use xlink:href="#C1_0_580f737646" x="381.004793" y="157.66235" style="fill: #dd8452"/>
    </g>
    <g clip-path="url(#p12277f0f7b)">
     <use xlink:href="#C1_0_580f737646" x="375.083035" y="168.6336" style="fill: #dd8452"/>
    </g>
    <g clip-path="url(#p12277f0f7b)">
     <use xlink:href="#C1_0_580f737646" x="404.805528" y="212.489739" style="fill: #dd8452"/>
    </g>
    <g clip-path="url(#p12277f0f7b)">
     <use xlink:href="#C1_0_580f737646" x="383.306622" y="261.576" style="fill: #dd8452"/>
    </g>
    <g clip-path="url(#p12277f0f7b)">
     <use xlink:href="#C1_0_580f737646" x="400.636898" y="186.547569" style="fill: #dd8452"/>
    </g>
    <g clip-path="url(#p12277f0f7b)">
     <use xlink:href="#C1_0_580f737646" x="384.420651" y="214.88298" style="fill: #dd8452"/>
    </g>
    <g clip-path="url(#p12277f0f7b)">
     <use xlink:href="#C1_0_580f737646" x="405.144851" y="168.4224" style="fill: #dd8452"/>
    </g>
    <g clip-path="url(#p12277f0f7b)">
     <use xlink:href="#C1_0_580f737646" x="399.950349" y="269.003891" style="fill: #dd8452"/>
    </g>
    <g clip-path="url(#p12277f0f7b)">
     <use xlink:href="#C1_0_580f737646" x="384.652194" y="298.944" style="fill: #dd8452"/>
    </g>
    <g clip-path="url(#p12277f0f7b)">
     <use xlink:href="#C1_0_580f737646" x="398.283979" y="123.161322" style="fill: #dd8452"/>
    </g>
    <g clip-path="url(#p12277f0f7b)">
     <use xlink:href="#C1_0_580f737646" x="385.268892" y="247.797968" style="fill: #dd8452"/>
    </g>
    <g clip-path="url(#p12277f0f7b)">
     <use xlink:href="#C1_0_580f737646" x="395.982783" y="227.588508" style="fill: #dd8452"/>
    </g>
    <g clip-path="url(#p12277f0f7b)">
     <use xlink:href="#C1_0_580f737646" x="374.257309" y="289.888211" style="fill: #dd8452"/>
    </g>
    <g clip-path="url(#p12277f0f7b)">
     <use xlink:href="#C1_0_580f737646" x="405.241092" y="268.032972" style="fill: #dd8452"/>
    </g>
    <g clip-path="url(#p12277f0f7b)">
     <use xlink:href="#C1_0_580f737646" x="390.977985" y="309.824145" style="fill: #dd8452"/>
    </g>
    <g clip-path="url(#p12277f0f7b)">
     <use xlink:href="#C1_0_580f737646" x="399.603507" y="291.433846" style="fill: #dd8452"/>
    </g>
    <g clip-path="url(#p12277f0f7b)">
     <use xlink:href="#C1_0_580f737646" x="404.053604" y="322.32" style="fill: #dd8452"/>
    </g>
    <g clip-path="url(#p12277f0f7b)">
     <use xlink:href="#C1_0_580f737646" x="379.014122" y="291.816" style="fill: #dd8452"/>
    </g>
    <g clip-path="url(#p12277f0f7b)">
     <use xlink:href="#C1_0_580f737646" x="362.725491" y="185.026286" style="fill: #dd8452"/>
    </g>
    <g clip-path="url(#p12277f0f7b)">
     <use xlink:href="#C1_0_580f737646" x="365.849317" y="259.886753" style="fill: #dd8452"/>
    </g>
   </g>
   <g id="line2d_13"/>
   <g id="line2d_14"/>
   <g id="legend_1">
    <g id="patch_9">
     <path d="M 425.278125 378.98 
L 510.7 378.98 
Q 512.9 378.98 512.9 376.78 
L 512.9 327.377344 
Q 512.9 325.177344 510.7 325.177344 
L 425.278125 325.177344 
Q 423.078125 325.177344 423.078125 327.377344 
L 423.078125 376.78 
Q 423.078125 378.98 425.278125 378.98 
z
" style="fill: #ffffff; opacity: 0.8; stroke: #cccccc; stroke-linejoin: miter"/>
    </g>
    <g id="text_9">
     <!-- Metric -->
     <g style="fill: #262626" transform="translate(449.335625 338.695469) scale(0.12 -0.12)">
      <defs>
       <path id="DejaVuSans-30" d="M 628 4666 
L 1569 4666 
L 2759 1491 
L 3956 4666 
L 4897 4666 
L 4897 0 
L 4281 0 
L 4281 4097 
L 3078 897 
L 2444 897 
L 1241 4097 
L 1241 0 
L 628 0 
L 628 4666 
z
" transform="scale(0.015625)"/>
       <path id="DejaVuSans-57" d="M 1172 4494 
L 1172 3500 
L 2356 3500 
L 2356 3053 
L 1172 3053 
L 1172 1153 
Q 1172 725 1289 603 
Q 1406 481 1766 481 
L 2356 481 
L 2356 0 
L 1766 0 
Q 1100 0 847 248 
Q 594 497 594 1153 
L 594 3053 
L 172 3053 
L 172 3500 
L 594 3500 
L 594 4494 
L 1172 4494 
z
" transform="scale(0.015625)"/>
       <path id="DejaVuSans-4c" d="M 603 3500 
L 1178 3500 
L 1178 0 
L 603 0 
L 603 3500 
z
M 603 4863 
L 1178 4863 
L 1178 4134 
L 603 4134 
L 603 4863 
z
" transform="scale(0.015625)"/>
      </defs>
      <use xlink:href="#DejaVuSans-30"/>
      <use xlink:href="#DejaVuSans-48" transform="translate(86.28125 0)"/>
      <use xlink:href="#DejaVuSans-57" transform="translate(147.8125 0)"/>
      <use xlink:href="#DejaVuSans-55" transform="translate(187.015625 0)"/>
      <use xlink:href="#DejaVuSans-4c" transform="translate(228.125 0)"/>
      <use xlink:href="#DejaVuSans-46" transform="translate(255.90625 0)"/>
     </g>
    </g>
    <g id="patch_10">
     <path d="M 427.478125 355.436563 
L 449.478125 355.436563 
L 449.478125 347.736563 
L 427.478125 347.736563 
z
" style="fill: #abc9ea; stroke: #737373; stroke-linejoin: miter"/>
    </g>
    <g id="text_10">
     <!-- Accuracy -->
     <g style="fill: #262626" transform="translate(458.278125 355.436563) scale(0.11 -0.11)">
      <defs>
       <path id="DejaVuSans-24" d="M 2188 4044 
L 1331 1722 
L 3047 1722 
L 2188 4044 
z
M 1831 4666 
L 2547 4666 
L 4325 0 
L 3669 0 
L 3244 1197 
L 1141 1197 
L 716 0 
L 50 0 
L 1831 4666 
z
" transform="scale(0.015625)"/>
       <path id="DejaVuSans-58" d="M 544 1381 
L 544 3500 
L 1119 3500 
L 1119 1403 
Q 1119 906 1312 657 
Q 1506 409 1894 409 
Q 2359 409 2629 706 
Q 2900 1003 2900 1516 
L 2900 3500 
L 3475 3500 
L 3475 0 
L 2900 0 
L 2900 538 
Q 2691 219 2414 64 
Q 2138 -91 1772 -91 
Q 1169 -91 856 284 
Q 544 659 544 1381 
z
M 1991 3584 
L 1991 3584 
z
" transform="scale(0.015625)"/>
       <path id="DejaVuSans-44" d="M 2194 1759 
Q 1497 1759 1228 1600 
Q 959 1441 959 1056 
Q 959 750 1161 570 
Q 1363 391 1709 391 
Q 2188 391 2477 730 
Q 2766 1069 2766 1631 
L 2766 1759 
L 2194 1759 
z
M 3341 1997 
L 3341 0 
L 2766 0 
L 2766 531 
Q 2569 213 2275 61 
Q 1981 -91 1556 -91 
Q 1019 -91 701 211 
Q 384 513 384 1019 
Q 384 1609 779 1909 
Q 1175 2209 1959 2209 
L 2766 2209 
L 2766 2266 
Q 2766 2663 2505 2880 
Q 2244 3097 1772 3097 
Q 1472 3097 1187 3025 
Q 903 2953 641 2809 
L 641 3341 
Q 956 3463 1253 3523 
Q 1550 3584 1831 3584 
Q 2591 3584 2966 3190 
Q 3341 2797 3341 1997 
z
" transform="scale(0.015625)"/>
       <path id="DejaVuSans-5c" d="M 2059 -325 
Q 1816 -950 1584 -1140 
Q 1353 -1331 966 -1331 
L 506 -1331 
L 506 -850 
L 844 -850 
Q 1081 -850 1212 -737 
Q 1344 -625 1503 -206 
L 1606 56 
L 191 3500 
L 800 3500 
L 1894 763 
L 2988 3500 
L 3597 3500 
L 2059 -325 
z
" transform="scale(0.015625)"/>
      </defs>
      <use xlink:href="#DejaVuSans-24"/>
      <use xlink:href="#DejaVuSans-46" transform="translate(66.65625 0)"/>
      <use xlink:href="#DejaVuSans-46" transform="translate(121.640625 0)"/>
      <use xlink:href="#DejaVuSans-58" transform="translate(176.625 0)"/>
      <use xlink:href="#DejaVuSans-55" transform="translate(240 0)"/>
      <use xlink:href="#DejaVuSans-44" transform="translate(281.109375 0)"/>
      <use xlink:href="#DejaVuSans-46" transform="translate(342.390625 0)"/>
      <use xlink:href="#DejaVuSans-5c" transform="translate(397.375 0)"/>
     </g>
    </g>
    <g id="patch_11">
     <path d="M 427.478125 371.937422 
L 449.478125 371.937422 
L 449.478125 364.237422 
L 427.478125 364.237422 
z
" style="fill: #efb792; stroke: #737373; stroke-linejoin: miter"/>
    </g>
    <g id="text_11">
     <!-- Macro F1 -->
     <g style="fill: #262626" transform="translate(458.278125 371.937422) scale(0.11 -0.11)">
      <defs>
       <path id="DejaVuSans-3" transform="scale(0.015625)"/>
       <path id="DejaVuSans-29" d="M 628 4666 
L 3309 4666 
L 3309 4134 
L 1259 4134 
L 1259 2759 
L 3109 2759 
L 3109 2228 
L 1259 2228 
L 1259 0 
L 628 0 
L 628 4666 
z
" transform="scale(0.015625)"/>
      </defs>
      <use xlink:href="#DejaVuSans-30"/>
      <use xlink:href="#DejaVuSans-44" transform="translate(86.28125 0)"/>
      <use xlink:href="#DejaVuSans-46" transform="translate(147.5625 0)"/>
      <use xlink:href="#DejaVuSans-55" transform="translate(202.546875 0)"/>
      <use xlink:href="#DejaVuSans-52" transform="translate(241.453125 0)"/>
      <use xlink:href="#DejaVuSans-3" transform="translate(302.640625 0)"/>
      <use xlink:href="#DejaVuSans-29" transform="translate(334.421875 0)"/>
      <use xlink:href="#DejaVuSans-14" transform="translate(391.9375 0)"/>
     </g>
    </g>
   </g>
  </g>
 </g>
 <defs>
  <clipPath id="p12277f0f7b">
   <rect x="72" y="51.84" width="446.4" height="332.64"/>
  </clipPath>
 </defs>
</svg>
