<?xml version="1.0" encoding="utf-8" standalone="no"?>
<!DOCTYPE svg PUBLIC "-//W3C//DTD SVG 1.1//EN"
  "http://www.w3.org/Graphics/SVG/1.1/DTD/svg11.dtd">
<svg xmlns:xlink="http://www.w3.org/1999/xlink" width="720pt" height="288pt" viewBox="0 0 720 288" xmlns="http://www.w3.org/2000/svg" version="1.1">
 <metadata>
  <rdf:RDF xmlns:dc="http://purl.org/dc/elements/1.1/" xmlns:cc="http://creativecommons.org/ns#" xmlns:rdf="http://www.w3.org/1999/02/22-rdf-syntax-ns#">
   <cc:Work>
    <dc:type rdf:resource="http://purl.org/dc/dcmitype/StillImage"/>
    <dc:date>2026-05-04T15:17:02.617373</dc:date>
    <dc:format>image/svg+xml</dc:format>
    <dc:creator>
     <cc:Agent>
      <dc:title>Matplotlib v3.10.9, https://matplotlib.org/</dc:title>
     </cc:Agent>
    </dc:creator>
   </cc:Work>
  </rdf:RDF>
 </metadata>
 <defs>
  <style type="text/css">*{stroke-linejoin: round; stroke-linecap: butt}</style>
 </defs>
 <g id="figure_1">
  <g id="patch_1">
   <path d="M 0 288 
L 720 288 
L 720 0 
L 0 0 
z
" style="fill: #ffffff"/>
  </g>
  <g id="axes_1">
   <g id="patch_2">
    <path d="M 52.94 246.04 
L 709.2 246.04 
L 709.2 26.88 
L 52.94 26.88 
z
" style="fill: #ffffff"/>
   </g>
   <g id="matplotlib.axis_1">
    <g id="xtick_1">
     <g id="line2d_1">
      <defs>
       <path id="mc5db3dbaca" d="M 0 0 
L 0 3.5 
" style="stroke: #000000; stroke-width: 0.8"/>
      </defs>
      <g>
       <use xlink:href="#mc5db3dbaca" x="82.77" y="246.04" style="stroke: #000000; stroke-width: 0.8"/>
      </g>
     </g>
     <g id="text_1">
      <!-- 0 -->
      <g transform="translate(79.58875 260.638438) scale(0.1 -0.1)">
       <defs>
        <path id="DejaVuSans-30" d="M 2034 4250 
Q 1547 4250 1301 3770 
Q 1056 3291 1056 2328 
Q 1056 1369 1301 889 
Q 1547 409 2034 409 
Q 2525 409 2770 889 
Q 3016 1369 3016 2328 
Q 3016 3291 2770 3770 
Q 2525 4250 2034 4250 
z
M 2034 4750 
Q 2819 4750 3233 4129 
Q 3647 3509 3647 2328 
Q 3647 1150 3233 529 
Q 2819 -91 2034 -91 
Q 1250 -91 836 529 
Q 422 1150 422 2328 
Q 422 3509 836 4129 
Q 1250 4750 2034 4750 
z
" transform="scale(0.015625)"/>
       </defs>
       <use xlink:href="#DejaVuSans-30"/>
      </g>
     </g>
    </g>
    <g id="xtick_2">
     <g id="line2d_2">
      <g>
       <use xlink:href="#mc5db3dbaca" x="196.624962" y="246.04" style="stroke: #000000; stroke-width: 0.8"/>
      </g>
     </g>
     <g id="text_2">
      <!-- 500 -->
      <g transform="translate(187.081212 260.638438) scale(0.1 -0.1)">
       <defs>
        <path id="DejaVuSans-35" d="M 691 4666 
L 3169 4666 
L 3169 4134 
L 1269 4134 
L 1269 2991 
Q 1406 3038 1543 3061 
Q 1681 3084 1819 3084 
Q 2600 3084 3056 2656 
Q 3513 2228 3513 1497 
Q 3513 744 3044 326 
Q 2575 -91 1722 -91 
Q 1428 -91 1123 -41 
Q 819 9 494 109 
L 494 744 
Q 775 591 1075 516 
Q 1375 441 1709 441 
Q 2250 441 2565 725 
Q 2881 1009 2881 1497 
Q 2881 1984 2565 2268 
Q 2250 2553 1709 2553 
Q 1456 2553 1204 2497 
Q 953 2441 691 2322 
L 691 4666 
z
" transform="scale(0.015625)"/>
       </defs>
       <use xlink:href="#DejaVuSans-35"/>
       <use xlink:href="#DejaVuSans-30" transform="translate(63.623047 0)"/>
       <use xlink:href="#DejaVuSans-30" transform="translate(127.246094 0)"/>
      </g>
     </g>
    </g>
    <g id="xtick_3">
     <g id="line2d_3">
      <g>
       <use xlink:href="#mc5db3dbaca" x="310.479924" y="246.04" style="stroke: #000000; stroke-width: 0.8"/>
      </g>
     </g>
     <g id="text_3">
      <!-- 1000 -->
      <g transform="translate(297.754924 260.638438) scale(0.1 -0.1)">
       <defs>
        <path id="DejaVuSans-31" d="M 794 531 
L 1825 531 
L 1825 4091 
L 703 3866 
L 703 4441 
L 1819 4666 
L 2450 4666 
L 2450 531 
L 3481 531 
L 3481 0 
L 794 0 
L 794 531 
z
" transform="scale(0.015625)"/>
       </defs>
       <use xlink:href="#DejaVuSans-31"/>
       <use xlink:href="#DejaVuSans-30" transform="translate(63.623047 0)"/>
       <use xlink:href="#DejaVuSans-30" transform="translate(127.246094 0)"/>
       <use xlink:href="#DejaVuSans-30" transform="translate(190.869141 0)"/>
      </g>
     </g>
    </g>
    <g id="xtick_4">
     <g id="line2d_4">
      <g>
       <use xlink:href="#mc5db3dbaca" x="424.334885" y="246.04" style="stroke: #000000; stroke-width: 0.8"/>
      </g>
     </g>
     <g id="text_4">
      <!-- 1500 -->
      <g transform="translate(411.609885 260.638438) scale(0.1 -0.1)">
       <use xlink:href="#DejaVuSans-31"/>
       <use xlink:href="#DejaVuSans-35" transform="translate(63.623047 0)"/>
       <use xlink:href="#DejaVuSans-30" transform="translate(127.246094 0)"/>
       <use xlink:href="#DejaVuSans-30" transform="translate(190.869141 0)"/>
      </g>
     </g>
    </g>
    <g id="xtick_5">
     <g id="line2d_5">
      <g>
       <use xlink:href="#mc5db3dbaca" x="538.189847" y="246.04" style="stroke: #000000; stroke-width: 0.8"/>
      </g>
     </g>
     <g id="text_5">
      <!-- 2000 -->
      <g transform="translate(525.464847 260.638438) scale(0.1 -0.1)">
       <defs>
        <path id="DejaVuSans-32" d="M 1228 531 
L 3431 531 
L 3431 0 
L 469 0 
L 469 531 
Q 828 903 1448 1529 
Q 2069 2156 2228 2338 
Q 2531 2678 2651 2914 
Q 2772 3150 2772 3378 
Q 2772 3750 2511 3984 
Q 2250 4219 1831 4219 
Q 1534 4219 1204 4116 
Q 875 4013 500 3803 
L 500 4441 
Q 881 4594 1212 4672 
Q 1544 4750 1819 4750 
Q 2544 4750 2975 4387 
Q 3406 4025 3406 3419 
Q 3406 3131 3298 2873 
Q 3191 2616 2906 2266 
Q 2828 2175 2409 1742 
Q 1991 1309 1228 531 
z
" transform="scale(0.015625)"/>
       </defs>
       <use xlink:href="#DejaVuSans-32"/>
       <use xlink:href="#DejaVuSans-30" transform="translate(63.623047 0)"/>
       <use xlink:href="#DejaVuSans-30" transform="translate(127.246094 0)"/>
       <use xlink:href="#DejaVuSans-30" transform="translate(190.869141 0)"/>
      </g>
     </g>
    </g>
    <g id="xtick_6">
     <g id="line2d_6">
      <g>
       <use xlink:href="#mc5db3dbaca" x="652.044809" y="246.04" style="stroke: #000000; stroke-width: 0.8"/>
      </g>
     </g>
     <g id="text_6">
      <!-- 2500 -->
      <g transform="translate(639.319809 260.638438) scale(0.1 -0.1)">
       <use xlink:href="#DejaVuSans-32"/>
       <use xlink:href="#DejaVuSans-35" transform="translate(63.623047 0)"/>
       <use xlink:href="#DejaVuSans-30" transform="translate(127.246094 0)"/>
       <use xlink:href="#DejaVuSans-30" transform="translate(190.869141 0)"/>
      </g>
     </g>
    </g>
    <g id="text_7">
     <!-- Samples -->
     <g transform="translate(359.716875 274.316562) scale(0.1 -0.1)">
      <defs>
       <path id="DejaVuSans-53" d="M 3425 4513 
L 3425 3897 
Q 3066 4069 2747 4153 
Q 2428 4238 2131 4238 
Q 1616 4238 1336 4038 
Q 1056 3838 1056 3469 
Q 1056 3159 1242 3001 
Q 1428 2844 1947 2747 
L 2328 2669 
Q 3034 2534 3370 2195 
Q 3706 1856 3706 1288 
Q 3706 609 3251 259 
Q 2797 -91 1919 -91 
Q 1588 -91 1214 -16 
Q 841 59 441 206 
L 441 856 
Q 825 641 1194 531 
Q 1563 422 1919 422 
Q 2459 422 2753 634 
Q 3047 847 3047 1241 
Q 3047 1584 2836 1778 
Q 2625 1972 2144 2069 
L 1759 2144 
Q 1053 2284 737 2584 
Q 422 2884 422 3419 
Q 422 4038 858 4394 
Q 1294 4750 2059 4750 
Q 2388 4750 2728 4690 
Q 3069 4631 3425 4513 
z
" transform="scale(0.015625)"/>
       <path id="DejaVuSans-61" d="M 2194 1759 
Q 1497 1759 1228 1600 
Q 959 1441 959 1056 
Q 959 750 1161 570 
Q 1363 391 1709 391 
Q 2188 391 2477 730 
Q 2766 1069 2766 1631 
L 2766 1759 
L 2194 1759 
z
M 3341 1997 
L 3341 0 
L 2766 0 
L 2766 531 
Q 2569 213 2275 61 
Q 1981 -91 1556 -91 
Q 1019 -91 701 211 
Q 384 513 384 1019 
Q 384 1609 779 1909 
Q 1175 2209 1959 2209 
L 2766 2209 
L 2766 2266 
Q 2766 2663 2505 2880 
Q 2244 3097 1772 3097 
Q 1472 3097 1187 3025 
Q 903 2953 641 2809 
L 641 3341 
Q 956 3463 1253 3523 
Q 1550 3584 1831 3584 
Q 2591 3584 2966 3190 
Q 3341 2797 3341 1997 
z
" transform="scale(0.015625)"/>
       <path id="DejaVuSans-6d" d="M 3328 2828 
Q 3544 3216 3844 3400 
Q 4144 3584 4550 3584 
Q 5097 3584 5394 3201 
Q 5691 2819 5691 2113 
L 5691 0 
L 5113 0 
L 5113 2094 
Q 5113 2597 4934 2840 
Q 4756 3084 4391 3084 
Q 3944 3084 3684 2787 
Q 3425 2491 3425 1978 
L 3425 0 
L 2847 0 
L 2847 2094 
Q 2847 2600 2669 2842 
Q 2491 3084 2119 3084 
Q 1678 3084 1418 2786 
Q 1159 2488 1159 1978 
L 1159 0 
L 581 0 
L 581 3500 
L 1159 3500 
L 1159 2956 
Q 1356 3278 1631 3431 
Q 1906 3584 2284 3584 
Q 2666 3584 2933 3390 
Q 3200 3197 3328 2828 
z
" transform="scale(0.015625)"/>
       <path id="DejaVuSans-70" d="M 1159 525 
L 1159 -1331 
L 581 -1331 
L 581 3500 
L 1159 3500 
L 1159 2969 
Q 1341 3281 1617 3432 
Q 1894 3584 2278 3584 
Q 2916 3584 3314 3078 
Q 3713 2572 3713 1747 
Q 3713 922 3314 415 
Q 2916 -91 2278 -91 
Q 1894 -91 1617 61 
Q 1341 213 1159 525 
z
M 3116 1747 
Q 3116 2381 2855 2742 
Q 2594 3103 2138 3103 
Q 1681 3103 1420 2742 
Q 1159 2381 1159 1747 
Q 1159 1113 1420 752 
Q 1681 391 2138 391 
Q 2594 391 2855 752 
Q 3116 1113 3116 1747 
z
" transform="scale(0.015625)"/>
       <path id="DejaVuSans-6c" d="M 603 4863 
L 1178 4863 
L 1178 0 
L 603 0 
L 603 4863 
z
" transform="scale(0.015625)"/>
       <path id="DejaVuSans-65" d="M 3597 1894 
L 3597 1613 
L 953 1613 
Q 991 1019 1311 708 
Q 1631 397 2203 397 
Q 2534 397 2845 478 
Q 3156 559 3463 722 
L 3463 178 
Q 3153 47 2828 -22 
Q 2503 -91 2169 -91 
Q 1331 -91 842 396 
Q 353 884 353 1716 
Q 353 2575 817 3079 
Q 1281 3584 2069 3584 
Q 2775 3584 3186 3129 
Q 3597 2675 3597 1894 
z
M 3022 2063 
Q 3016 2534 2758 2815 
Q 2500 3097 2075 3097 
Q 1594 3097 1305 2825 
Q 1016 2553 972 2059 
L 3022 2063 
z
" transform="scale(0.015625)"/>
       <path id="DejaVuSans-73" d="M 2834 3397 
L 2834 2853 
Q 2591 2978 2328 3040 
Q 2066 3103 1784 3103 
Q 1356 3103 1142 2972 
Q 928 2841 928 2578 
Q 928 2378 1081 2264 
Q 1234 2150 1697 2047 
L 1894 2003 
Q 2506 1872 2764 1633 
Q 3022 1394 3022 966 
Q 3022 478 2636 193 
Q 2250 -91 1575 -91 
Q 1294 -91 989 -36 
Q 684 19 347 128 
L 347 722 
Q 666 556 975 473 
Q 1284 391 1588 391 
Q 1994 391 2212 530 
Q 2431 669 2431 922 
Q 2431 1156 2273 1281 
Q 2116 1406 1581 1522 
L 1381 1569 
Q 847 1681 609 1914 
Q 372 2147 372 2553 
Q 372 3047 722 3315 
Q 1072 3584 1716 3584 
Q 2034 3584 2315 3537 
Q 2597 3491 2834 3397 
z
" transform="scale(0.015625)"/>
      </defs>
      <use xlink:href="#DejaVuSans-53"/>
      <use xlink:href="#DejaVuSans-61" transform="translate(63.476562 0)"/>
      <use xlink:href="#DejaVuSans-6d" transform="translate(124.755859 0)"/>
      <use xlink:href="#DejaVuSans-70" transform="translate(222.167969 0)"/>
      <use xlink:href="#DejaVuSans-6c" transform="translate(285.644531 0)"/>
      <use xlink:href="#DejaVuSans-65" transform="translate(313.427734 0)"/>
      <use xlink:href="#DejaVuSans-73" transform="translate(374.951172 0)"/>
     </g>
    </g>
   </g>
   <g id="matplotlib.axis_2">
    <g id="ytick_1">
     <g id="line2d_7">
      <defs>
       <path id="m6fcaf009dd" d="M 0 0 
L -3.5 0 
" style="stroke: #000000; stroke-width: 0.8"/>
      </defs>
      <g>
       <use xlink:href="#m6fcaf009dd" x="52.94" y="218.236119" style="stroke: #000000; stroke-width: 0.8"/>
      </g>
     </g>
     <g id="text_8">
      <!-- −30 -->
      <g transform="translate(24.835313 222.035338) scale(0.1 -0.1)">
       <defs>
        <path id="DejaVuSans-2212" d="M 678 2272 
L 4684 2272 
L 4684 1741 
L 678 1741 
L 678 2272 
z
" transform="scale(0.015625)"/>
        <path id="DejaVuSans-33" d="M 2597 2516 
Q 3050 2419 3304 2112 
Q 3559 1806 3559 1356 
Q 3559 666 3084 287 
Q 2609 -91 1734 -91 
Q 1441 -91 1130 -33 
Q 819 25 488 141 
L 488 750 
Q 750 597 1062 519 
Q 1375 441 1716 441 
Q 2309 441 2620 675 
Q 2931 909 2931 1356 
Q 2931 1769 2642 2001 
Q 2353 2234 1838 2234 
L 1294 2234 
L 1294 2753 
L 1863 2753 
Q 2328 2753 2575 2939 
Q 2822 3125 2822 3475 
Q 2822 3834 2567 4026 
Q 2313 4219 1838 4219 
Q 1578 4219 1281 4162 
Q 984 4106 628 3988 
L 628 4550 
Q 988 4650 1302 4700 
Q 1616 4750 1894 4750 
Q 2613 4750 3031 4423 
Q 3450 4097 3450 3541 
Q 3450 3153 3228 2886 
Q 3006 2619 2597 2516 
z
" transform="scale(0.015625)"/>
       </defs>
       <use xlink:href="#DejaVuSans-2212"/>
       <use xlink:href="#DejaVuSans-33" transform="translate(83.789062 0)"/>
       <use xlink:href="#DejaVuSans-30" transform="translate(147.412109 0)"/>
      </g>
     </g>
    </g>
    <g id="ytick_2">
     <g id="line2d_8">
      <g>
       <use xlink:href="#m6fcaf009dd" x="52.94" y="188.499349" style="stroke: #000000; stroke-width: 0.8"/>
      </g>
     </g>
     <g id="text_9">
      <!-- −20 -->
      <g transform="translate(24.835313 192.298567) scale(0.1 -0.1)">
       <use xlink:href="#DejaVuSans-2212"/>
       <use xlink:href="#DejaVuSans-32" transform="translate(83.789062 0)"/>
       <use xlink:href="#DejaVuSans-30" transform="translate(147.412109 0)"/>
      </g>
     </g>
    </g>
    <g id="ytick_3">
     <g id="line2d_9">
      <g>
       <use xlink:href="#m6fcaf009dd" x="52.94" y="158.762578" style="stroke: #000000; stroke-width: 0.8"/>
      </g>
     </g>
     <g id="text_10">
      <!-- −10 -->
      <g transform="translate(24.835313 162.561797) scale(0.1 -0.1)">
       <use xlink:href="#DejaVuSans-2212"/>
       <use xlink:href="#DejaVuSans-31" transform="translate(83.789062 0)"/>
       <use xlink:href="#DejaVuSans-30" transform="translate(147.412109 0)"/>
      </g>
     </g>
    </g>
    <g id="ytick_4">
     <g id="line2d_10">
      <g>
       <use xlink:href="#m6fcaf009dd" x="52.94" y="129.025807" style="stroke: #000000; stroke-width: 0.8"/>
      </g>
     </g>
     <g id="text_11">
      <!-- 0 -->
      <g transform="translate(39.5775 132.825026) scale(0.1 -0.1)">
       <use xlink:href="#DejaVuSans-30"/>
      </g>
     </g>
    </g>
    <g id="ytick_5">
     <g id="line2d_11">
      <g>
       <use xlink:href="#m6fcaf009dd" x="52.94" y="99.289037" style="stroke: #000000; stroke-width: 0.8"/>
      </g>
     </g>
     <g id="text_12">
      <!-- 10 -->
      <g transform="translate(33.215 103.088255) scale(0.1 -0.1)">
       <use xlink:href="#DejaVuSans-31"/>
       <use xlink:href="#DejaVuSans-30" transform="translate(63.623047 0)"/>
      </g>
     </g>
    </g>
    <g id="ytick_6">
     <g id="line2d_12">
      <g>
       <use xlink:href="#m6fcaf009dd" x="52.94" y="69.552266" style="stroke: #000000; stroke-width: 0.8"/>
      </g>
     </g>
     <g id="text_13">
      <!-- 20 -->
      <g transform="translate(33.215 73.351485) scale(0.1 -0.1)">
       <use xlink:href="#DejaVuSans-32"/>
       <use xlink:href="#DejaVuSans-30" transform="translate(63.623047 0)"/>
      </g>
     </g>
    </g>
    <g id="ytick_7">
     <g id="line2d_13">
      <g>
       <use xlink:href="#m6fcaf009dd" x="52.94" y="39.815495" style="stroke: #000000; stroke-width: 0.8"/>
      </g>
     </g>
     <g id="text_14">
      <!-- 30 -->
      <g transform="translate(33.215 43.614714) scale(0.1 -0.1)">
       <use xlink:href="#DejaVuSans-33"/>
       <use xlink:href="#DejaVuSans-30" transform="translate(63.623047 0)"/>
      </g>
     </g>
    </g>
    <g id="text_15">
     <!-- EMG-Amplitude -->
     <g transform="translate(18.755625 175.121719) rotate(-90) scale(0.1 -0.1)">
      <defs>
       <path id="DejaVuSans-45" d="M 628 4666 
L 3578 4666 
L 3578 4134 
L 1259 4134 
L 1259 2753 
L 3481 2753 
L 3481 2222 
L 1259 2222 
L 1259 531 
L 3634 531 
L 3634 0 
L 628 0 
L 628 4666 
z
" transform="scale(0.015625)"/>
       <path id="DejaVuSans-4d" d="M 628 4666 
L 1569 4666 
L 2759 1491 
L 3956 4666 
L 4897 4666 
L 4897 0 
L 4281 0 
L 4281 4097 
L 3078 897 
L 2444 897 
L 1241 4097 
L 1241 0 
L 628 0 
L 628 4666 
z
" transform="scale(0.015625)"/>
       <path id="DejaVuSans-47" d="M 3809 666 
L 3809 1919 
L 2778 1919 
L 2778 2438 
L 4434 2438 
L 4434 434 
Q 4069 175 3628 42 
Q 3188 -91 2688 -91 
Q 1594 -91 976 548 
Q 359 1188 359 2328 
Q 359 3472 976 4111 
Q 1594 4750 2688 4750 
Q 3144 4750 3555 4637 
Q 3966 4525 4313 4306 
L 4313 3634 
Q 3963 3931 3569 4081 
Q 3175 4231 2741 4231 
Q 1884 4231 1454 3753 
Q 1025 3275 1025 2328 
Q 1025 1384 1454 906 
Q 1884 428 2741 428 
Q 3075 428 3337 486 
Q 3600 544 3809 666 
z
" transform="scale(0.015625)"/>
       <path id="DejaVuSans-2d" d="M 313 2009 
L 1997 2009 
L 1997 1497 
L 313 1497 
L 313 2009 
z
" transform="scale(0.015625)"/>
       <path id="DejaVuSans-41" d="M 2188 4044 
L 1331 1722 
L 3047 1722 
L 2188 4044 
z
M 1831 4666 
L 2547 4666 
L 4325 0 
L 3669 0 
L 3244 1197 
L 1141 1197 
L 716 0 
L 50 0 
L 1831 4666 
z
" transform="scale(0.015625)"/>
       <path id="DejaVuSans-69" d="M 603 3500 
L 1178 3500 
L 1178 0 
L 603 0 
L 603 3500 
z
M 603 4863 
L 1178 4863 
L 1178 4134 
L 603 4134 
L 603 4863 
z
" transform="scale(0.015625)"/>
       <path id="DejaVuSans-74" d="M 1172 4494 
L 1172 3500 
L 2356 3500 
L 2356 3053 
L 1172 3053 
L 1172 1153 
Q 1172 725 1289 603 
Q 1406 481 1766 481 
L 2356 481 
L 2356 0 
L 1766 0 
Q 1100 0 847 248 
Q 594 497 594 1153 
L 594 3053 
L 172 3053 
L 172 3500 
L 594 3500 
L 594 4494 
L 1172 4494 
z
" transform="scale(0.015625)"/>
       <path id="DejaVuSans-75" d="M 544 1381 
L 544 3500 
L 1119 3500 
L 1119 1403 
Q 1119 906 1312 657 
Q 1506 409 1894 409 
Q 2359 409 2629 706 
Q 2900 1003 2900 1516 
L 2900 3500 
L 3475 3500 
L 3475 0 
L 2900 0 
L 2900 538 
Q 2691 219 2414 64 
Q 2138 -91 1772 -91 
Q 1169 -91 856 284 
Q 544 659 544 1381 
z
M 1991 3584 
L 1991 3584 
z
" transform="scale(0.015625)"/>
       <path id="DejaVuSans-64" d="M 2906 2969 
L 2906 4863 
L 3481 4863 
L 3481 0 
L 2906 0 
L 2906 525 
Q 2725 213 2448 61 
Q 2172 -91 1784 -91 
Q 1150 -91 751 415 
Q 353 922 353 1747 
Q 353 2572 751 3078 
Q 1150 3584 1784 3584 
Q 2172 3584 2448 3432 
Q 2725 3281 2906 2969 
z
M 947 1747 
Q 947 1113 1208 752 
Q 1469 391 1925 391 
Q 2381 391 2643 752 
Q 2906 1113 2906 1747 
Q 2906 2381 2643 2742 
Q 2381 3103 1925 3103 
Q 1469 3103 1208 2742 
Q 947 2381 947 1747 
z
" transform="scale(0.015625)"/>
      </defs>
      <use xlink:href="#DejaVuSans-45"/>
      <use xlink:href="#DejaVuSans-4d" transform="translate(63.183594 0)"/>
      <use xlink:href="#DejaVuSans-47" transform="translate(149.462891 0)"/>
      <use xlink:href="#DejaVuSans-2d" transform="translate(226.953125 0)"/>
      <use xlink:href="#DejaVuSans-41" transform="translate(260.787109 0)"/>
      <use xlink:href="#DejaVuSans-6d" transform="translate(329.195312 0)"/>
      <use xlink:href="#DejaVuSans-70" transform="translate(426.607422 0)"/>
      <use xlink:href="#DejaVuSans-6c" transform="translate(490.083984 0)"/>
      <use xlink:href="#DejaVuSans-69" transform="translate(517.867188 0)"/>
      <use xlink:href="#DejaVuSans-74" transform="translate(545.650391 0)"/>
      <use xlink:href="#DejaVuSans-75" transform="translate(584.859375 0)"/>
      <use xlink:href="#DejaVuSans-64" transform="translate(648.238281 0)"/>
      <use xlink:href="#DejaVuSans-65" transform="translate(711.714844 0)"/>
     </g>
    </g>
   </g>
   <g id="line2d_14">
    <path d="M 82.77 129.025807 
L 83.45313 129.025807 
L 83.68084 126.05213 
L 83.90855 129.025807 
L 84.13626 123.078453 
L 84.363969 134.973161 
L 84.591679 129.025807 
L 84.819389 126.05213 
L 85.047099 134.973161 
L 85.274809 129.025807 
L 85.502519 131.999484 
L 85.730229 126.05213 
L 86.185649 131.999484 
L 86.413359 120.104776 
L 86.641069 131.999484 
L 86.868779 129.025807 
L 87.096489 129.025807 
L 87.324198 134.973161 
L 87.551908 129.025807 
L 87.779618 129.025807 
L 88.007328 123.078453 
L 88.235038 131.999484 
L 88.462748 129.025807 
L 88.690458 117.131099 
L 88.918168 131.999484 
L 89.145878 129.025807 
L 89.373588 131.999484 
L 89.601298 129.025807 
L 89.829008 123.078453 
L 90.056718 131.999484 
L 90.284427 131.999484 
L 90.512137 129.025807 
L 90.739847 123.078453 
L 90.967557 126.05213 
L 91.195267 134.973161 
L 91.422977 126.05213 
L 91.650687 129.025807 
L 92.106107 129.025807 
L 92.333817 131.999484 
L 92.561527 123.078453 
L 92.789237 129.025807 
L 93.016947 126.05213 
L 93.244656 129.025807 
L 93.700076 129.025807 
L 93.927786 131.999484 
L 94.155496 126.05213 
L 94.383206 134.973161 
L 94.610916 126.05213 
L 94.838626 129.025807 
L 95.066336 134.973161 
L 95.294046 120.104776 
L 95.521756 134.973161 
L 95.977176 123.078453 
L 96.204885 134.973161 
L 96.432595 129.025807 
L 96.660305 129.025807 
L 96.888015 123.078453 
L 97.115725 126.05213 
L 97.343435 131.999484 
L 97.571145 126.05213 
L 97.798855 131.999484 
L 98.026565 129.025807 
L 98.709695 129.025807 
L 98.937405 137.946839 
L 99.392824 123.078453 
L 99.620534 129.025807 
L 99.848244 129.025807 
L 100.075954 131.999484 
L 100.303664 129.025807 
L 100.531374 131.999484 
L 100.759084 120.104776 
L 101.214504 131.999484 
L 101.442214 126.05213 
L 101.669924 134.973161 
L 101.897634 123.078453 
L 102.353053 134.973161 
L 102.580763 126.05213 
L 102.808473 134.973161 
L 103.036183 126.05213 
L 103.263893 129.025807 
L 103.491603 129.025807 
L 103.719313 123.078453 
L 103.947023 131.999484 
L 104.174733 129.025807 
L 104.402443 134.973161 
L 104.630153 129.025807 
L 104.857863 120.104776 
L 105.085573 131.999484 
L 105.313282 129.025807 
L 105.540992 131.999484 
L 105.996412 126.05213 
L 106.224122 134.973161 
L 106.451832 126.05213 
L 106.679542 129.025807 
L 106.907252 126.05213 
L 107.134962 134.973161 
L 107.362672 134.973161 
L 107.590382 114.157422 
L 107.818092 131.999484 
L 108.045802 134.973161 
L 108.273511 126.05213 
L 108.501221 129.025807 
L 108.956641 129.025807 
L 109.184351 126.05213 
L 109.412061 134.973161 
L 109.639771 123.078453 
L 109.867481 129.025807 
L 110.095191 137.946839 
L 110.322901 129.025807 
L 110.550611 131.999484 
L 110.778321 123.078453 
L 111.006031 129.025807 
L 111.23374 137.946839 
L 111.46145 123.078453 
L 111.91687 134.973161 
L 112.14458 131.999484 
L 112.37229 117.131099 
L 112.6 129.025807 
L 112.82771 146.86787 
L 113.05542 123.078453 
L 113.28313 129.025807 
L 113.51084 129.025807 
L 113.73855 126.05213 
L 113.96626 131.999484 
L 114.193969 129.025807 
L 114.421679 129.025807 
L 114.649389 123.078453 
L 114.877099 140.920516 
L 115.104809 134.973161 
L 115.332519 99.289037 
L 115.560229 143.894193 
L 115.787939 140.920516 
L 116.015649 114.157422 
L 116.243359 131.999484 
L 116.471069 129.025807 
L 116.698779 131.999484 
L 116.926489 126.05213 
L 117.154198 126.05213 
L 117.381908 131.999484 
L 117.609618 129.025807 
L 117.837328 131.999484 
L 118.065038 129.025807 
L 118.292748 134.973161 
L 118.520458 117.131099 
L 118.748168 123.078453 
L 118.975878 149.841547 
L 119.203588 126.05213 
L 119.431298 123.078453 
L 119.659008 131.999484 
L 119.886718 123.078453 
L 120.114427 134.973161 
L 120.342137 129.025807 
L 120.569847 120.104776 
L 120.797557 137.946839 
L 121.025267 140.920516 
L 121.252977 123.078453 
L 121.480687 114.157422 
L 121.708397 146.86787 
L 122.163817 117.131099 
L 122.391527 129.025807 
L 122.619237 123.078453 
L 122.846947 134.973161 
L 123.074656 134.973161 
L 123.302366 129.025807 
L 123.530076 131.999484 
L 123.757786 123.078453 
L 123.985496 123.078453 
L 124.213206 134.973161 
L 124.440916 129.025807 
L 124.668626 120.104776 
L 124.896336 131.999484 
L 125.124046 134.973161 
L 125.351756 120.104776 
L 125.579466 131.999484 
L 126.034885 126.05213 
L 126.262595 134.973161 
L 126.490305 111.183745 
L 126.945725 152.815224 
L 127.173435 129.025807 
L 127.401145 120.104776 
L 127.628855 131.999484 
L 127.856565 131.999484 
L 128.084275 123.078453 
L 128.539695 129.025807 
L 128.767405 137.946839 
L 128.995115 137.946839 
L 129.222824 111.183745 
L 129.450534 129.025807 
L 129.678244 134.973161 
L 129.905954 126.05213 
L 130.133664 137.946839 
L 130.361374 129.025807 
L 130.589084 126.05213 
L 130.816794 129.025807 
L 131.044504 126.05213 
L 131.272214 134.973161 
L 131.499924 126.05213 
L 131.727634 126.05213 
L 131.955344 129.025807 
L 132.410763 129.025807 
L 132.638473 123.078453 
L 133.093893 146.86787 
L 133.549313 108.210068 
L 134.004733 146.86787 
L 134.232443 123.078453 
L 134.460153 117.131099 
L 134.687863 131.999484 
L 134.915573 134.973161 
L 135.143282 129.025807 
L 135.370992 126.05213 
L 135.598702 131.999484 
L 135.826412 129.025807 
L 136.054122 123.078453 
L 136.281832 140.920516 
L 136.509542 126.05213 
L 136.737252 126.05213 
L 136.964962 134.973161 
L 137.192672 129.025807 
L 137.420382 126.05213 
L 137.648092 126.05213 
L 137.875802 129.025807 
L 138.103511 126.05213 
L 138.331221 134.973161 
L 138.786641 114.157422 
L 139.014351 137.946839 
L 139.242061 134.973161 
L 139.469771 129.025807 
L 139.697481 126.05213 
L 139.925191 126.05213 
L 140.380611 140.920516 
L 140.608321 129.025807 
L 140.836031 108.210068 
L 141.29145 146.86787 
L 141.51916 120.104776 
L 141.74687 129.025807 
L 142.20229 129.025807 
L 142.43 134.973161 
L 142.65771 129.025807 
L 142.88542 129.025807 
L 143.11313 126.05213 
L 143.34084 129.025807 
L 143.56855 129.025807 
L 143.79626 126.05213 
L 144.023969 129.025807 
L 144.479389 129.025807 
L 144.707099 123.078453 
L 145.162519 137.946839 
L 145.390229 123.078453 
L 145.617939 129.025807 
L 146.528779 129.025807 
L 146.756489 134.973161 
L 146.984198 126.05213 
L 147.211908 131.999484 
L 147.439618 131.999484 
L 147.667328 123.078453 
L 147.895038 129.025807 
L 148.122748 126.05213 
L 148.350458 129.025807 
L 148.578168 129.025807 
L 148.805878 126.05213 
L 149.033588 134.973161 
L 149.261298 126.05213 
L 149.489008 129.025807 
L 149.944427 129.025807 
L 150.172137 140.920516 
L 150.399847 120.104776 
L 150.627557 129.025807 
L 150.855267 131.999484 
L 151.082977 129.025807 
L 151.538397 129.025807 
L 151.766107 131.999484 
L 151.993817 126.05213 
L 152.221527 129.025807 
L 152.449237 129.025807 
L 152.676947 126.05213 
L 152.904656 134.973161 
L 153.132366 126.05213 
L 153.360076 131.999484 
L 153.587786 129.025807 
L 153.815496 123.078453 
L 154.043206 140.920516 
L 154.270916 129.025807 
L 154.498626 123.078453 
L 154.726336 126.05213 
L 154.954046 134.973161 
L 155.181756 131.999484 
L 155.409466 120.104776 
L 155.637176 131.999484 
L 155.864885 129.025807 
L 156.320305 129.025807 
L 156.548015 123.078453 
L 156.775725 131.999484 
L 157.003435 129.025807 
L 157.231145 129.025807 
L 157.458855 131.999484 
L 157.686565 123.078453 
L 157.914275 129.025807 
L 158.141985 131.999484 
L 158.369695 129.025807 
L 158.597405 123.078453 
L 158.825115 126.05213 
L 159.052824 143.894193 
L 159.280534 126.05213 
L 159.508244 126.05213 
L 159.735954 129.025807 
L 159.963664 129.025807 
L 160.191374 134.973161 
L 160.419084 129.025807 
L 160.646794 129.025807 
L 160.874504 123.078453 
L 161.102214 129.025807 
L 161.329924 140.920516 
L 161.557634 123.078453 
L 162.013053 134.973161 
L 162.240763 129.025807 
L 162.468473 120.104776 
L 162.696183 126.05213 
L 162.923893 137.946839 
L 163.151603 129.025807 
L 163.379313 134.973161 
L 163.607023 123.078453 
L 163.834733 117.131099 
L 164.062443 137.946839 
L 164.290153 131.999484 
L 164.517863 129.025807 
L 164.745573 123.078453 
L 164.973282 129.025807 
L 165.200992 137.946839 
L 165.428702 126.05213 
L 165.656412 129.025807 
L 165.884122 123.078453 
L 166.111832 126.05213 
L 166.339542 134.973161 
L 166.567252 129.025807 
L 167.022672 129.025807 
L 167.250382 131.999484 
L 167.478092 126.05213 
L 167.705802 123.078453 
L 167.933511 137.946839 
L 168.161221 126.05213 
L 168.388931 129.025807 
L 168.616641 129.025807 
L 168.844351 126.05213 
L 169.072061 134.973161 
L 169.299771 129.025807 
L 169.527481 129.025807 
L 169.755191 123.078453 
L 170.210611 134.973161 
L 170.438321 123.078453 
L 170.666031 131.999484 
L 170.89374 129.025807 
L 171.12145 129.025807 
L 171.34916 134.973161 
L 171.57687 129.025807 
L 172.03229 123.078453 
L 172.26 129.025807 
L 172.71542 129.025807 
L 172.94313 137.946839 
L 173.17084 123.078453 
L 173.62626 129.025807 
L 173.853969 129.025807 
L 174.081679 131.999484 
L 174.309389 129.025807 
L 174.537099 129.025807 
L 174.764809 126.05213 
L 174.992519 129.025807 
L 175.220229 134.973161 
L 175.447939 129.025807 
L 175.675649 134.973161 
L 175.903359 123.078453 
L 176.131069 126.05213 
L 176.358779 134.973161 
L 176.586489 123.078453 
L 176.814198 131.999484 
L 177.041908 129.025807 
L 177.497328 129.025807 
L 177.725038 126.05213 
L 177.952748 129.025807 
L 178.408168 129.025807 
L 178.635878 123.078453 
L 178.863588 126.05213 
L 179.091298 137.946839 
L 179.319008 126.05213 
L 179.546718 131.999484 
L 180.002137 126.05213 
L 180.229847 129.025807 
L 180.457557 123.078453 
L 180.685267 134.973161 
L 180.912977 134.973161 
L 181.140687 129.025807 
L 181.368397 129.025807 
L 181.596107 126.05213 
L 181.823817 131.999484 
L 182.051527 126.05213 
L 182.279237 129.025807 
L 182.506947 129.025807 
L 182.734656 126.05213 
L 182.962366 131.999484 
L 183.190076 129.025807 
L 183.417786 131.999484 
L 183.645496 129.025807 
L 183.873206 129.025807 
L 184.100916 131.999484 
L 184.328626 126.05213 
L 184.556336 129.025807 
L 185.467176 129.025807 
L 185.694885 131.999484 
L 185.922595 123.078453 
L 186.150305 129.025807 
L 186.378015 131.999484 
L 186.605725 123.078453 
L 186.833435 129.025807 
L 187.061145 129.025807 
L 187.288855 131.999484 
L 187.516565 123.078453 
L 187.744275 126.05213 
L 187.971985 137.946839 
L 188.199695 129.025807 
L 189.110534 129.025807 
L 189.338244 126.05213 
L 189.565954 131.999484 
L 189.793664 126.05213 
L 190.021374 126.05213 
L 190.249084 137.946839 
L 190.476794 129.025807 
L 190.704504 126.05213 
L 190.932214 129.025807 
L 191.159924 134.973161 
L 191.615344 123.078453 
L 191.843053 131.999484 
L 192.070763 129.025807 
L 192.298473 131.999484 
L 192.526183 126.05213 
L 192.753893 129.025807 
L 192.981603 137.946839 
L 193.209313 120.104776 
L 193.437023 129.025807 
L 193.664733 129.025807 
L 193.892443 126.05213 
L 194.120153 137.946839 
L 194.347863 126.05213 
L 194.575573 131.999484 
L 195.030992 126.05213 
L 195.258702 131.999484 
L 195.486412 126.05213 
L 195.714122 131.999484 
L 195.941832 129.025807 
L 196.397252 129.025807 
L 196.624962 123.078453 
L 196.852672 134.973161 
L 197.080382 131.999484 
L 197.308092 126.05213 
L 197.535802 129.025807 
L 197.763511 126.05213 
L 197.991221 134.973161 
L 198.218931 129.025807 
L 198.446641 129.025807 
L 198.674351 120.104776 
L 198.902061 123.078453 
L 199.129771 140.920516 
L 199.357481 126.05213 
L 199.812901 131.999484 
L 200.040611 129.025807 
L 200.268321 129.025807 
L 200.496031 123.078453 
L 200.72374 131.999484 
L 200.95145 129.025807 
L 201.40687 129.025807 
L 201.63458 123.078453 
L 201.86229 131.999484 
L 202.09 129.025807 
L 202.31771 131.999484 
L 202.54542 129.025807 
L 202.77313 129.025807 
L 203.00084 134.973161 
L 203.22855 129.025807 
L 203.45626 120.104776 
L 203.683969 129.025807 
L 204.139389 129.025807 
L 204.367099 140.920516 
L 204.594809 129.025807 
L 205.505649 129.025807 
L 205.733359 120.104776 
L 205.961069 129.025807 
L 206.416489 129.025807 
L 206.644198 134.973161 
L 206.871908 129.025807 
L 207.555038 129.025807 
L 208.010458 123.078453 
L 208.238168 134.973161 
L 208.465878 129.025807 
L 208.693588 129.025807 
L 208.921298 123.078453 
L 209.376718 134.973161 
L 209.604427 126.05213 
L 209.832137 131.999484 
L 210.059847 129.025807 
L 210.287557 123.078453 
L 210.515267 131.999484 
L 210.742977 126.05213 
L 210.970687 131.999484 
L 211.198397 129.025807 
L 211.426107 129.025807 
L 211.653817 131.999484 
L 211.881527 120.104776 
L 212.109237 131.999484 
L 212.336947 131.999484 
L 212.792366 126.05213 
L 213.020076 120.104776 
L 213.475496 140.920516 
L 213.703206 123.078453 
L 213.930916 114.157422 
L 214.158626 140.920516 
L 214.614046 120.104776 
L 214.841756 134.973161 
L 215.069466 129.025807 
L 215.297176 131.999484 
L 215.524885 129.025807 
L 215.752595 123.078453 
L 215.980305 134.973161 
L 216.208015 129.025807 
L 216.663435 129.025807 
L 216.891145 123.078453 
L 217.118855 131.999484 
L 217.346565 131.999484 
L 217.574275 108.210068 
L 218.029695 161.736255 
L 218.257405 105.236391 
L 218.485115 114.157422 
L 218.712824 152.815224 
L 218.940534 137.946839 
L 219.168244 99.289037 
L 219.395954 126.05213 
L 219.623664 170.657286 
L 219.851374 114.157422 
L 220.079084 102.262714 
L 220.306794 140.920516 
L 220.762214 129.025807 
L 220.989924 131.999484 
L 221.217634 129.025807 
L 221.445344 129.025807 
L 221.673053 126.05213 
L 221.900763 120.104776 
L 222.128473 146.86787 
L 222.356183 131.999484 
L 222.583893 96.31536 
L 223.039313 167.683609 
L 223.267023 96.31536 
L 223.722443 149.841547 
L 223.950153 111.183745 
L 224.177863 137.946839 
L 224.405573 134.973161 
L 224.633282 117.131099 
L 224.860992 146.86787 
L 225.088702 117.131099 
L 225.316412 123.078453 
L 225.544122 143.894193 
L 225.771832 123.078453 
L 225.999542 137.946839 
L 226.227252 120.104776 
L 226.682672 137.946839 
L 226.910382 117.131099 
L 227.138092 131.999484 
L 227.365802 131.999484 
L 227.821221 120.104776 
L 228.048931 146.86787 
L 228.504351 105.236391 
L 228.732061 149.841547 
L 228.959771 123.078453 
L 229.187481 120.104776 
L 229.415191 146.86787 
L 229.642901 114.157422 
L 229.870611 120.104776 
L 230.098321 143.894193 
L 230.326031 129.025807 
L 230.55374 126.05213 
L 230.78145 140.920516 
L 231.00916 123.078453 
L 231.23687 117.131099 
L 231.46458 143.894193 
L 231.92 120.104776 
L 232.14771 129.025807 
L 232.37542 126.05213 
L 232.60313 143.894193 
L 232.83084 131.999484 
L 233.05855 96.31536 
L 233.28626 146.86787 
L 233.513969 143.894193 
L 233.741679 108.210068 
L 233.969389 131.999484 
L 234.197099 129.025807 
L 234.424809 123.078453 
L 234.652519 146.86787 
L 234.880229 114.157422 
L 235.107939 114.157422 
L 235.335649 167.683609 
L 235.563359 111.183745 
L 235.791069 131.999484 
L 236.018779 182.551995 
L 236.246489 63.604912 
L 236.474198 105.236391 
L 236.701908 194.446703 
L 236.929618 114.157422 
L 237.157328 117.131099 
L 237.385038 129.025807 
L 237.612748 123.078453 
L 237.840458 143.894193 
L 238.068168 126.05213 
L 238.295878 129.025807 
L 238.523588 129.025807 
L 238.751298 131.999484 
L 238.979008 117.131099 
L 239.206718 126.05213 
L 239.434427 179.578318 
L 239.662137 111.183745 
L 239.889847 102.262714 
L 240.117557 129.025807 
L 240.345267 117.131099 
L 240.572977 161.736255 
L 240.800687 120.104776 
L 241.028397 105.236391 
L 241.256107 155.788901 
L 241.483817 140.920516 
L 241.711527 114.157422 
L 241.939237 105.236391 
L 242.394656 170.657286 
L 242.622366 117.131099 
L 242.850076 108.210068 
L 243.077786 146.86787 
L 243.305496 126.05213 
L 243.533206 126.05213 
L 243.760916 140.920516 
L 243.988626 117.131099 
L 244.216336 117.131099 
L 244.444046 149.841547 
L 244.671756 114.157422 
L 244.899466 120.104776 
L 245.127176 164.709932 
L 245.354885 117.131099 
L 245.582595 105.236391 
L 246.038015 149.841547 
L 246.265725 143.894193 
L 246.493435 111.183745 
L 247.176565 149.841547 
L 247.631985 90.368005 
L 248.087405 164.709932 
L 248.315115 117.131099 
L 248.542824 108.210068 
L 248.770534 167.683609 
L 248.998244 117.131099 
L 249.225954 108.210068 
L 249.909084 164.709932 
L 250.136794 87.394328 
L 250.364504 140.920516 
L 250.592214 129.025807 
L 250.819924 99.289037 
L 251.047634 215.262442 
L 251.275344 57.657558 
L 251.503053 63.604912 
L 251.730763 236.078182 
L 251.958473 114.157422 
L 252.186183 102.262714 
L 252.413893 146.86787 
L 252.641603 129.025807 
L 252.869313 146.86787 
L 253.097023 102.262714 
L 253.324733 108.210068 
L 253.552443 140.920516 
L 253.780153 143.894193 
L 254.007863 134.973161 
L 254.235573 111.183745 
L 254.463282 105.236391 
L 254.690992 176.60464 
L 254.918702 152.815224 
L 255.146412 60.631235 
L 255.601832 200.394057 
L 255.829542 111.183745 
L 256.057252 87.394328 
L 256.284962 117.131099 
L 256.512672 126.05213 
L 256.740382 143.894193 
L 256.968092 179.578318 
L 257.423511 63.604912 
L 257.651221 164.709932 
L 258.106641 84.420651 
L 258.334351 209.315088 
L 258.562061 188.499349 
L 258.789771 66.578589 
L 259.017481 75.49962 
L 259.245191 179.578318 
L 259.472901 120.104776 
L 259.700611 93.341682 
L 259.928321 179.578318 
L 260.38374 81.446974 
L 260.61145 137.946839 
L 261.06687 93.341682 
L 261.29458 197.42038 
L 261.52229 155.788901 
L 261.75 36.841818 
L 262.20542 218.236119 
L 262.43313 99.289037 
L 262.66084 99.289037 
L 263.11626 146.86787 
L 263.343969 200.394057 
L 263.571679 69.552266 
L 263.799389 78.473297 
L 264.027099 206.341411 
L 264.254809 129.025807 
L 264.482519 105.236391 
L 264.710229 114.157422 
L 265.165649 149.841547 
L 265.393359 105.236391 
L 265.848779 155.788901 
L 266.076489 111.183745 
L 266.304198 117.131099 
L 266.531908 131.999484 
L 266.759618 111.183745 
L 266.987328 185.525672 
L 267.442748 90.368005 
L 267.670458 173.630963 
L 268.125878 87.394328 
L 268.581298 173.630963 
L 269.036718 93.341682 
L 269.492137 152.815224 
L 269.719847 146.86787 
L 269.947557 131.999484 
L 270.175267 90.368005 
L 270.402977 120.104776 
L 270.630687 173.630963 
L 270.858397 102.262714 
L 271.086107 126.05213 
L 271.313817 117.131099 
L 271.541527 131.999484 
L 271.769237 191.473026 
L 271.996947 84.420651 
L 272.452366 149.841547 
L 272.680076 105.236391 
L 272.907786 140.920516 
L 273.135496 126.05213 
L 273.363206 120.104776 
L 273.590916 164.709932 
L 273.818626 129.025807 
L 274.046336 60.631235 
L 274.274046 137.946839 
L 274.501756 161.736255 
L 274.729466 111.183745 
L 274.957176 134.973161 
L 275.184885 137.946839 
L 275.412595 126.05213 
L 275.640305 123.078453 
L 275.868015 152.815224 
L 276.095725 126.05213 
L 276.323435 75.49962 
L 276.551145 161.736255 
L 276.778855 140.920516 
L 277.006565 108.210068 
L 277.234275 158.762578 
L 277.461985 120.104776 
L 277.917405 131.999484 
L 278.145115 120.104776 
L 278.372824 134.973161 
L 278.600534 129.025807 
L 278.828244 131.999484 
L 279.055954 137.946839 
L 279.283664 126.05213 
L 279.511374 108.210068 
L 279.739084 120.104776 
L 279.966794 152.815224 
L 280.422214 111.183745 
L 280.649924 126.05213 
L 280.877634 131.999484 
L 281.105344 131.999484 
L 281.333053 126.05213 
L 281.560763 134.973161 
L 281.788473 129.025807 
L 282.016183 120.104776 
L 282.243893 137.946839 
L 282.471603 129.025807 
L 283.154733 129.025807 
L 283.382443 137.946839 
L 283.610153 129.025807 
L 283.837863 102.262714 
L 284.065573 123.078453 
L 284.293282 167.683609 
L 284.520992 126.05213 
L 284.748702 114.157422 
L 284.976412 140.920516 
L 285.204122 126.05213 
L 285.431832 131.999484 
L 285.659542 134.973161 
L 285.887252 117.131099 
L 286.114962 129.025807 
L 286.342672 131.999484 
L 286.570382 131.999484 
L 286.798092 126.05213 
L 287.025802 117.131099 
L 287.253511 131.999484 
L 287.481221 129.025807 
L 287.708931 134.973161 
L 287.936641 126.05213 
L 288.164351 126.05213 
L 288.392061 140.920516 
L 288.619771 129.025807 
L 288.847481 129.025807 
L 289.075191 126.05213 
L 289.302901 126.05213 
L 289.530611 131.999484 
L 289.758321 129.025807 
L 289.986031 131.999484 
L 290.21374 123.078453 
L 290.44145 120.104776 
L 290.66916 137.946839 
L 290.89687 131.999484 
L 291.12458 123.078453 
L 291.35229 129.025807 
L 291.58 131.999484 
L 292.03542 126.05213 
L 292.26313 134.973161 
L 292.49084 129.025807 
L 292.71855 129.025807 
L 292.94626 126.05213 
L 293.173969 129.025807 
L 293.401679 134.973161 
L 293.629389 126.05213 
L 293.857099 134.973161 
L 294.084809 129.025807 
L 294.312519 117.131099 
L 294.540229 134.973161 
L 294.767939 129.025807 
L 294.995649 131.999484 
L 295.451069 126.05213 
L 295.678779 126.05213 
L 295.906489 123.078453 
L 296.134198 137.946839 
L 296.361908 129.025807 
L 296.589618 126.05213 
L 296.817328 126.05213 
L 297.045038 129.025807 
L 297.272748 137.946839 
L 297.500458 126.05213 
L 297.728168 129.025807 
L 297.955878 123.078453 
L 298.183588 126.05213 
L 298.411298 137.946839 
L 298.639008 129.025807 
L 298.866718 129.025807 
L 299.094427 126.05213 
L 299.322137 126.05213 
L 299.549847 131.999484 
L 299.777557 129.025807 
L 300.005267 134.973161 
L 300.232977 126.05213 
L 300.460687 126.05213 
L 300.688397 134.973161 
L 300.916107 123.078453 
L 301.143817 131.999484 
L 301.371527 129.025807 
L 302.054656 129.025807 
L 302.282366 134.973161 
L 302.510076 126.05213 
L 302.737786 131.999484 
L 302.965496 129.025807 
L 303.193206 120.104776 
L 303.420916 129.025807 
L 303.648626 129.025807 
L 303.876336 131.999484 
L 304.331756 126.05213 
L 304.559466 131.999484 
L 304.787176 126.05213 
L 305.242595 131.999484 
L 305.470305 129.025807 
L 305.698015 129.025807 
L 305.925725 126.05213 
L 306.153435 134.973161 
L 307.064275 123.078453 
L 307.291985 131.999484 
L 307.519695 129.025807 
L 307.747405 131.999484 
L 307.975115 123.078453 
L 308.202824 120.104776 
L 308.430534 137.946839 
L 308.658244 129.025807 
L 308.885954 129.025807 
L 309.113664 126.05213 
L 309.341374 129.025807 
L 309.569084 140.920516 
L 309.796794 123.078453 
L 310.024504 129.025807 
L 310.707634 129.025807 
L 310.935344 126.05213 
L 311.163053 131.999484 
L 311.390763 129.025807 
L 312.073893 129.025807 
L 312.301603 131.999484 
L 312.529313 129.025807 
L 312.757023 129.025807 
L 312.984733 126.05213 
L 313.212443 126.05213 
L 313.440153 134.973161 
L 313.667863 129.025807 
L 313.895573 131.999484 
L 314.123282 126.05213 
L 314.350992 126.05213 
L 314.578702 137.946839 
L 314.806412 126.05213 
L 315.034122 129.025807 
L 315.261832 129.025807 
L 315.489542 126.05213 
L 315.717252 134.973161 
L 315.944962 126.05213 
L 316.172672 129.025807 
L 316.855802 129.025807 
L 317.083511 126.05213 
L 317.311221 131.999484 
L 317.538931 129.025807 
L 317.766641 129.025807 
L 317.994351 123.078453 
L 318.222061 126.05213 
L 318.449771 140.920516 
L 318.677481 129.025807 
L 318.905191 129.025807 
L 319.132901 126.05213 
L 319.360611 126.05213 
L 319.588321 131.999484 
L 319.816031 126.05213 
L 320.04374 131.999484 
L 320.49916 126.05213 
L 320.72687 134.973161 
L 320.95458 126.05213 
L 321.18229 129.025807 
L 321.41 134.973161 
L 321.86542 123.078453 
L 322.09313 129.025807 
L 322.32084 131.999484 
L 322.54855 129.025807 
L 322.77626 129.025807 
L 323.003969 126.05213 
L 323.231679 126.05213 
L 323.459389 134.973161 
L 323.687099 129.025807 
L 323.914809 131.999484 
L 324.142519 129.025807 
L 324.370229 129.025807 
L 324.597939 131.999484 
L 324.825649 126.05213 
L 325.053359 134.973161 
L 325.508779 123.078453 
L 325.736489 129.025807 
L 325.964198 126.05213 
L 326.191908 137.946839 
L 326.647328 123.078453 
L 326.875038 129.025807 
L 327.102748 129.025807 
L 327.330458 134.973161 
L 327.558168 129.025807 
L 327.785878 131.999484 
L 328.013588 117.131099 
L 328.241298 123.078453 
L 328.469008 137.946839 
L 328.696718 129.025807 
L 328.924427 131.999484 
L 329.379847 126.05213 
L 329.607557 134.973161 
L 329.835267 123.078453 
L 330.062977 129.025807 
L 330.518397 129.025807 
L 330.746107 131.999484 
L 330.973817 120.104776 
L 331.201527 129.025807 
L 331.429237 131.999484 
L 331.656947 131.999484 
L 331.884656 126.05213 
L 332.112366 129.025807 
L 332.340076 137.946839 
L 332.567786 126.05213 
L 332.795496 129.025807 
L 333.023206 126.05213 
L 333.250916 129.025807 
L 333.478626 134.973161 
L 333.706336 129.025807 
L 333.934046 131.999484 
L 334.161756 123.078453 
L 334.389466 120.104776 
L 334.617176 134.973161 
L 334.844885 129.025807 
L 335.072595 131.999484 
L 335.300305 129.025807 
L 335.528015 129.025807 
L 335.755725 131.999484 
L 335.983435 129.025807 
L 336.211145 131.999484 
L 336.438855 123.078453 
L 336.894275 134.973161 
L 337.121985 123.078453 
L 337.349695 129.025807 
L 337.577405 131.999484 
L 337.805115 131.999484 
L 338.032824 126.05213 
L 338.260534 126.05213 
L 338.488244 137.946839 
L 338.715954 126.05213 
L 338.943664 129.025807 
L 339.171374 129.025807 
L 339.399084 120.104776 
L 339.626794 129.025807 
L 339.854504 129.025807 
L 340.082214 131.999484 
L 340.537634 126.05213 
L 340.765344 131.999484 
L 340.993053 129.025807 
L 341.220763 131.999484 
L 341.448473 129.025807 
L 341.676183 131.999484 
L 341.903893 123.078453 
L 342.131603 120.104776 
L 342.359313 137.946839 
L 342.587023 129.025807 
L 343.042443 129.025807 
L 343.270153 123.078453 
L 343.497863 137.946839 
L 343.725573 129.025807 
L 343.953282 131.999484 
L 344.408702 126.05213 
L 344.636412 131.999484 
L 344.864122 129.025807 
L 345.319542 129.025807 
L 345.547252 134.973161 
L 345.774962 126.05213 
L 346.002672 126.05213 
L 346.230382 129.025807 
L 346.458092 120.104776 
L 346.685802 131.999484 
L 346.913511 129.025807 
L 347.368931 129.025807 
L 347.596641 126.05213 
L 347.824351 134.973161 
L 348.052061 129.025807 
L 348.279771 131.999484 
L 348.735191 126.05213 
L 348.962901 129.025807 
L 349.190611 126.05213 
L 349.418321 131.999484 
L 349.646031 129.025807 
L 349.87374 129.025807 
L 350.10145 137.946839 
L 350.32916 126.05213 
L 350.55687 129.025807 
L 350.78458 129.025807 
L 351.01229 126.05213 
L 351.46771 126.05213 
L 351.69542 137.946839 
L 352.15084 126.05213 
L 352.37855 129.025807 
L 352.60626 129.025807 
L 352.833969 131.999484 
L 353.061679 129.025807 
L 353.289389 131.999484 
L 353.517099 123.078453 
L 353.744809 126.05213 
L 353.972519 134.973161 
L 354.200229 126.05213 
L 354.427939 131.999484 
L 354.655649 129.025807 
L 354.883359 129.025807 
L 355.111069 137.946839 
L 355.338779 120.104776 
L 355.566489 129.025807 
L 356.477328 129.025807 
L 356.705038 131.999484 
L 356.932748 129.025807 
L 357.160458 131.999484 
L 357.388168 129.025807 
L 357.615878 120.104776 
L 357.843588 129.025807 
L 358.299008 134.973161 
L 358.526718 120.104776 
L 358.754427 126.05213 
L 358.982137 134.973161 
L 359.209847 126.05213 
L 359.437557 134.973161 
L 359.665267 129.025807 
L 359.892977 126.05213 
L 360.120687 134.973161 
L 360.348397 126.05213 
L 360.576107 131.999484 
L 360.803817 129.025807 
L 361.486947 129.025807 
L 361.714656 131.999484 
L 361.942366 126.05213 
L 362.170076 129.025807 
L 362.397786 134.973161 
L 362.625496 126.05213 
L 362.853206 129.025807 
L 363.080916 129.025807 
L 363.308626 134.973161 
L 363.536336 123.078453 
L 363.764046 126.05213 
L 363.991756 137.946839 
L 364.219466 129.025807 
L 364.447176 129.025807 
L 364.674885 126.05213 
L 365.130305 131.999484 
L 365.358015 126.05213 
L 365.585725 131.999484 
L 365.813435 129.025807 
L 366.268855 129.025807 
L 366.496565 123.078453 
L 366.724275 134.973161 
L 366.951985 129.025807 
L 367.179695 129.025807 
L 367.635115 123.078453 
L 367.862824 134.973161 
L 368.090534 126.05213 
L 368.318244 129.025807 
L 368.773664 129.025807 
L 369.001374 131.999484 
L 369.229084 129.025807 
L 369.456794 129.025807 
L 369.684504 126.05213 
L 370.139924 131.999484 
L 370.367634 126.05213 
L 370.595344 131.999484 
L 370.823053 129.025807 
L 371.050763 129.025807 
L 371.278473 131.999484 
L 371.506183 126.05213 
L 371.733893 131.999484 
L 371.961603 129.025807 
L 372.644733 129.025807 
L 372.872443 134.973161 
L 373.100153 126.05213 
L 373.555573 126.05213 
L 374.010992 131.999484 
L 374.238702 129.025807 
L 374.466412 131.999484 
L 374.694122 126.05213 
L 374.921832 131.999484 
L 375.149542 129.025807 
L 375.377252 123.078453 
L 375.604962 134.973161 
L 375.832672 129.025807 
L 376.288092 129.025807 
L 376.515802 126.05213 
L 376.743511 140.920516 
L 376.971221 126.05213 
L 377.654351 126.05213 
L 377.882061 137.946839 
L 378.109771 129.025807 
L 378.337481 131.999484 
L 378.565191 123.078453 
L 378.792901 123.078453 
L 379.020611 131.999484 
L 379.248321 126.05213 
L 379.476031 131.999484 
L 379.93145 126.05213 
L 380.15916 134.973161 
L 380.38687 126.05213 
L 380.61458 129.025807 
L 380.84229 129.025807 
L 381.07 131.999484 
L 381.29771 129.025807 
L 381.52542 120.104776 
L 381.75313 134.973161 
L 381.98084 129.025807 
L 382.20855 129.025807 
L 382.663969 123.078453 
L 382.891679 131.999484 
L 383.119389 129.025807 
L 383.347099 131.999484 
L 383.574809 126.05213 
L 383.802519 126.05213 
L 384.030229 134.973161 
L 384.257939 129.025807 
L 384.485649 129.025807 
L 384.713359 126.05213 
L 384.941069 129.025807 
L 385.168779 134.973161 
L 385.396489 123.078453 
L 385.624198 129.025807 
L 386.079618 129.025807 
L 386.307328 131.999484 
L 386.535038 123.078453 
L 386.762748 129.025807 
L 387.445878 129.025807 
L 387.673588 123.078453 
L 387.901298 129.025807 
L 388.356718 134.973161 
L 388.584427 120.104776 
L 388.812137 126.05213 
L 389.039847 134.973161 
L 389.267557 129.025807 
L 389.495267 137.946839 
L 389.950687 120.104776 
L 390.406107 137.946839 
L 390.633817 131.999484 
L 390.861527 120.104776 
L 391.089237 129.025807 
L 391.316947 131.999484 
L 391.544656 120.104776 
L 391.772366 129.025807 
L 392.227786 129.025807 
L 392.455496 131.999484 
L 392.683206 129.025807 
L 393.138626 129.025807 
L 393.366336 140.920516 
L 393.594046 120.104776 
L 394.049466 137.946839 
L 394.277176 120.104776 
L 394.504885 131.999484 
L 394.732595 131.999484 
L 394.960305 117.131099 
L 395.188015 126.05213 
L 395.643435 131.999484 
L 395.871145 129.025807 
L 396.554275 129.025807 
L 396.781985 134.973161 
L 397.009695 123.078453 
L 397.237405 126.05213 
L 397.465115 134.973161 
L 397.692824 129.025807 
L 397.920534 129.025807 
L 398.148244 126.05213 
L 398.375954 129.025807 
L 398.603664 126.05213 
L 398.831374 129.025807 
L 399.059084 137.946839 
L 399.286794 129.025807 
L 399.514504 129.025807 
L 399.742214 117.131099 
L 399.969924 140.920516 
L 400.197634 137.946839 
L 400.425344 105.236391 
L 400.653053 137.946839 
L 400.880763 134.973161 
L 401.108473 126.05213 
L 401.336183 131.999484 
L 401.563893 129.025807 
L 401.791603 129.025807 
L 402.019313 126.05213 
L 402.247023 140.920516 
L 402.702443 117.131099 
L 402.930153 131.999484 
L 403.157863 129.025807 
L 403.385573 134.973161 
L 403.613282 114.157422 
L 404.068702 140.920516 
L 404.296412 129.025807 
L 404.751832 129.025807 
L 404.979542 126.05213 
L 405.207252 129.025807 
L 405.434962 129.025807 
L 405.662672 134.973161 
L 405.890382 123.078453 
L 406.118092 126.05213 
L 406.345802 134.973161 
L 406.573511 129.025807 
L 407.028931 129.025807 
L 407.256641 131.999484 
L 407.484351 131.999484 
L 407.712061 120.104776 
L 407.939771 131.999484 
L 408.167481 129.025807 
L 408.395191 131.999484 
L 408.622901 126.05213 
L 408.850611 111.183745 
L 409.078321 146.86787 
L 409.306031 140.920516 
L 409.53374 120.104776 
L 409.76145 117.131099 
L 409.98916 129.025807 
L 410.21687 134.973161 
L 410.44458 123.078453 
L 410.67229 137.946839 
L 410.9 126.05213 
L 411.12771 120.104776 
L 411.35542 146.86787 
L 411.81084 114.157422 
L 412.03855 134.973161 
L 412.26626 134.973161 
L 412.721679 120.104776 
L 412.949389 140.920516 
L 413.177099 140.920516 
L 413.404809 117.131099 
L 413.632519 120.104776 
L 413.860229 137.946839 
L 414.087939 137.946839 
L 414.315649 123.078453 
L 414.543359 129.025807 
L 414.771069 131.999484 
L 414.998779 129.025807 
L 415.226489 131.999484 
L 415.454198 123.078453 
L 415.681908 126.05213 
L 415.909618 126.05213 
L 416.137328 134.973161 
L 416.365038 134.973161 
L 416.592748 117.131099 
L 416.820458 129.025807 
L 417.048168 131.999484 
L 417.275878 129.025807 
L 417.503588 123.078453 
L 417.731298 123.078453 
L 417.959008 143.894193 
L 418.186718 129.025807 
L 418.642137 129.025807 
L 418.869847 126.05213 
L 419.097557 137.946839 
L 419.325267 123.078453 
L 419.552977 129.025807 
L 420.008397 129.025807 
L 420.236107 134.973161 
L 420.463817 126.05213 
L 420.691527 123.078453 
L 420.919237 129.025807 
L 421.146947 143.894193 
L 421.602366 120.104776 
L 421.830076 131.999484 
L 422.057786 123.078453 
L 422.513206 134.973161 
L 422.740916 123.078453 
L 422.968626 129.025807 
L 423.196336 129.025807 
L 423.424046 134.973161 
L 423.651756 123.078453 
L 423.879466 126.05213 
L 424.107176 143.894193 
L 424.334885 126.05213 
L 424.562595 129.025807 
L 425.018015 129.025807 
L 425.245725 131.999484 
L 425.473435 123.078453 
L 425.701145 131.999484 
L 425.928855 129.025807 
L 426.156565 129.025807 
L 426.384275 131.999484 
L 426.611985 126.05213 
L 426.839695 129.025807 
L 427.067405 126.05213 
L 427.295115 129.025807 
L 427.522824 134.973161 
L 427.750534 126.05213 
L 427.978244 129.025807 
L 428.205954 129.025807 
L 428.433664 134.973161 
L 428.661374 129.025807 
L 428.889084 120.104776 
L 429.116794 137.946839 
L 429.344504 129.025807 
L 429.799924 129.025807 
L 430.027634 131.999484 
L 430.255344 129.025807 
L 430.483053 123.078453 
L 430.710763 137.946839 
L 430.938473 126.05213 
L 431.166183 126.05213 
L 431.393893 137.946839 
L 431.621603 126.05213 
L 431.849313 129.025807 
L 432.077023 129.025807 
L 432.304733 131.999484 
L 432.532443 126.05213 
L 432.760153 126.05213 
L 432.987863 140.920516 
L 433.215573 129.025807 
L 433.443282 126.05213 
L 433.670992 129.025807 
L 433.898702 129.025807 
L 434.126412 137.946839 
L 434.354122 126.05213 
L 434.581832 126.05213 
L 434.809542 129.025807 
L 435.037252 129.025807 
L 435.264962 131.999484 
L 435.492672 126.05213 
L 435.720382 129.025807 
L 436.631221 129.025807 
L 436.858931 131.999484 
L 437.086641 123.078453 
L 437.314351 129.025807 
L 437.542061 131.999484 
L 437.769771 129.025807 
L 437.997481 131.999484 
L 438.225191 129.025807 
L 438.452901 131.999484 
L 438.680611 123.078453 
L 438.908321 123.078453 
L 439.136031 134.973161 
L 439.36374 129.025807 
L 439.59145 129.025807 
L 439.81916 123.078453 
L 440.04687 129.025807 
L 440.27458 131.999484 
L 440.50229 120.104776 
L 440.73 131.999484 
L 440.95771 129.025807 
L 441.18542 129.025807 
L 441.41313 134.973161 
L 441.64084 123.078453 
L 441.86855 131.999484 
L 442.09626 129.025807 
L 442.323969 129.025807 
L 442.551679 131.999484 
L 442.779389 129.025807 
L 443.007099 131.999484 
L 443.234809 129.025807 
L 443.462519 131.999484 
L 443.690229 126.05213 
L 443.917939 123.078453 
L 444.145649 134.973161 
L 444.373359 129.025807 
L 445.056489 129.025807 
L 445.284198 131.999484 
L 445.511908 129.025807 
L 446.195038 129.025807 
L 446.422748 134.973161 
L 446.650458 126.05213 
L 446.878168 129.025807 
L 447.333588 129.025807 
L 447.561298 126.05213 
L 447.789008 129.025807 
L 448.016718 134.973161 
L 448.244427 129.025807 
L 448.472137 129.025807 
L 448.699847 123.078453 
L 448.927557 126.05213 
L 449.155267 134.973161 
L 449.382977 129.025807 
L 449.610687 129.025807 
L 449.838397 126.05213 
L 450.066107 129.025807 
L 450.293817 134.973161 
L 450.521527 126.05213 
L 450.749237 129.025807 
L 451.432366 129.025807 
L 451.660076 126.05213 
L 451.887786 131.999484 
L 452.115496 129.025807 
L 452.343206 129.025807 
L 452.570916 126.05213 
L 453.026336 131.999484 
L 453.254046 123.078453 
L 453.481756 129.025807 
L 453.937176 129.025807 
L 454.164885 131.999484 
L 454.392595 120.104776 
L 454.620305 134.973161 
L 454.848015 129.025807 
L 455.075725 120.104776 
L 455.303435 131.999484 
L 455.758855 126.05213 
L 456.214275 131.999484 
L 456.669695 126.05213 
L 456.897405 134.973161 
L 457.125115 126.05213 
L 457.352824 129.025807 
L 457.580534 129.025807 
L 457.808244 126.05213 
L 458.035954 134.973161 
L 458.263664 129.025807 
L 458.491374 129.025807 
L 458.719084 120.104776 
L 458.946794 126.05213 
L 459.174504 137.946839 
L 459.402214 123.078453 
L 459.857634 134.973161 
L 460.085344 120.104776 
L 460.313053 129.025807 
L 460.540763 131.999484 
L 460.996183 126.05213 
L 461.223893 131.999484 
L 461.451603 131.999484 
L 461.679313 123.078453 
L 461.907023 129.025807 
L 462.134733 126.05213 
L 462.362443 129.025807 
L 462.590153 129.025807 
L 462.817863 120.104776 
L 463.045573 134.973161 
L 463.273282 129.025807 
L 463.500992 131.999484 
L 463.728702 126.05213 
L 463.956412 123.078453 
L 464.184122 140.920516 
L 464.411832 129.025807 
L 465.094962 129.025807 
L 465.322672 131.999484 
L 465.550382 126.05213 
L 465.778092 131.999484 
L 466.005802 129.025807 
L 466.233511 129.025807 
L 466.461221 134.973161 
L 466.688931 126.05213 
L 466.916641 129.025807 
L 467.372061 129.025807 
L 467.599771 126.05213 
L 467.827481 126.05213 
L 468.055191 131.999484 
L 468.510611 131.999484 
L 468.738321 123.078453 
L 469.19374 129.025807 
L 469.42145 123.078453 
L 469.64916 137.946839 
L 469.87687 131.999484 
L 470.10458 129.025807 
L 470.33229 123.078453 
L 470.78771 137.946839 
L 471.01542 129.025807 
L 471.24313 129.025807 
L 471.47084 126.05213 
L 471.69855 129.025807 
L 472.153969 123.078453 
L 472.381679 131.999484 
L 472.609389 126.05213 
L 472.837099 134.973161 
L 473.064809 129.025807 
L 473.292519 126.05213 
L 473.520229 134.973161 
L 473.747939 123.078453 
L 473.975649 131.999484 
L 474.203359 129.025807 
L 474.431069 123.078453 
L 474.658779 134.973161 
L 474.886489 129.025807 
L 475.114198 129.025807 
L 475.341908 126.05213 
L 475.569618 131.999484 
L 475.797328 134.973161 
L 476.025038 120.104776 
L 476.252748 129.025807 
L 476.480458 131.999484 
L 476.708168 129.025807 
L 476.935878 120.104776 
L 477.163588 123.078453 
L 477.391298 140.920516 
L 477.619008 129.025807 
L 477.846718 129.025807 
L 478.074427 123.078453 
L 478.302137 126.05213 
L 478.529847 134.973161 
L 478.757557 126.05213 
L 478.985267 129.025807 
L 479.668397 129.025807 
L 479.896107 126.05213 
L 480.123817 134.973161 
L 480.351527 131.999484 
L 480.579237 126.05213 
L 480.806947 126.05213 
L 481.034656 129.025807 
L 481.262366 134.973161 
L 481.490076 126.05213 
L 481.717786 129.025807 
L 481.945496 126.05213 
L 482.173206 120.104776 
L 482.400916 140.920516 
L 482.628626 129.025807 
L 482.856336 123.078453 
L 483.084046 129.025807 
L 483.311756 129.025807 
L 483.539466 134.973161 
L 483.767176 129.025807 
L 484.222595 129.025807 
L 484.450305 123.078453 
L 484.678015 134.973161 
L 484.905725 129.025807 
L 485.133435 126.05213 
L 485.361145 129.025807 
L 485.816565 129.025807 
L 486.044275 120.104776 
L 486.271985 137.946839 
L 486.499695 140.920516 
L 486.727405 117.131099 
L 486.955115 129.025807 
L 487.182824 131.999484 
L 487.410534 129.025807 
L 487.638244 129.025807 
L 487.865954 131.999484 
L 488.093664 120.104776 
L 488.321374 126.05213 
L 488.549084 146.86787 
L 488.776794 120.104776 
L 489.004504 114.157422 
L 489.232214 131.999484 
L 489.459924 140.920516 
L 489.687634 123.078453 
L 489.915344 120.104776 
L 490.143053 137.946839 
L 490.370763 131.999484 
L 490.598473 129.025807 
L 490.826183 123.078453 
L 491.053893 131.999484 
L 491.281603 134.973161 
L 491.509313 120.104776 
L 491.737023 129.025807 
L 491.964733 129.025807 
L 492.192443 126.05213 
L 492.420153 134.973161 
L 492.647863 126.05213 
L 492.875573 131.999484 
L 493.103282 129.025807 
L 493.330992 123.078453 
L 493.558702 137.946839 
L 493.786412 134.973161 
L 494.241832 111.183745 
L 494.469542 149.841547 
L 494.697252 143.894193 
L 494.924962 105.236391 
L 495.152672 131.999484 
L 495.380382 129.025807 
L 495.608092 129.025807 
L 495.835802 137.946839 
L 496.063511 111.183745 
L 496.518931 149.841547 
L 496.746641 117.131099 
L 496.974351 123.078453 
L 497.429771 143.894193 
L 497.657481 134.973161 
L 497.885191 105.236391 
L 498.568321 143.894193 
L 498.796031 129.025807 
L 499.02374 129.025807 
L 499.25145 120.104776 
L 499.47916 120.104776 
L 499.70687 143.894193 
L 499.93458 129.025807 
L 500.16229 126.05213 
L 500.39 126.05213 
L 500.61771 143.894193 
L 500.84542 134.973161 
L 501.07313 108.210068 
L 501.52855 143.894193 
L 501.983969 111.183745 
L 502.439389 140.920516 
L 502.667099 137.946839 
L 503.122519 102.262714 
L 503.350229 149.841547 
L 503.577939 143.894193 
L 503.805649 90.368005 
L 504.261069 164.709932 
L 504.716489 99.289037 
L 504.944198 131.999484 
L 505.171908 146.86787 
L 505.399618 123.078453 
L 505.627328 129.025807 
L 505.855038 140.920516 
L 506.082748 140.920516 
L 506.310458 114.157422 
L 506.538168 105.236391 
L 506.765878 149.841547 
L 507.221298 117.131099 
L 507.449008 129.025807 
L 507.676718 129.025807 
L 507.904427 131.999484 
L 508.132137 117.131099 
L 508.359847 129.025807 
L 508.587557 134.973161 
L 508.815267 131.999484 
L 509.042977 140.920516 
L 509.270687 111.183745 
L 509.726107 146.86787 
L 509.953817 111.183745 
L 510.409237 140.920516 
L 510.636947 134.973161 
L 510.864656 126.05213 
L 511.092366 108.210068 
L 511.320076 140.920516 
L 511.547786 129.025807 
L 511.775496 126.05213 
L 512.003206 152.815224 
L 512.230916 111.183745 
L 512.458626 102.262714 
L 512.686336 137.946839 
L 512.914046 137.946839 
L 513.141756 120.104776 
L 513.369466 126.05213 
L 513.597176 140.920516 
L 513.824885 126.05213 
L 514.052595 134.973161 
L 514.280305 137.946839 
L 514.508015 126.05213 
L 514.735725 126.05213 
L 514.963435 117.131099 
L 515.418855 143.894193 
L 515.646565 129.025807 
L 515.874275 123.078453 
L 516.101985 123.078453 
L 516.557405 134.973161 
L 516.785115 129.025807 
L 517.012824 126.05213 
L 517.240534 129.025807 
L 517.468244 137.946839 
L 517.695954 123.078453 
L 517.923664 123.078453 
L 518.151374 129.025807 
L 518.379084 140.920516 
L 518.834504 120.104776 
L 519.062214 134.973161 
L 519.289924 117.131099 
L 519.517634 126.05213 
L 519.745344 140.920516 
L 519.973053 123.078453 
L 520.200763 131.999484 
L 520.428473 123.078453 
L 520.883893 134.973161 
L 521.111603 129.025807 
L 521.567023 129.025807 
L 521.794733 137.946839 
L 522.250153 117.131099 
L 522.477863 129.025807 
L 522.705573 129.025807 
L 522.933282 134.973161 
L 523.160992 126.05213 
L 523.388702 126.05213 
L 523.616412 134.973161 
L 523.844122 129.025807 
L 524.071832 129.025807 
L 524.299542 126.05213 
L 524.527252 129.025807 
L 524.754962 137.946839 
L 524.982672 126.05213 
L 525.438092 131.999484 
L 525.665802 129.025807 
L 525.893511 129.025807 
L 526.121221 126.05213 
L 526.348931 131.999484 
L 526.576641 129.025807 
L 526.804351 131.999484 
L 527.032061 123.078453 
L 527.259771 120.104776 
L 527.487481 137.946839 
L 527.715191 129.025807 
L 528.398321 129.025807 
L 528.626031 131.999484 
L 528.85374 129.025807 
L 529.08145 129.025807 
L 529.30916 126.05213 
L 529.76458 131.999484 
L 529.99229 131.999484 
L 530.44771 126.05213 
L 530.67542 129.025807 
L 530.90313 129.025807 
L 531.13084 126.05213 
L 531.35855 131.999484 
L 531.58626 126.05213 
L 532.041679 131.999484 
L 532.269389 123.078453 
L 532.497099 137.946839 
L 532.724809 129.025807 
L 532.952519 126.05213 
L 533.180229 129.025807 
L 533.407939 126.05213 
L 533.635649 131.999484 
L 533.863359 129.025807 
L 534.546489 129.025807 
L 534.774198 131.999484 
L 535.001908 126.05213 
L 535.229618 129.025807 
L 535.457328 126.05213 
L 535.685038 131.999484 
L 535.912748 134.973161 
L 536.140458 123.078453 
L 536.368168 129.025807 
L 536.595878 129.025807 
L 536.823588 131.999484 
L 537.051298 123.078453 
L 537.279008 120.104776 
L 537.506718 137.946839 
L 537.734427 131.999484 
L 537.962137 129.025807 
L 538.189847 123.078453 
L 538.417557 126.05213 
L 538.645267 134.973161 
L 538.872977 129.025807 
L 539.100687 129.025807 
L 539.328397 126.05213 
L 539.556107 129.025807 
L 539.783817 140.920516 
L 540.011527 123.078453 
L 540.239237 129.025807 
L 540.922366 129.025807 
L 541.150076 120.104776 
L 541.377786 137.946839 
L 541.605496 131.999484 
L 541.833206 120.104776 
L 542.060916 126.05213 
L 542.288626 134.973161 
L 542.516336 131.999484 
L 542.744046 120.104776 
L 542.971756 129.025807 
L 543.199466 129.025807 
L 543.427176 126.05213 
L 543.654885 131.999484 
L 543.882595 126.05213 
L 544.110305 131.999484 
L 544.565725 126.05213 
L 544.793435 129.025807 
L 545.021145 129.025807 
L 545.248855 131.999484 
L 545.476565 126.05213 
L 545.704275 129.025807 
L 545.931985 134.973161 
L 546.159695 123.078453 
L 546.387405 131.999484 
L 546.842824 126.05213 
L 547.070534 129.025807 
L 547.298244 129.025807 
L 547.525954 131.999484 
L 547.753664 123.078453 
L 547.981374 129.025807 
L 548.436794 123.078453 
L 548.664504 134.973161 
L 548.892214 129.025807 
L 549.347634 129.025807 
L 549.575344 131.999484 
L 550.030763 126.05213 
L 550.258473 131.999484 
L 550.486183 126.05213 
L 550.713893 129.025807 
L 550.941603 134.973161 
L 551.169313 126.05213 
L 551.397023 131.999484 
L 551.624733 129.025807 
L 551.852443 129.025807 
L 552.307863 123.078453 
L 552.535573 137.946839 
L 552.763282 134.973161 
L 552.990992 129.025807 
L 553.218702 120.104776 
L 553.446412 126.05213 
L 553.674122 137.946839 
L 553.901832 126.05213 
L 554.129542 129.025807 
L 554.357252 129.025807 
L 554.584962 126.05213 
L 554.812672 134.973161 
L 555.040382 126.05213 
L 555.495802 131.999484 
L 555.723511 126.05213 
L 555.951221 129.025807 
L 556.178931 129.025807 
L 556.406641 131.999484 
L 556.634351 129.025807 
L 556.862061 129.025807 
L 557.089771 126.05213 
L 557.545191 131.999484 
L 557.772901 123.078453 
L 558.000611 134.973161 
L 558.228321 129.025807 
L 558.456031 120.104776 
L 558.68374 131.999484 
L 558.91145 129.025807 
L 559.13916 131.999484 
L 559.59458 126.05213 
L 559.82229 131.999484 
L 560.05 129.025807 
L 560.73313 129.025807 
L 560.96084 131.999484 
L 561.18855 129.025807 
L 561.41626 129.025807 
L 561.643969 123.078453 
L 561.871679 131.999484 
L 562.099389 129.025807 
L 562.327099 123.078453 
L 562.554809 134.973161 
L 563.237939 126.05213 
L 563.465649 126.05213 
L 563.693359 134.973161 
L 563.921069 126.05213 
L 564.148779 129.025807 
L 564.376489 129.025807 
L 564.604198 126.05213 
L 564.831908 129.025807 
L 565.059618 126.05213 
L 565.287328 129.025807 
L 565.515038 129.025807 
L 565.742748 126.05213 
L 565.970458 131.999484 
L 566.198168 131.999484 
L 566.425878 129.025807 
L 566.653588 134.973161 
L 567.109008 123.078453 
L 567.792137 131.999484 
L 568.019847 123.078453 
L 568.475267 140.920516 
L 568.702977 129.025807 
L 569.158397 123.078453 
L 569.386107 131.999484 
L 569.613817 129.025807 
L 569.841527 129.025807 
L 570.069237 134.973161 
L 570.296947 126.05213 
L 570.524656 129.025807 
L 570.752366 134.973161 
L 571.207786 123.078453 
L 571.435496 129.025807 
L 571.663206 137.946839 
L 571.890916 126.05213 
L 572.118626 129.025807 
L 572.346336 129.025807 
L 572.574046 123.078453 
L 572.801756 134.973161 
L 573.257176 129.025807 
L 573.484885 129.025807 
L 573.712595 131.999484 
L 573.940305 129.025807 
L 574.168015 123.078453 
L 574.395725 131.999484 
L 574.623435 126.05213 
L 574.851145 129.025807 
L 575.078855 134.973161 
L 575.306565 126.05213 
L 575.534275 129.025807 
L 575.989695 129.025807 
L 576.217405 126.05213 
L 576.445115 126.05213 
L 576.672824 131.999484 
L 576.900534 131.999484 
L 577.128244 134.973161 
L 577.355954 129.025807 
L 577.583664 126.05213 
L 577.811374 134.973161 
L 578.039084 126.05213 
L 578.266794 129.025807 
L 578.722214 129.025807 
L 578.949924 134.973161 
L 579.177634 126.05213 
L 579.405344 129.025807 
L 580.088473 129.025807 
L 580.316183 126.05213 
L 580.543893 134.973161 
L 580.771603 129.025807 
L 580.999313 129.025807 
L 581.227023 120.104776 
L 581.454733 120.104776 
L 581.682443 143.894193 
L 582.137863 123.078453 
L 582.365573 123.078453 
L 582.593282 129.025807 
L 582.820992 131.999484 
L 583.048702 126.05213 
L 583.276412 134.973161 
L 583.504122 129.025807 
L 583.731832 126.05213 
L 583.959542 134.973161 
L 584.187252 129.025807 
L 585.098092 129.025807 
L 585.325802 126.05213 
L 585.553511 131.999484 
L 585.781221 129.025807 
L 586.008931 129.025807 
L 586.236641 120.104776 
L 586.464351 120.104776 
L 586.692061 140.920516 
L 586.919771 131.999484 
L 587.147481 129.025807 
L 587.375191 129.025807 
L 587.602901 126.05213 
L 587.830611 134.973161 
L 588.058321 129.025807 
L 588.286031 126.05213 
L 588.74145 131.999484 
L 588.96916 131.999484 
L 589.19687 123.078453 
L 589.42458 129.025807 
L 589.65229 131.999484 
L 589.88 129.025807 
L 590.10771 129.025807 
L 590.33542 126.05213 
L 590.56313 129.025807 
L 590.79084 134.973161 
L 591.01855 134.973161 
L 591.24626 117.131099 
L 591.473969 123.078453 
L 591.701679 140.920516 
L 591.929389 123.078453 
L 592.157099 129.025807 
L 592.612519 129.025807 
L 592.840229 134.973161 
L 593.067939 129.025807 
L 593.978779 129.025807 
L 594.206489 123.078453 
L 594.434198 134.973161 
L 594.661908 129.025807 
L 595.345038 129.025807 
L 595.572748 131.999484 
L 595.800458 123.078453 
L 596.028168 131.999484 
L 596.255878 131.999484 
L 596.483588 120.104776 
L 596.711298 131.999484 
L 596.939008 134.973161 
L 597.394427 123.078453 
L 597.622137 126.05213 
L 597.849847 131.999484 
L 598.077557 131.999484 
L 598.305267 134.973161 
L 598.532977 117.131099 
L 598.988397 134.973161 
L 599.216107 126.05213 
L 599.443817 137.946839 
L 599.899237 123.078453 
L 600.354656 129.025807 
L 600.582366 140.920516 
L 600.810076 134.973161 
L 601.265496 117.131099 
L 601.493206 120.104776 
L 601.720916 152.815224 
L 601.948626 134.973161 
L 602.176336 105.236391 
L 602.404046 131.999484 
L 602.631756 137.946839 
L 602.859466 126.05213 
L 603.087176 129.025807 
L 603.314885 129.025807 
L 603.542595 111.183745 
L 603.998015 149.841547 
L 604.225725 111.183745 
L 604.453435 129.025807 
L 604.681145 137.946839 
L 604.908855 129.025807 
L 605.136565 129.025807 
L 605.364275 120.104776 
L 605.591985 131.999484 
L 606.047405 137.946839 
L 606.275115 134.973161 
L 606.502824 108.210068 
L 606.730534 120.104776 
L 606.958244 146.86787 
L 607.185954 140.920516 
L 607.413664 120.104776 
L 607.869084 131.999484 
L 608.096794 117.131099 
L 608.324504 137.946839 
L 608.552214 134.973161 
L 608.779924 117.131099 
L 609.007634 134.973161 
L 609.235344 123.078453 
L 609.463053 120.104776 
L 609.690763 137.946839 
L 610.146183 126.05213 
L 610.373893 129.025807 
L 610.601603 123.078453 
L 611.057023 143.894193 
L 611.284733 120.104776 
L 611.512443 117.131099 
L 611.740153 134.973161 
L 611.967863 134.973161 
L 612.195573 131.999484 
L 612.423282 105.236391 
L 612.650992 131.999484 
L 612.878702 143.894193 
L 613.106412 111.183745 
L 613.334122 137.946839 
L 613.561832 134.973161 
L 613.789542 120.104776 
L 614.017252 131.999484 
L 614.244962 129.025807 
L 614.700382 129.025807 
L 614.928092 134.973161 
L 615.383511 114.157422 
L 615.611221 140.920516 
L 615.838931 134.973161 
L 616.066641 131.999484 
L 616.294351 120.104776 
L 616.522061 120.104776 
L 616.749771 134.973161 
L 616.977481 123.078453 
L 617.205191 134.973161 
L 617.432901 134.973161 
L 617.660611 117.131099 
L 617.888321 129.025807 
L 618.79916 129.025807 
L 619.02687 131.999484 
L 619.25458 129.025807 
L 619.48229 131.999484 
L 619.71 129.025807 
L 619.93771 129.025807 
L 620.16542 123.078453 
L 620.62084 134.973161 
L 620.84855 126.05213 
L 621.07626 129.025807 
L 621.531679 123.078453 
L 621.759389 134.973161 
L 621.987099 129.025807 
L 622.214809 129.025807 
L 622.442519 126.05213 
L 622.670229 129.025807 
L 622.897939 129.025807 
L 623.125649 126.05213 
L 623.353359 131.999484 
L 623.581069 129.025807 
L 623.808779 129.025807 
L 624.036489 134.973161 
L 624.264198 126.05213 
L 624.719618 131.999484 
L 625.175038 126.05213 
L 625.402748 129.025807 
L 625.630458 134.973161 
L 625.858168 126.05213 
L 626.085878 129.025807 
L 626.313588 129.025807 
L 626.541298 126.05213 
L 626.769008 134.973161 
L 626.996718 129.025807 
L 627.224427 126.05213 
L 627.452137 129.025807 
L 627.679847 129.025807 
L 627.907557 131.999484 
L 628.135267 126.05213 
L 628.362977 131.999484 
L 628.590687 129.025807 
L 628.818397 129.025807 
L 629.046107 131.999484 
L 629.273817 129.025807 
L 629.501527 131.999484 
L 629.729237 126.05213 
L 629.956947 126.05213 
L 630.184656 129.025807 
L 630.412366 129.025807 
L 630.640076 131.999484 
L 630.867786 123.078453 
L 631.095496 129.025807 
L 631.323206 129.025807 
L 631.550916 123.078453 
L 631.778626 134.973161 
L 632.006336 129.025807 
L 632.234046 129.025807 
L 632.461756 134.973161 
L 632.689466 126.05213 
L 632.917176 126.05213 
L 633.144885 131.999484 
L 633.372595 134.973161 
L 633.600305 123.078453 
L 634.055725 129.025807 
L 634.283435 126.05213 
L 634.511145 134.973161 
L 634.738855 129.025807 
L 635.194275 129.025807 
L 635.421985 123.078453 
L 635.649695 131.999484 
L 635.877405 129.025807 
L 636.105115 131.999484 
L 636.332824 129.025807 
L 636.560534 123.078453 
L 636.788244 137.946839 
L 637.015954 129.025807 
L 637.243664 126.05213 
L 637.471374 129.025807 
L 637.699084 129.025807 
L 637.926794 137.946839 
L 638.154504 126.05213 
L 638.382214 129.025807 
L 639.065344 129.025807 
L 639.293053 123.078453 
L 639.520763 131.999484 
L 639.748473 129.025807 
L 640.203893 129.025807 
L 640.431603 120.104776 
L 640.659313 134.973161 
L 640.887023 131.999484 
L 641.114733 131.999484 
L 641.342443 129.025807 
L 641.570153 123.078453 
L 641.797863 134.973161 
L 642.025573 126.05213 
L 642.253282 129.025807 
L 642.708702 129.025807 
L 642.936412 137.946839 
L 643.164122 123.078453 
L 643.391832 129.025807 
L 644.302672 129.025807 
L 644.530382 134.973161 
L 645.213511 126.05213 
L 645.441221 126.05213 
L 645.668931 131.999484 
L 645.896641 131.999484 
L 646.352061 126.05213 
L 646.579771 126.05213 
L 646.807481 134.973161 
L 647.035191 126.05213 
L 647.262901 129.025807 
L 647.490611 126.05213 
L 647.718321 120.104776 
L 647.946031 134.973161 
L 648.17374 129.025807 
L 649.08458 129.025807 
L 649.31229 126.05213 
L 649.54 131.999484 
L 649.76771 129.025807 
L 650.22313 129.025807 
L 650.45084 123.078453 
L 650.67855 137.946839 
L 650.90626 129.025807 
L 651.133969 126.05213 
L 651.361679 126.05213 
L 651.589389 129.025807 
L 651.817099 137.946839 
L 652.044809 129.025807 
L 652.272519 129.025807 
L 652.500229 123.078453 
L 652.727939 129.025807 
L 652.955649 137.946839 
L 653.183359 126.05213 
L 653.638779 131.999484 
L 654.094198 126.05213 
L 654.549618 131.999484 
L 654.777328 126.05213 
L 655.005038 131.999484 
L 655.232748 129.025807 
L 655.460458 123.078453 
L 655.688168 131.999484 
L 655.915878 129.025807 
L 656.143588 131.999484 
L 656.371298 123.078453 
L 656.599008 126.05213 
L 656.826718 140.920516 
L 657.054427 123.078453 
L 657.282137 131.999484 
L 657.509847 129.025807 
L 657.737557 123.078453 
L 657.965267 134.973161 
L 658.192977 129.025807 
L 658.876107 129.025807 
L 659.103817 131.999484 
L 659.331527 129.025807 
L 659.559237 131.999484 
L 659.786947 126.05213 
L 660.014656 129.025807 
L 660.242366 129.025807 
L 660.470076 126.05213 
L 660.697786 137.946839 
L 660.925496 129.025807 
L 661.380916 129.025807 
L 661.608626 123.078453 
L 661.836336 134.973161 
L 662.064046 129.025807 
L 662.519466 129.025807 
L 662.747176 126.05213 
L 662.974885 129.025807 
L 663.202595 129.025807 
L 663.430305 131.999484 
L 663.658015 126.05213 
L 663.885725 126.05213 
L 664.113435 131.999484 
L 664.341145 129.025807 
L 664.796565 129.025807 
L 665.024275 131.999484 
L 665.251985 123.078453 
L 665.707405 134.973161 
L 665.935115 129.025807 
L 666.162824 131.999484 
L 666.390534 126.05213 
L 666.618244 126.05213 
L 666.845954 137.946839 
L 667.073664 126.05213 
L 667.301374 129.025807 
L 667.529084 123.078453 
L 667.756794 126.05213 
L 667.984504 137.946839 
L 668.212214 134.973161 
L 668.439924 129.025807 
L 668.667634 120.104776 
L 668.895344 129.025807 
L 669.123053 129.025807 
L 669.350763 123.078453 
L 669.578473 131.999484 
L 669.806183 131.999484 
L 670.033893 129.025807 
L 670.261603 123.078453 
L 670.489313 123.078453 
L 670.717023 137.946839 
L 670.944733 129.025807 
L 671.400153 129.025807 
L 671.627863 126.05213 
L 671.855573 134.973161 
L 672.083282 129.025807 
L 672.310992 126.05213 
L 672.538702 126.05213 
L 672.766412 131.999484 
L 672.994122 131.999484 
L 673.221832 123.078453 
L 673.449542 129.025807 
L 673.677252 126.05213 
L 673.904962 131.999484 
L 674.132672 131.999484 
L 674.360382 126.05213 
L 674.588092 134.973161 
L 674.815802 129.025807 
L 675.271221 129.025807 
L 675.498931 123.078453 
L 675.726641 134.973161 
L 675.954351 129.025807 
L 676.409771 129.025807 
L 676.637481 126.05213 
L 676.865191 131.999484 
L 677.092901 126.05213 
L 677.320611 131.999484 
L 677.548321 123.078453 
L 677.776031 129.025807 
L 678.00374 137.946839 
L 678.23145 126.05213 
L 678.45916 134.973161 
L 678.68687 126.05213 
L 678.91458 126.05213 
L 679.14229 134.973161 
L 679.37 126.05213 
L 679.37 126.05213 
" clip-path="url(#p7815342114)" style="fill: none; stroke: #1f77b4; stroke-width: 1.5; stroke-linecap: square"/>
   </g>
   <g id="line2d_15">
    <path d="M 82.77 246.04 
L 82.77 26.88 
" clip-path="url(#p7815342114)" style="fill: none; stroke-dasharray: 5.55,2.4; stroke-dashoffset: 0; stroke: #000000; stroke-opacity: 0.5; stroke-width: 1.5"/>
   </g>
   <g id="line2d_16">
    <path d="M 202.77313 246.04 
L 202.77313 26.88 
" clip-path="url(#p7815342114)" style="fill: none; stroke-dasharray: 5.55,2.4; stroke-dashoffset: 0; stroke: #000000; stroke-opacity: 0.5; stroke-width: 1.5"/>
   </g>
   <g id="line2d_17">
    <path d="M 344.864122 246.04 
L 344.864122 26.88 
" clip-path="url(#p7815342114)" style="fill: none; stroke-dasharray: 5.55,2.4; stroke-dashoffset: 0; stroke: #000000; stroke-opacity: 0.5; stroke-width: 1.5"/>
   </g>
   <g id="line2d_18">
    <path d="M 469.87687 246.04 
L 469.87687 26.88 
" clip-path="url(#p7815342114)" style="fill: none; stroke-dasharray: 5.55,2.4; stroke-dashoffset: 0; stroke: #000000; stroke-opacity: 0.5; stroke-width: 1.5"/>
   </g>
   <g id="line2d_19">
    <path d="M 565.287328 246.04 
L 565.287328 26.88 
" clip-path="url(#p7815342114)" style="fill: none; stroke-dasharray: 5.55,2.4; stroke-dashoffset: 0; stroke: #000000; stroke-opacity: 0.5; stroke-width: 1.5"/>
   </g>
   <g id="line2d_20">
    <path d="M 679.59771 246.04 
L 679.59771 26.88 
" clip-path="url(#p7815342114)" style="fill: none; stroke-dasharray: 5.55,2.4; stroke-dashoffset: 0; stroke: #000000; stroke-opacity: 0.5; stroke-width: 1.5"/>
   </g>
   <g id="patch_3">
    <path d="M 52.94 246.04 
L 52.94 26.88 
" style="fill: none; stroke: #000000; stroke-width: 0.8; stroke-linejoin: miter; stroke-linecap: square"/>
   </g>
   <g id="patch_4">
    <path d="M 709.2 246.04 
L 709.2 26.88 
" style="fill: none; stroke: #000000; stroke-width: 0.8; stroke-linejoin: miter; stroke-linecap: square"/>
   </g>
   <g id="patch_5">
    <path d="M 52.94 246.04 
L 709.2 246.04 
" style="fill: none; stroke: #000000; stroke-width: 0.8; stroke-linejoin: miter; stroke-linecap: square"/>
   </g>
   <g id="patch_6">
    <path d="M 52.94 26.88 
L 709.2 26.88 
" style="fill: none; stroke: #000000; stroke-width: 0.8; stroke-linejoin: miter; stroke-linecap: square"/>
   </g>
   <g id="text_16">
    <!-- kleiner Finger -->
    <g transform="translate(108.754377 243.676619) scale(0.1 -0.1)">
     <defs>
      <path id="DejaVuSans-6b" d="M 581 4863 
L 1159 4863 
L 1159 1991 
L 2875 3500 
L 3609 3500 
L 1753 1863 
L 3688 0 
L 2938 0 
L 1159 1709 
L 1159 0 
L 581 0 
L 581 4863 
z
" transform="scale(0.015625)"/>
      <path id="DejaVuSans-6e" d="M 3513 2113 
L 3513 0 
L 2938 0 
L 2938 2094 
Q 2938 2591 2744 2837 
Q 2550 3084 2163 3084 
Q 1697 3084 1428 2787 
Q 1159 2491 1159 1978 
L 1159 0 
L 581 0 
L 581 3500 
L 1159 3500 
L 1159 2956 
Q 1366 3272 1645 3428 
Q 1925 3584 2291 3584 
Q 2894 3584 3203 3211 
Q 3513 2838 3513 2113 
z
" transform="scale(0.015625)"/>
      <path id="DejaVuSans-72" d="M 2631 2963 
Q 2534 3019 2420 3045 
Q 2306 3072 2169 3072 
Q 1681 3072 1420 2755 
Q 1159 2438 1159 1844 
L 1159 0 
L 581 0 
L 581 3500 
L 1159 3500 
L 1159 2956 
Q 1341 3275 1631 3429 
Q 1922 3584 2338 3584 
Q 2397 3584 2469 3576 
Q 2541 3569 2628 3553 
L 2631 2963 
z
" transform="scale(0.015625)"/>
      <path id="DejaVuSans-20" transform="scale(0.015625)"/>
      <path id="DejaVuSans-46" d="M 628 4666 
L 3309 4666 
L 3309 4134 
L 1259 4134 
L 1259 2759 
L 3109 2759 
L 3109 2228 
L 1259 2228 
L 1259 0 
L 628 0 
L 628 4666 
z
" transform="scale(0.015625)"/>
      <path id="DejaVuSans-67" d="M 2906 1791 
Q 2906 2416 2648 2759 
Q 2391 3103 1925 3103 
Q 1463 3103 1205 2759 
Q 947 2416 947 1791 
Q 947 1169 1205 825 
Q 1463 481 1925 481 
Q 2391 481 2648 825 
Q 2906 1169 2906 1791 
z
M 3481 434 
Q 3481 -459 3084 -895 
Q 2688 -1331 1869 -1331 
Q 1566 -1331 1297 -1286 
Q 1028 -1241 775 -1147 
L 775 -588 
Q 1028 -725 1275 -790 
Q 1522 -856 1778 -856 
Q 2344 -856 2625 -561 
Q 2906 -266 2906 331 
L 2906 616 
Q 2728 306 2450 153 
Q 2172 0 1784 0 
Q 1141 0 747 490 
Q 353 981 353 1791 
Q 353 2603 747 3093 
Q 1141 3584 1784 3584 
Q 2172 3584 2450 3431 
Q 2728 3278 2906 2969 
L 2906 3500 
L 3481 3500 
L 3481 434 
z
" transform="scale(0.015625)"/>
     </defs>
     <use xlink:href="#DejaVuSans-6b"/>
     <use xlink:href="#DejaVuSans-6c" transform="translate(57.910156 0)"/>
     <use xlink:href="#DejaVuSans-65" transform="translate(85.693359 0)"/>
     <use xlink:href="#DejaVuSans-69" transform="translate(147.216797 0)"/>
     <use xlink:href="#DejaVuSans-6e" transform="translate(175 0)"/>
     <use xlink:href="#DejaVuSans-65" transform="translate(238.378906 0)"/>
     <use xlink:href="#DejaVuSans-72" transform="translate(299.902344 0)"/>
     <use xlink:href="#DejaVuSans-20" transform="translate(341.015625 0)"/>
     <use xlink:href="#DejaVuSans-46" transform="translate(372.802734 0)"/>
     <use xlink:href="#DejaVuSans-69" transform="translate(423.072266 0)"/>
     <use xlink:href="#DejaVuSans-6e" transform="translate(450.855469 0)"/>
     <use xlink:href="#DejaVuSans-67" transform="translate(514.234375 0)"/>
     <use xlink:href="#DejaVuSans-65" transform="translate(577.710938 0)"/>
     <use xlink:href="#DejaVuSans-72" transform="translate(639.234375 0)"/>
    </g>
   </g>
   <g id="text_17">
    <!-- Ringfinger -->
    <g transform="translate(247.988157 243.676619) scale(0.1 -0.1)">
     <defs>
      <path id="DejaVuSans-52" d="M 2841 2188 
Q 3044 2119 3236 1894 
Q 3428 1669 3622 1275 
L 4263 0 
L 3584 0 
L 2988 1197 
Q 2756 1666 2539 1819 
Q 2322 1972 1947 1972 
L 1259 1972 
L 1259 0 
L 628 0 
L 628 4666 
L 2053 4666 
Q 2853 4666 3247 4331 
Q 3641 3997 3641 3322 
Q 3641 2881 3436 2590 
Q 3231 2300 2841 2188 
z
M 1259 4147 
L 1259 2491 
L 2053 2491 
Q 2509 2491 2742 2702 
Q 2975 2913 2975 3322 
Q 2975 3731 2742 3939 
Q 2509 4147 2053 4147 
L 1259 4147 
z
" transform="scale(0.015625)"/>
      <path id="DejaVuSans-66" d="M 2375 4863 
L 2375 4384 
L 1825 4384 
Q 1516 4384 1395 4259 
Q 1275 4134 1275 3809 
L 1275 3500 
L 2222 3500 
L 2222 3053 
L 1275 3053 
L 1275 0 
L 697 0 
L 697 3053 
L 147 3053 
L 147 3500 
L 697 3500 
L 697 3744 
Q 697 4328 969 4595 
Q 1241 4863 1831 4863 
L 2375 4863 
z
" transform="scale(0.015625)"/>
     </defs>
     <use xlink:href="#DejaVuSans-52"/>
     <use xlink:href="#DejaVuSans-69" transform="translate(69.482422 0)"/>
     <use xlink:href="#DejaVuSans-6e" transform="translate(97.265625 0)"/>
     <use xlink:href="#DejaVuSans-67" transform="translate(160.644531 0)"/>
     <use xlink:href="#DejaVuSans-66" transform="translate(224.121094 0)"/>
     <use xlink:href="#DejaVuSans-69" transform="translate(259.326172 0)"/>
     <use xlink:href="#DejaVuSans-6e" transform="translate(287.109375 0)"/>
     <use xlink:href="#DejaVuSans-67" transform="translate(350.488281 0)"/>
     <use xlink:href="#DejaVuSans-65" transform="translate(413.964844 0)"/>
     <use xlink:href="#DejaVuSans-72" transform="translate(475.488281 0)"/>
    </g>
   </g>
   <g id="text_18">
    <!-- Mittelfinger -->
    <g transform="translate(378.657215 243.676619) scale(0.1 -0.1)">
     <use xlink:href="#DejaVuSans-4d"/>
     <use xlink:href="#DejaVuSans-69" transform="translate(86.279297 0)"/>
     <use xlink:href="#DejaVuSans-74" transform="translate(114.0625 0)"/>
     <use xlink:href="#DejaVuSans-74" transform="translate(153.271484 0)"/>
     <use xlink:href="#DejaVuSans-65" transform="translate(192.480469 0)"/>
     <use xlink:href="#DejaVuSans-6c" transform="translate(254.003906 0)"/>
     <use xlink:href="#DejaVuSans-66" transform="translate(281.787109 0)"/>
     <use xlink:href="#DejaVuSans-69" transform="translate(316.992188 0)"/>
     <use xlink:href="#DejaVuSans-6e" transform="translate(344.775391 0)"/>
     <use xlink:href="#DejaVuSans-67" transform="translate(408.154297 0)"/>
     <use xlink:href="#DejaVuSans-65" transform="translate(471.630859 0)"/>
     <use xlink:href="#DejaVuSans-72" transform="translate(533.154297 0)"/>
    </g>
   </g>
   <g id="text_19">
    <!-- Zeigefinger -->
    <g transform="translate(488.816474 243.676619) scale(0.1 -0.1)">
     <defs>
      <path id="DejaVuSans-5a" d="M 359 4666 
L 4025 4666 
L 4025 4184 
L 1075 531 
L 4097 531 
L 4097 0 
L 288 0 
L 288 481 
L 3238 4134 
L 359 4134 
L 359 4666 
z
" transform="scale(0.015625)"/>
     </defs>
     <use xlink:href="#DejaVuSans-5a"/>
     <use xlink:href="#DejaVuSans-65" transform="translate(68.505859 0)"/>
     <use xlink:href="#DejaVuSans-69" transform="translate(130.029297 0)"/>
     <use xlink:href="#DejaVuSans-67" transform="translate(157.8125 0)"/>
     <use xlink:href="#DejaVuSans-65" transform="translate(221.289062 0)"/>
     <use xlink:href="#DejaVuSans-66" transform="translate(282.8125 0)"/>
     <use xlink:href="#DejaVuSans-69" transform="translate(318.017578 0)"/>
     <use xlink:href="#DejaVuSans-6e" transform="translate(345.800781 0)"/>
     <use xlink:href="#DejaVuSans-67" transform="translate(409.179688 0)"/>
     <use xlink:href="#DejaVuSans-65" transform="translate(472.65625 0)"/>
     <use xlink:href="#DejaVuSans-72" transform="translate(534.179688 0)"/>
    </g>
   </g>
   <g id="text_20">
    <!-- Daumen -->
    <g transform="translate(601.244082 243.676619) scale(0.1 -0.1)">
     <defs>
      <path id="DejaVuSans-44" d="M 1259 4147 
L 1259 519 
L 2022 519 
Q 2988 519 3436 956 
Q 3884 1394 3884 2338 
Q 3884 3275 3436 3711 
Q 2988 4147 2022 4147 
L 1259 4147 
z
M 628 4666 
L 1925 4666 
Q 3281 4666 3915 4102 
Q 4550 3538 4550 2338 
Q 4550 1131 3912 565 
Q 3275 0 1925 0 
L 628 0 
L 628 4666 
z
" transform="scale(0.015625)"/>
     </defs>
     <use xlink:href="#DejaVuSans-44"/>
     <use xlink:href="#DejaVuSans-61" transform="translate(77.001953 0)"/>
     <use xlink:href="#DejaVuSans-75" transform="translate(138.28125 0)"/>
     <use xlink:href="#DejaVuSans-6d" transform="translate(201.660156 0)"/>
     <use xlink:href="#DejaVuSans-65" transform="translate(299.072266 0)"/>
     <use xlink:href="#DejaVuSans-6e" transform="translate(360.595703 0)"/>
    </g>
   </g>
   <g id="text_21">
    <!-- Datensatz 2 -->
    <g transform="translate(344.898438 20.88) scale(0.12 -0.12)">
     <defs>
      <path id="DejaVuSans-7a" d="M 353 3500 
L 3084 3500 
L 3084 2975 
L 922 459 
L 3084 459 
L 3084 0 
L 275 0 
L 275 525 
L 2438 3041 
L 353 3041 
L 353 3500 
z
" transform="scale(0.015625)"/>
     </defs>
     <use xlink:href="#DejaVuSans-44"/>
     <use xlink:href="#DejaVuSans-61" transform="translate(77.001953 0)"/>
     <use xlink:href="#DejaVuSans-74" transform="translate(138.28125 0)"/>
     <use xlink:href="#DejaVuSans-65" transform="translate(177.490234 0)"/>
     <use xlink:href="#DejaVuSans-6e" transform="translate(239.013672 0)"/>
     <use xlink:href="#DejaVuSans-73" transform="translate(302.392578 0)"/>
     <use xlink:href="#DejaVuSans-61" transform="translate(354.492188 0)"/>
     <use xlink:href="#DejaVuSans-74" transform="translate(415.771484 0)"/>
     <use xlink:href="#DejaVuSans-7a" transform="translate(454.980469 0)"/>
     <use xlink:href="#DejaVuSans-20" transform="translate(507.470703 0)"/>
     <use xlink:href="#DejaVuSans-32" transform="translate(539.257812 0)"/>
    </g>
   </g>
   <g id="legend_1">
    <g id="patch_7">
     <path d="M 626.38125 49.558125 
L 702.2 49.558125 
Q 704.2 49.558125 704.2 47.558125 
L 704.2 33.88 
Q 704.2 31.88 702.2 31.88 
L 626.38125 31.88 
Q 624.38125 31.88 624.38125 33.88 
L 624.38125 47.558125 
Q 624.38125 49.558125 626.38125 49.558125 
z
" style="fill: #ffffff; opacity: 0.8; stroke: #cccccc; stroke-linejoin: miter"/>
    </g>
    <g id="line2d_21">
     <path d="M 628.38125 39.978437 
L 638.38125 39.978437 
L 648.38125 39.978437 
" style="fill: none; stroke: #1f77b4; stroke-width: 1.5; stroke-linecap: square"/>
    </g>
    <g id="text_22">
     <!-- Sensor 2 -->
     <g transform="translate(656.38125 43.478437) scale(0.1 -0.1)">
      <defs>
       <path id="DejaVuSans-6f" d="M 1959 3097 
Q 1497 3097 1228 2736 
Q 959 2375 959 1747 
Q 959 1119 1226 758 
Q 1494 397 1959 397 
Q 2419 397 2687 759 
Q 2956 1122 2956 1747 
Q 2956 2369 2687 2733 
Q 2419 3097 1959 3097 
z
M 1959 3584 
Q 2709 3584 3137 3096 
Q 3566 2609 3566 1747 
Q 3566 888 3137 398 
Q 2709 -91 1959 -91 
Q 1206 -91 779 398 
Q 353 888 353 1747 
Q 353 2609 779 3096 
Q 1206 3584 1959 3584 
z
" transform="scale(0.015625)"/>
      </defs>
      <use xlink:href="#DejaVuSans-53"/>
      <use xlink:href="#DejaVuSans-65" transform="translate(63.476562 0)"/>
      <use xlink:href="#DejaVuSans-6e" transform="translate(125 0)"/>
      <use xlink:href="#DejaVuSans-73" transform="translate(188.378906 0)"/>
      <use xlink:href="#DejaVuSans-6f" transform="translate(240.478516 0)"/>
      <use xlink:href="#DejaVuSans-72" transform="translate(301.660156 0)"/>
      <use xlink:href="#DejaVuSans-20" transform="translate(342.773438 0)"/>
      <use xlink:href="#DejaVuSans-32" transform="translate(374.560547 0)"/>
     </g>
    </g>
   </g>
  </g>
 </g>
 <defs>
  <clipPath id="p7815342114">
   <rect x="52.94" y="26.88" width="656.26" height="219.16"/>
  </clipPath>
 </defs>
</svg>
